<svg xmlns="http://www.w3.org/2000/svg" width="166" height="165" viewBox="0 0 166 165" fill="none">
<mask style="mask-type: luminance; animation-play-state: paused;" maskUnits="userSpaceOnUse" x="49" y="57" width="68" height="46">
<path d="M116.615 57.4375H49.0508V102.48H116.615V57.4375Z" fill="white"></path>
</mask>
<g mask="url(#svg-1947982030_4242_mask0_3709_2072)">
<path fill-rule="evenodd" clip-rule="evenodd" d="M82.6541 96.608C82.6502 94.8191 84.0916 93.3639 85.8805 93.361C85.8883 93.361 85.8972 93.361 85.9011 93.361C87.6901 93.3571 89.1442 94.7995 89.1481 96.5885C89.1481 96.5962 89.1481 96.6011 89.1481 96.609C89.1559 98.398 87.7096 99.8521 85.9246 99.856C85.9168 99.856 85.908 99.856 85.9011 99.856C84.1122 99.8638 82.6629 98.4165 82.6541 96.6286C82.6541 96.6247 82.6541 96.6159 82.6541 96.608ZM95.8654 96.608C95.8615 94.8191 97.3086 93.3639 99.0928 93.361C99.1006 93.361 99.1094 93.361 99.1134 93.361C100.902 93.3571 102.356 94.7995 102.364 96.5885C102.364 96.5962 102.364 96.6011 102.364 96.609C102.368 98.398 100.922 99.8521 99.1368 99.856C99.1289 99.856 99.1201 99.856 99.1134 99.856C97.3282 99.8638 95.8741 98.4165 95.8664 96.6286C95.8654 96.6247 95.8654 96.6159 95.8654 96.608ZM65.2392 96.608C65.2333 94.8191 66.6777 93.3639 68.4646 93.361C68.4725 93.361 68.4784 93.361 68.4862 93.361C70.2732 93.3571 71.7273 94.7995 71.7332 96.5885C71.7332 96.5962 71.7332 96.6011 71.7332 96.609C71.7391 98.398 70.2948 99.8521 68.5057 99.856C68.4999 99.856 68.4921 99.856 68.4862 99.856C66.6991 99.8638 65.2451 98.4165 65.2392 96.6325C65.2392 96.6247 65.2392 96.6159 65.2392 96.608ZM52.0279 96.608C52.0201 94.8191 53.4664 93.3639 55.2535 93.361C55.2593 93.361 55.2671 93.361 55.2739 93.361C57.063 93.3571 58.517 94.7995 58.5229 96.5885C58.5229 96.5962 58.5229 96.6011 58.5229 96.609C58.5288 98.398 57.0844 99.8521 55.2955 99.856C55.2896 99.856 55.2818 99.856 55.2739 99.856C53.487 99.8638 52.0328 98.4165 52.0289 96.6286C52.0279 96.6247 52.0279 96.6159 52.0279 96.608ZM78.7403 90.867H75.9153V102.237H78.7403V90.867ZM58.5005 102.237H61.3254V90.867H58.5005V91.7836C57.5143 91.0991 56.3412 90.7319 55.1398 90.7358C51.9026 90.7358 49.2735 93.3581 49.2696 96.5962C49.2696 96.6011 49.2696 96.6051 49.2696 96.609C49.2568 99.8393 51.8684 102.468 55.1017 102.48C55.1154 102.48 55.127 102.48 55.1398 102.48C56.3412 102.484 57.5143 102.122 58.5005 101.437V102.237ZM102.34 102.237H105.165V90.867H102.34V91.7836C101.356 91.0991 100.181 90.7319 98.9801 90.7358C95.7409 90.7358 93.1118 93.3581 93.1079 96.5962C93.1079 96.6011 93.1079 96.6051 93.1079 96.609C93.0962 99.8403 95.7097 102.469 98.941 102.481C98.9527 102.481 98.9684 102.481 98.9801 102.481C100.181 102.485 101.356 102.123 102.34 101.438V102.237ZM106.208 98.5439C106.3 100.834 108.256 102.456 111.527 102.456C114.197 102.456 116.396 101.3 116.396 98.7427C116.396 96.9664 115.396 95.9177 113.081 95.4712L111.28 95.1177C110.124 94.8935 109.324 94.6712 109.324 93.9818C109.324 93.2288 110.101 92.8949 111.081 92.8949C112.503 92.8949 113.081 93.6088 113.129 94.4489H115.973C115.818 92.2252 114.041 90.7348 111.169 90.7348C108.212 90.7348 106.452 92.3603 106.452 94.4724C106.452 97.0546 108.548 97.4756 110.349 97.8104L111.839 98.0768C112.906 98.2765 113.372 98.587 113.372 99.2088C113.372 99.7659 112.838 100.32 111.572 100.32C109.722 100.32 109.121 99.3673 109.101 98.5439H106.208ZM71.7116 86.9972V91.7826C70.7256 91.0982 69.5545 90.7309 68.353 90.7348C65.1139 90.7348 62.4838 93.3571 62.4799 96.5953C62.4799 96.6002 62.4799 96.6041 62.4799 96.608C62.4701 99.8393 65.0815 102.468 68.3128 102.48C68.3266 102.48 68.3383 102.48 68.353 102.48C69.5545 102.484 70.7256 102.122 71.7116 101.437V102.237H74.5366V86.9972H71.7116ZM89.1285 86.9972V91.7826C88.1405 91.0982 86.9694 90.7309 85.7689 90.7348C82.5268 90.7348 79.9016 93.3571 79.8967 96.5953C79.8967 96.6002 79.8967 96.6041 79.8967 96.608C79.8849 99.8393 82.4944 102.468 85.7298 102.48C85.7414 102.48 85.7532 102.48 85.7689 102.48C86.9694 102.484 88.1405 102.122 89.1285 101.437V102.237H91.9496V86.9972H89.1285ZM56.6077 83.6435L66.4837 77.9701L71.7107 86.9982H58.5219L56.6077 83.6435ZM78.7403 89.8223H75.9153V86.9972L68.1523 73.4972L78.0509 67.8257L89.1285 86.9972H78.7403V89.8223ZM93.3312 86.9972L79.5862 63.1325L89.4624 57.4375L106.541 86.9972H93.3312Z" fill="black"></path>
</g>
</svg>