<svg xmlns="http://www.w3.org/2000/svg" width="166" height="165" viewBox="0 0 166 165" fill="none">
<g clip-path="url(#svg-2050511340_6206_clip0_4548_4286)">
<g clip-path="url(#svg-2050511340_6206_clip1_4548_4286)">
<path d="M85.1273 75.5712C85.1273 76.5137 84.3572 77.2729 83.4012 77.2729C82.4453 77.2729 81.6752 76.5137 81.6752 75.5712C81.6752 74.6287 82.4187 73.8695 83.4012 73.8695C84.3838 73.8957 85.1273 74.6549 85.1273 75.5712ZM78.0107 79.0008C78.0107 79.1579 78.0107 79.4197 78.0107 79.4197C78.0107 79.4197 77.1876 78.3724 75.435 78.3724C72.5406 78.3724 70.2835 80.5454 70.2835 83.5561C70.2835 86.5406 72.514 88.7397 75.435 88.7397C77.2141 88.7397 78.0107 87.6664 78.0107 87.6664V88.1114C78.0107 88.3209 78.1701 88.4779 78.3825 88.4779H80.5334V78.6342C80.5334 78.6342 78.5684 78.6342 78.3825 78.6342C78.1701 78.6342 78.0107 78.8175 78.0107 79.0008ZM78.0107 85.3102C77.6124 85.8861 76.8158 86.3835 75.8599 86.3835C74.1604 86.3835 72.8592 85.3363 72.8592 83.5561C72.8592 81.7759 74.1604 80.7287 75.8599 80.7287C76.7893 80.7287 77.639 81.2523 78.0107 81.802V85.3102ZM82.1266 78.6342H84.6759V88.4779H82.1266V78.6342ZM120.205 78.3724C118.453 78.3724 117.63 79.4197 117.63 79.4197V73.8957H115.08V88.4779C115.08 88.4779 117.045 88.4779 117.231 88.4779C117.444 88.4779 117.603 88.2947 117.603 88.1114V87.6664C117.603 87.6664 118.426 88.7397 120.179 88.7397C123.073 88.7397 125.33 86.5406 125.33 83.5561C125.33 80.5716 123.073 78.3724 120.205 78.3724ZM119.781 86.3574C118.798 86.3574 118.028 85.8599 117.63 85.284V81.7759C118.028 81.2523 118.878 80.7025 119.781 80.7025C121.48 80.7025 122.781 81.7497 122.781 83.5299C122.781 85.3102 121.48 86.3574 119.781 86.3574ZM113.753 82.6398V88.5041H111.203V82.9278C111.203 81.3046 110.672 80.6501 109.238 80.6501C108.468 80.6501 107.672 81.0428 107.167 81.6188V88.4779H104.618V78.6342H106.636C106.849 78.6342 107.008 78.8175 107.008 79.0008V79.4197C107.751 78.6604 108.734 78.3724 109.716 78.3724C110.832 78.3724 111.761 78.6866 112.505 79.3149C113.407 80.048 113.753 80.9905 113.753 82.6398ZM98.4309 78.3724C96.6784 78.3724 95.8552 79.4197 95.8552 79.4197V73.8957H93.306V88.4779C93.306 88.4779 95.271 88.4779 95.4569 88.4779C95.6693 88.4779 95.8286 88.2947 95.8286 88.1114V87.6664C95.8286 87.6664 96.6518 88.7397 98.4044 88.7397C101.299 88.7397 103.556 86.5406 103.556 83.5561C103.582 80.5716 101.325 78.3724 98.4309 78.3724ZM98.0061 86.3574C97.0236 86.3574 96.2535 85.8599 95.8552 85.284V81.7759C96.2535 81.2523 97.1032 80.7025 98.0061 80.7025C99.7055 80.7025 101.007 81.7497 101.007 83.5299C101.007 85.3102 99.7055 86.3574 98.0061 86.3574ZM91.102 78.3724C91.872 78.3724 92.2704 78.5033 92.2704 78.5033V80.8334C92.2704 80.8334 90.146 80.1265 88.8183 81.6188V88.5041H86.2691V78.6342C86.2691 78.6342 88.2341 78.6342 88.42 78.6342C88.6324 78.6342 88.7918 78.8175 88.7918 79.0008V79.4197C89.2697 78.8699 90.3053 78.3724 91.102 78.3724ZM64.6274 87.5878C64.4947 87.2737 64.3619 86.9333 64.2291 86.6453C64.0167 86.1741 63.8042 85.729 63.6184 85.3102L63.5918 85.284C61.7596 81.357 59.7946 77.3776 57.7233 73.4506L57.6437 73.2935C57.4312 72.9008 57.2188 72.4819 57.0064 72.0631C56.7408 71.5918 56.4753 71.0944 56.0504 70.6232C55.2007 69.576 53.9792 69 52.678 69C51.3503 69 50.1554 69.576 49.2791 70.5708C48.8808 71.042 48.5887 71.5395 48.3232 72.0107C48.1107 72.4296 47.8983 72.8485 47.6859 73.2412L47.6062 73.3982C45.5615 77.3252 43.57 81.3046 41.7377 85.2316L41.7112 85.284C41.5253 85.7029 41.3128 86.1479 41.1004 86.6192C40.9676 86.9071 40.8349 87.2213 40.7021 87.5616C40.3569 88.5303 40.2507 89.4466 40.3834 90.3891C40.6755 92.3526 42.0033 94.0019 43.8355 94.735C44.5259 95.0229 45.2429 95.1538 45.9864 95.1538C46.1988 95.1538 46.4644 95.1277 46.6768 95.1015C47.5531 94.9968 48.4559 94.7088 49.3322 94.2114C50.4209 93.6092 51.4565 92.7453 52.6249 91.4886C53.7933 92.7453 54.8555 93.6092 55.9177 94.2114C56.7939 94.7088 57.6968 94.9968 58.5731 95.1015C58.7855 95.1277 59.051 95.1538 59.2635 95.1538C60.007 95.1538 60.7505 95.0229 61.4144 94.735C63.2732 94.0019 64.5743 92.3264 64.8664 90.3891C65.0789 89.4728 64.9726 88.5565 64.6274 87.5878ZM52.6515 88.9492C51.2176 87.1689 50.2882 85.4934 49.9695 84.0797C49.8367 83.4776 49.8102 82.954 49.8899 82.4827C49.943 82.0638 50.1023 81.6973 50.3147 81.3832C50.8192 80.6763 51.669 80.2312 52.6515 80.2312C53.634 80.2312 54.5103 80.6501 54.9883 81.3832C55.2007 81.6973 55.36 82.0638 55.4131 82.4827C55.4928 82.954 55.4662 83.5037 55.3335 84.0797C55.0148 85.4672 54.0854 87.1428 52.6515 88.9492ZM63.2466 90.1796C63.0607 91.541 62.1313 92.7191 60.8302 93.2427C60.1929 93.5045 59.5025 93.583 58.8121 93.5045C58.1482 93.426 57.4844 93.2165 56.7939 92.8238C55.838 92.3002 54.882 91.4886 53.7668 90.2844C55.5193 88.1638 56.5815 86.2265 56.9798 84.4986C57.1657 83.687 57.1923 82.954 57.1126 82.2733C57.0064 81.6188 56.7674 81.0166 56.3956 80.493C55.5724 79.3149 54.1916 78.6342 52.6515 78.6342C51.1113 78.6342 49.7305 79.3411 48.9073 80.493C48.5356 81.0166 48.2966 81.6188 48.1904 82.2733C48.0842 82.954 48.1107 83.7132 48.3232 84.4986C48.7215 86.2265 49.8102 88.19 51.5362 90.3105C50.4475 91.5148 49.465 92.3264 48.509 92.85C47.8186 93.2427 47.1548 93.4521 46.4909 93.5307C45.7739 93.6092 45.0835 93.5045 44.4728 93.2689C43.1716 92.7453 42.2422 91.5672 42.0564 90.2058C41.9767 89.5513 42.0298 88.8968 42.2953 88.1638C42.375 87.902 42.5078 87.6402 42.6406 87.326C42.8264 86.9071 43.0389 86.4621 43.2513 86.017L43.2779 85.9647C45.1101 82.0638 47.0751 78.0845 49.1198 74.2098L49.1994 74.0527C49.4119 73.66 49.6243 73.2412 49.8367 72.8485C50.0492 72.4296 50.2882 72.0369 50.5803 71.6965C51.1379 71.0682 51.8814 70.7279 52.7046 70.7279C53.5278 70.7279 54.2713 71.0682 54.8289 71.6965C55.121 72.0369 55.36 72.4296 55.5724 72.8485C55.7849 73.2412 55.9973 73.66 56.2097 74.0527L56.2894 74.2098C58.3075 78.1106 60.2725 82.09 62.1048 85.9908V86.017C62.3172 86.4359 62.5031 86.9071 62.7155 87.326C62.8483 87.6402 62.9811 87.902 63.0607 88.1638C63.2732 88.8445 63.3528 89.499 63.2466 90.1796Z" fill="black"></path>
</g>
</g>
<defs>
<clipPath>
<rect width="85" height="85" fill="white" transform="translate(40.332 40)"></rect>
</clipPath>
<clipPath>
<rect width="85" height="26.1538" fill="white" transform="translate(40.332 69)"></rect>
</clipPath>
</defs>
</svg>