<svg xmlns="http://www.w3.org/2000/svg" width="166" height="165" viewBox="0 0 166 165" fill="none">
<g style="mix-blend-mode: multiply; animation-play-state: paused;" clip-path="url(#svg1353245330_10148_clip0_4548_4111)">
<mask style="mask-type: luminance; animation-play-state: paused;" maskUnits="userSpaceOnUse" x="40" y="70" width="86" height="25">
<path d="M125.332 70.5117H40.332V94.4861H125.332V70.5117Z" fill="white"></path>
</mask>
<g mask="url(#svg1353245330_10148_mask0_4548_4111)">
<mask style="mask-type: luminance; animation-play-state: paused;" maskUnits="userSpaceOnUse" x="40" y="70" width="86" height="24">
<path d="M125.332 70.8008H40.332V93.9753H125.332V70.8008Z" fill="white"></path>
</mask>
<g mask="url(#svg1353245330_10148_mask1_4548_4111)">
<path d="M81.1054 85.4087C81.1054 85.7642 81.0733 86.1335 80.9937 86.5515L80.1674 91.1212H77.9925L78.7867 86.7374C78.8342 86.4442 78.8662 86.1823 78.8662 85.9652C78.8662 85.1318 78.4057 84.8537 77.6908 84.8537C76.8966 84.8537 76.3564 85.4101 76.1343 86.6913L75.3401 91.1212H73.1331L73.9274 86.7374C73.9748 86.4442 74.0069 86.1972 74.0069 85.9814C74.0069 85.1318 73.5463 84.855 72.8315 84.855C72.0372 84.855 71.497 85.4114 71.2751 86.6926L70.4808 91.1226H68.2891L69.7493 83.0172H71.9409L71.846 83.5575C72.2424 83.2019 72.8301 82.8477 73.6398 82.8477C74.7035 82.8477 75.3862 83.187 75.8789 83.8818C76.3549 83.4964 77.2288 82.8477 78.5466 82.8477C80.2455 82.8477 81.1026 83.7584 81.1026 85.4101L81.1054 85.4087Z" fill="black"></path>
<path d="M81.9648 87.8028C81.9648 85.1468 83.7587 82.8477 86.3314 82.8477C88.2842 82.8477 89.6021 84.1913 89.6021 86.337C89.6021 88.993 87.8084 91.2922 85.2356 91.2922C83.2827 91.2922 81.9648 89.9485 81.9648 87.8028ZM84.2193 87.6644C84.2193 88.6674 84.7596 89.2388 85.4744 89.2388C86.4585 89.2388 87.3476 88.2194 87.3476 86.4754C87.3476 85.4725 86.8074 84.9011 86.0927 84.9011C85.1085 84.9011 84.2193 85.9204 84.2193 87.6644Z" fill="black"></path>
<path d="M97.9694 85.9489C97.9694 88.7122 96.5875 91.291 94.0957 91.291C93.2539 91.291 92.793 91.0439 92.2544 90.6273L92.1593 91.1213H90L91.8413 80.9326L94.2228 79.8672L93.5724 83.5263C94.0327 83.1245 94.5561 82.8476 95.2237 82.8476C96.9867 82.8476 97.9708 84.0203 97.9708 85.9502L97.9694 85.9489ZM95.7151 86.3045C95.7151 85.3476 95.3019 84.8536 94.5561 84.8536C93.9854 84.8536 93.5552 85.1781 93.2066 85.5336L92.6507 88.59C93.0638 89.0529 93.4281 89.285 94.048 89.285C95.0799 89.285 95.7151 87.9264 95.7151 86.3058V86.3045Z" fill="black"></path>
<path d="M102.13 83.0156L100.668 91.1209H98.4766L99.9382 83.0156H102.13Z" fill="black"></path>
<path d="M106.701 79.8672L104.668 91.1213H102.477L104.318 80.9326L106.699 79.8672H106.701Z" fill="black"></path>
<path d="M110.13 83.0156L108.668 91.1209H106.477L107.938 83.0156H110.13Z" fill="black"></path>
<path d="M112.452 80.9326L114.834 79.8672L114.262 83.016H116.199L115.834 85.0233H113.896L113.308 88.2807C113.276 88.4191 113.276 88.5276 113.276 88.6362C113.276 89.1153 113.562 89.2538 114.038 89.2538C114.467 89.2538 114.833 89.0692 115.229 88.7597L114.514 90.8743C114.101 91.1525 113.339 91.291 112.942 91.291C111.689 91.291 110.957 90.5349 110.957 89.4071C110.957 89.2375 110.973 89.0515 111.005 88.852L112.449 80.9326H112.452Z" fill="black"></path>
<path d="M125.331 83.0156L119.091 93.9765H116.9L118.519 91.1209L116.82 83.0156H119.202L119.822 86.9217C119.917 87.5541 120.012 88.3115 120.044 88.6969C120.203 88.2951 120.567 87.5541 120.901 86.9217L122.948 83.0156H125.33H125.331Z" fill="black"></path>
<path d="M45.5518 77.8939L45.0018 76.3766H42.4388L41.8888 77.8939H40.3867L43.0698 71.082H44.4308L47.0929 77.8939H45.5518ZM44.0707 73.8454C43.9311 73.4463 43.7915 73.0378 43.7203 72.7854C43.6505 73.0378 43.5095 73.4476 43.3699 73.8454L42.919 75.0818H44.5215L44.0707 73.8454Z" fill="black"></path>
<path d="M50.5363 77.8938V77.5531C50.2962 77.796 49.8551 78.001 49.3051 78.001C47.9635 78.001 47.3633 77.1052 47.3633 75.6652V72.7852H48.7453V75.5485C48.7453 76.4633 49.065 76.736 49.6359 76.736C50.2068 76.736 50.5363 76.4633 50.5363 75.5784V72.7852H51.9183V77.8938H50.5363Z" fill="black"></path>
<path d="M55.3786 77.6899C55.1482 77.865 54.7378 78.0008 54.3078 78.0008C53.4562 78.0008 52.9062 77.3587 52.9062 76.4631V71.4726L54.2883 70.8008V72.7864H55.5488V74.0513H54.2883V76.1048C54.2883 76.5907 54.4684 76.7182 54.7978 76.7182C55.0477 76.7182 55.239 76.611 55.5781 76.3287L55.3786 77.6913V77.6899Z" fill="black"></path>
<path d="M58.2584 78.0041C56.8862 78.0041 55.8867 76.9142 55.8867 75.3466C55.8867 73.779 56.8876 72.6797 58.2584 72.6797C59.6293 72.6797 60.64 73.779 60.64 75.3466C60.64 76.9142 59.6293 78.0041 58.2584 78.0041ZM58.2584 73.9745C57.5982 73.9745 57.2882 74.5581 57.2882 75.3466C57.2882 76.1352 57.5982 76.7093 58.2584 76.7093C58.9187 76.7093 59.2384 76.0565 59.2384 75.3466C59.2384 74.5676 58.9187 73.9745 58.2584 73.9745Z" fill="black"></path>
<path d="M65.8627 77.8939L63.29 74.1766C63.1197 73.9241 62.8894 73.5834 62.8 73.4083C62.8 73.6608 62.8195 74.5172 62.8195 74.8972V77.8939H61.4375V71.082H62.7791L65.2611 74.6828C65.4314 74.9353 65.6617 75.2759 65.751 75.4523C65.751 75.1998 65.7315 74.3434 65.7315 73.9634V71.082H67.1135V77.8939H65.8627Z" fill="black"></path>
<path d="M71.0837 77.8941V77.5535C70.8338 77.8058 70.3927 78.0012 69.9027 78.0012C68.9227 78.0012 67.9414 77.4177 67.9414 76.1813C67.9414 75.0521 68.8823 74.4875 70.0731 74.4875C70.5532 74.4875 70.8631 74.5852 71.0837 74.6924V74.44C71.0837 74.0803 70.8338 73.7885 70.3326 73.7885C69.7017 73.7885 69.3722 73.8767 68.8921 74.1292L68.3616 73.1954C68.973 72.8547 69.4825 72.6797 70.334 72.6797C71.6044 72.6797 72.4657 73.3217 72.4657 74.4711V77.8968H71.0851L71.0837 77.8941ZM71.0837 75.7523C70.8436 75.6059 70.6132 75.5379 70.1233 75.5379C69.6026 75.5379 69.322 75.7714 69.322 76.1799C69.322 76.5396 69.5328 76.8613 70.1233 76.8613C70.5741 76.8613 70.9344 76.6373 71.0837 76.3944V75.7523Z" fill="black"></path>
<path d="M75.8746 77.6899C75.6443 77.865 75.2339 78.0008 74.8039 78.0008C73.9523 78.0008 73.4023 77.3587 73.4023 76.4631V71.4726L74.7844 70.8008V72.7864H76.0449V74.0513H74.7844V76.1048C74.7844 76.5907 74.9644 76.7182 75.2939 76.7182C75.5437 76.7182 75.7349 76.611 76.0742 76.3287L75.8746 77.6913V77.6899Z" fill="black"></path>
<path d="M76.9141 77.8938V72.7852H78.2961V77.8938H76.9141Z" fill="black"></path>
<path d="M81.2897 78.0041C79.9175 78.0041 78.918 76.9142 78.918 75.3466C78.918 73.779 79.9189 72.6797 81.2897 72.6797C82.6606 72.6797 83.6712 73.779 83.6712 75.3466C83.6712 76.9142 82.6606 78.0041 81.2897 78.0041ZM81.2897 73.9745C80.6294 73.9745 80.3195 74.5581 80.3195 75.3466C80.3195 76.1352 80.6294 76.7093 81.2897 76.7093C81.95 76.7093 82.2697 76.0565 82.2697 75.3466C82.2697 74.5676 81.95 73.9745 81.2897 73.9745Z" fill="black"></path>
<path d="M87.4127 77.8954V75.1322C87.4127 74.2174 87.0931 73.9447 86.5221 73.9447C85.9511 73.9447 85.6203 74.2174 85.6203 75.1023V77.8954H84.2383V72.7869H85.6203V73.1276C85.8604 72.8847 86.3016 72.6797 86.8515 72.6797C88.1931 72.6797 88.7933 73.5755 88.7933 75.0154V77.8954H87.4113H87.4127Z" fill="black"></path>
<path d="M82.7631 78.918C81.2945 78.918 79.8246 78.9315 78.356 78.9626C76.2997 79.0048 74.2421 79.0644 72.1859 79.1649C70.1855 79.2627 68.1864 79.3685 66.1888 79.5123C64.6268 79.625 63.0646 79.7485 61.5039 79.8761C61.5487 79.8733 61.592 79.8706 61.6366 79.8693C63.3173 79.7784 64.9981 79.6956 66.6788 79.6223C68.6079 79.5381 70.5372 79.4988 72.4678 79.4595C73.6586 79.4349 74.8493 79.4255 76.0415 79.4255C76.8371 79.4255 77.6315 79.4296 78.4272 79.4349C80.341 79.4486 82.2549 79.4906 84.1674 79.5572C85.0413 79.587 85.9151 79.625 86.789 79.6698C87.1365 79.6874 87.4842 79.7065 87.8318 79.7282C88.0188 79.7404 88.2045 79.7512 88.3917 79.7635C88.4432 79.7661 88.513 79.7784 88.5798 79.7784C88.6872 79.7784 88.7866 79.7485 88.7938 79.6073C88.799 79.5028 88.8047 79.3983 88.8091 79.2938C88.8091 79.2803 88.8091 79.268 88.8091 79.2559C88.8091 79.1241 88.7684 79.0305 88.6233 79.0197C88.4514 79.0074 88.2799 79.0061 88.108 79.0007C87.7299 78.9872 87.353 78.9749 86.9746 78.9668C86.0841 78.945 85.192 78.9301 84.3 78.9247C83.7876 78.922 83.2739 78.9193 82.7616 78.9193" fill="black"></path>
<path d="M77.425 80.0586C76.9796 80.0586 76.5329 80.06 76.0876 80.064C74.5646 80.0776 73.0417 80.0966 71.52 80.1414C70.3293 80.1766 69.14 80.2188 67.9492 80.2649C67.9827 80.2649 68.0162 80.2649 68.0497 80.2636C69.3298 80.2458 70.6099 80.2337 71.8899 80.2283C72.0658 80.2283 72.2404 80.2283 72.4163 80.2283C73.709 80.2283 75.0016 80.25 76.2943 80.2689C77.8046 80.292 79.3151 80.345 80.8241 80.406C82.2787 80.4644 83.7319 80.5418 85.1852 80.6354C85.8482 80.6775 86.5127 80.7263 87.1744 80.7792C87.4382 80.7996 87.702 80.8213 87.9659 80.8457C88.1066 80.858 88.2494 80.8715 88.3903 80.8837C88.4338 80.8879 88.4934 80.8987 88.5493 80.8987C88.6247 80.8987 88.693 80.8783 88.7016 80.7901C88.7083 80.7209 88.7141 80.6503 88.7213 80.5811C88.7213 80.5689 88.7227 80.5567 88.7227 80.5445C88.7227 80.4617 88.6916 80.4033 88.587 80.3925C88.4571 80.3802 88.3258 80.3748 88.1964 80.3667C87.9086 80.3477 87.6225 80.33 87.3349 80.3137C86.6578 80.2758 85.9808 80.2432 85.3023 80.2161C83.7962 80.1563 82.2898 80.1129 80.7823 80.0885C79.6627 80.0708 78.5445 80.0586 77.425 80.0586Z" fill="#666666"></path>
<path d="M89.3931 77.8782C89.2212 77.8782 89.0898 77.7506 89.0898 77.5836C89.0898 77.4167 89.2212 77.2891 89.3931 77.2891C89.5645 77.2891 89.6959 77.4167 89.6959 77.5836C89.6959 77.7506 89.5645 77.8782 89.3931 77.8782ZM89.3931 77.3366C89.2494 77.3366 89.1391 77.4438 89.1391 77.5836C89.1391 77.7234 89.2494 77.8307 89.3931 77.8307C89.5369 77.8307 89.6471 77.7234 89.6471 77.5836C89.6471 77.4438 89.5369 77.3366 89.3931 77.3366ZM89.4614 77.6094L89.5297 77.7397H89.4643L89.3998 77.6162H89.3358V77.7397H89.2799V77.4181H89.4252C89.4839 77.4181 89.534 77.4478 89.534 77.5158C89.534 77.566 89.5063 77.5986 89.4643 77.6108L89.4614 77.6094ZM89.4222 77.4709H89.3358V77.5619H89.4222C89.4528 77.5619 89.4753 77.5483 89.4753 77.5158C89.4753 77.4859 89.4528 77.4696 89.4222 77.4696V77.4709Z" fill="black"></path>
<path d="M64.457 83.0195L60.0039 90.7883H57.9044L62.3589 83.0195H61.0969L56.6424 90.7883H53.9091L58.3636 83.0195H57.7634L53.3088 90.7883H40.332V91.0801H59.8364H61.9904H62.6143L67.235 83.0195H64.457Z" fill="#666666"></path>
</g>
</g>
</g>
<defs>
<clipPath>
<rect width="85" height="85" fill="white" transform="translate(40.332 40)"></rect>
</clipPath>
</defs>
</svg>