<svg xmlns="http://www.w3.org/2000/svg" width="166" height="165" viewBox="0 0 166 165" fill="none">
<path fill-rule="evenodd" clip-rule="evenodd" d="M97.2967 80.035C97.2967 82.6316 95.6954 86.0431 94.5378 88.2971C92.7198 91.8438 90.2604 93.9692 86.2612 94.2198C82.7264 94.4413 74.7376 95.0613 76.1372 89.0436C76.7442 86.4385 78.0928 84.1433 78.9208 81.6276C81.703 76.0195 88.7046 74.9503 94.2669 76.3518C96.1498 77.0439 97.1519 77.97 97.2967 80.035ZM87.9609 80.2838C85.1018 80.2838 84.7536 84.3158 84.2168 86.4803C84.0821 87.2984 83.1753 90.039 84.6356 90.039C88.0732 90.7375 88.3928 86.9283 88.9709 84.39C89.1835 83.4561 89.605 81.8894 89.4143 80.9308C89.4143 80.2179 88.4303 80.3315 87.9609 80.2838ZM68.2795 80.4581C67.9267 87.2868 63.1793 86.7554 57.5396 86.7292C55.3963 86.7203 53.2045 86.58 51.0858 86.58C50.304 87.3811 52.5675 89.811 53.2043 90.2133C55.3779 91.5813 58.1053 90.994 59.8551 89.2178C60.7951 89.2178 70.8855 87.8854 67.3928 91.4077C65.7022 92.9274 63.3105 93.8249 61.1359 94.3443C54.2168 95.9974 39.2708 91.9789 44.3118 82.1253C47.7578 76.3955 55.2216 73.2624 61.3823 71.6485C61.9559 71.5326 62.5226 71.4433 63.1066 71.3996C67.4898 71.069 68.2795 77.1805 68.2795 80.4581ZM61.8503 79.9105C61.8503 79.2929 61.8754 78.6399 61.6779 78.0441C61.0014 75.2904 53.9029 81.1707 53.0564 82.0258C52.9502 82.2421 53.0305 82.1751 53.1796 82.2499C55.5354 82.2499 57.8966 82.2249 60.2492 82.2249C61.7985 81.9665 61.8503 81.4902 61.8503 79.9105ZM75.5215 83.4194C74.9874 84.5062 75.1067 85.9317 74.0188 86.7541C72.5311 87.8787 68.7836 87.8818 69.6096 85.1614C70.3915 82.5754 71.87 81.4755 74.5608 82.1503C75.2171 82.3723 75.3722 82.8116 75.5215 83.4194ZM122.373 80.0598C122.373 80.756 122.228 81.4737 122.077 82.1503C121.188 86.1209 119.754 89.8987 118.481 93.7221C117.312 94.9025 114.883 94.2598 113.628 93.4982C113 92.8637 114.561 89.6268 114.811 88.8444C115.193 87.643 117.283 83.2126 115.525 82.3245C114.959 82.3245 114.509 82.3993 113.948 82.5484C108.687 84.4095 104.952 89.8207 101.164 93.6475C99.5222 94.4828 98.3432 94.269 96.7302 93.4485C96.5702 93.2868 96.6477 93.0299 96.6808 92.8263C97.9014 87.6757 99.8319 82.5691 101.928 77.7206C102.257 76.7306 105.645 77.0974 106.485 77.5216C106.485 78.618 106.371 80.4581 107.938 80.4581C111.454 80.0666 120.069 72.3562 122.25 78.9649C122.311 79.3381 122.373 79.6762 122.373 80.0598Z" fill="black"></path>
</svg>