<svg xmlns="http://www.w3.org/2000/svg" width="166" height="165" viewBox="0 0 166 165" fill="none">
<path d="M89.9224 74.2727C89.9224 70.679 92.3551 67.1937 93.6824 67.8503C95.1954 68.6087 92.5485 71.9935 89.9224 74.2727ZM73.3794 75.582C73.3794 72.6925 76.2301 67.2027 77.9714 67.7833C80.0301 68.4695 76.2661 74.007 73.3794 75.582ZM70.4886 96.2462C69.1781 96.3056 68.301 95.4671 68.301 94.0675C68.301 90.3075 73.5187 86.7152 77.4593 84.7867C76.7602 90.0366 74.9866 96.0437 70.4886 96.2462ZM94.5609 83.9934C91.585 83.9934 89.3109 86.1824 89.3109 88.8074C89.3109 90.9963 90.6267 92.7467 92.3719 92.7467C92.9897 92.7467 93.6011 92.3946 93.6011 91.6129C93.6011 90.4688 92.0919 90.1939 92.2055 88.4926C92.2816 87.3704 93.3393 86.6197 94.3892 86.6197C96.488 86.6197 97.4695 88.6538 97.4695 90.7525C97.3844 93.994 94.9981 96.2449 92.2016 96.2449C88.5228 96.2449 86.1597 92.7467 86.1597 88.9815C86.1597 83.3755 89.8385 81.1879 91.7656 80.6654C91.7836 80.6654 96.7988 81.5568 96.6427 79.3459C96.5705 78.3733 95.1245 77.9993 94.0796 77.9593C92.9175 77.9142 91.7437 78.3321 91.7437 78.3321C91.1348 78.0225 90.7118 77.4175 90.4499 76.721C94.0397 74.0044 96.5782 71.3808 96.5782 68.4036C96.5782 66.8287 95.5256 65.4279 93.5121 65.4279C89.9224 65.4279 87.2084 69.98 87.2084 74.0947C87.2084 74.7926 87.2084 75.4956 87.3889 76.1069C85.111 77.7684 83.4174 78.8042 80.3564 80.6422C80.3564 80.2592 80.4364 79.2698 80.6944 77.9902C81.7431 76.8512 83.1839 75.1447 83.1839 73.8302C83.1839 73.2189 82.837 72.6914 82.13 72.6914C80.3822 72.6914 79.0717 75.3201 78.7208 77.1582C77.9327 78.1257 76.3565 79.3511 75.0407 79.3511C73.9921 79.3511 73.64 78.3875 73.5509 78.0353C76.8789 76.8963 80.9937 72.3444 80.9937 68.2295C80.9937 67.3563 80.6428 65.4279 78.0178 65.4279C74.0785 65.4279 70.7557 71.2956 70.7557 75.8426C69.3509 75.8426 68.8286 74.3566 68.8286 73.2176C68.8286 72.0773 69.2658 70.9435 69.2658 70.5913C69.2658 70.2405 69.0904 69.8045 68.5628 69.8045C67.2523 69.8045 66.4642 71.5549 66.4642 73.5685C66.5544 76.3701 68.3913 78.1257 70.8408 78.2972C71.1916 79.9624 72.6776 81.5388 74.5145 81.5388C75.6548 81.5388 77.0542 81.1879 78.0178 80.3147C77.9327 80.926 77.8476 81.4537 77.7572 81.976C73.903 83.9934 71.1014 85.393 68.5628 87.6684C66.5544 89.509 65.4156 91.9586 65.4156 93.8819C65.4156 96.5119 67.0769 98.9615 70.4899 98.9615C74.5145 98.9615 77.5819 95.7237 79.0717 91.2569C79.7696 89.1581 80.0494 86.1011 80.2288 83.2955C84.2507 81.0163 86.1597 79.7032 88.2623 78.2121C88.5241 78.6494 88.7885 78.9989 89.1355 79.2608C87.2987 80.2243 82.9221 82.9396 82.9221 89.3285C82.9221 93.8805 85.9829 98.9602 92.0274 98.9602C97.0168 98.9602 100.43 94.8441 100.43 90.9035C100.429 87.3175 98.4151 83.9934 94.5609 83.9934ZM109.613 91.5135C109.6 91.5406 109.551 91.5767 109.451 91.5445C109.374 91.5174 109.357 91.4813 109.357 91.431C109.361 91.382 110.415 88.2655 110.406 84.6951C110.397 80.8358 108.831 78.4714 106.823 78.4714C105.593 78.4714 104.719 79.3498 104.719 80.6654C104.719 83.0286 107.606 83.2053 107.606 88.3687C107.606 90.4675 107.168 92.481 106.472 94.6686C103.229 105.61 92.8994 110.689 82.837 110.689C78.1945 110.689 74.8975 109.735 73.9173 109.295C73.8773 109.272 73.8398 109.195 73.8721 109.118C73.894 109.06 73.9624 109.015 74.0024 109.033C74.3996 109.186 77.231 110.078 80.7344 110.078C84.5847 110.078 86.8627 108.503 86.8627 106.574C86.8627 105.35 85.8991 104.387 84.675 104.387C82.3106 104.387 82.1314 107.363 77.0555 107.363C74.8679 107.363 72.9408 106.925 70.6667 106.222C59.8083 102.897 54.6396 92.6576 54.6435 82.5036C54.6475 77.5555 56.0354 73.6149 56.0573 73.5787C56.0754 73.553 56.1373 73.5246 56.2133 73.553C56.2908 73.5787 56.3075 73.6419 56.3037 73.6651C56.1786 74.0753 55.2588 76.899 55.2588 80.4024C55.2588 84.2566 56.8338 86.5307 58.8473 86.5307C59.9824 86.5307 60.946 85.6573 60.946 84.432C60.946 82.065 58.0553 81.8031 58.0553 76.7248C58.0553 74.5359 58.4964 72.6087 59.1943 70.3347C62.5223 59.4789 72.7666 54.3915 82.8343 54.3128C87.5128 54.2766 91.6057 55.6775 91.7631 55.8026C91.7901 55.8258 91.8172 55.8852 91.7901 55.9562C91.7527 56.0413 91.6985 56.0503 91.6727 56.0452C91.6237 56.0413 88.9613 54.9281 84.9317 54.9281C81.1678 54.9242 78.8034 56.5005 78.8034 58.5166C78.8034 59.6517 79.6818 60.6152 80.991 60.6152C83.3555 60.6152 83.5309 57.7285 88.6105 57.7285C90.793 57.7285 92.7214 58.1606 94.9956 58.8636C105.942 62.1903 110.922 72.5197 111.016 82.5023C111.068 87.6142 109.627 91.4813 109.613 91.5135ZM82.8357 52.3882C66.2023 52.3882 52.7216 65.8652 52.7216 82.5023C52.7216 99.1356 66.2023 112.612 82.8357 112.612C99.465 112.612 112.946 99.1356 112.946 82.5023C112.946 65.9554 99.465 52.3882 82.8357 52.3882ZM82.8357 114.104C65.4142 114.104 51.2305 100.01 51.2305 82.5036C51.2305 65.077 65.4142 50.8984 82.8357 50.8984C100.252 50.8984 114.436 65.077 114.436 82.5036C114.436 100.01 100.252 114.104 82.8357 114.104Z" fill="black"></path>
</svg>