<svg xmlns="http://www.w3.org/2000/svg" width="166" height="165" viewBox="0 0 166 165" fill="none">
<g clip-path="url(#svg560363042_3046_clip0_3709_2016)">
<path d="M76.504 83.0656C76.504 87.0527 73.3821 89.9906 69.5509 89.9906C65.7196 89.9906 62.5977 87.0527 62.5977 83.0656C62.5977 79.0505 65.7196 76.1406 69.5509 76.1406C73.3821 76.1406 76.504 79.0505 76.504 83.0656ZM73.4602 83.0656C73.4602 80.5741 71.6508 78.8694 69.5509 78.8694C67.4508 78.8694 65.6414 80.5741 65.6414 83.0656C65.6414 85.5321 67.4508 87.2619 69.5509 87.2619C71.6508 87.2619 73.4602 85.5291 73.4602 83.0656Z" fill="black"></path>
<path d="M91.5039 83.0656C91.5039 87.0527 88.382 89.9906 84.5508 89.9906C80.7194 89.9906 77.5977 87.0527 77.5977 83.0656C77.5977 79.0536 80.7194 76.1406 84.5508 76.1406C88.382 76.1406 91.5039 79.0505 91.5039 83.0656ZM88.4601 83.0656C88.4601 80.5741 86.6507 78.8694 84.5508 78.8694C82.4507 78.8694 80.6414 80.5741 80.6414 83.0656C80.6414 85.5321 82.4507 87.2619 84.5508 87.2619C86.6507 87.2619 88.4601 85.5291 88.4601 83.0656Z" fill="black"></path>
<path d="M105.877 76.559V88.9915C105.877 94.1057 102.859 96.1944 99.2898 96.1944C95.9305 96.1944 93.9085 93.9495 93.146 92.1138L95.7961 91.0116C96.2679 92.1387 97.4242 93.4688 99.2866 93.4688C101.571 93.4688 102.987 92.0607 102.987 89.4099V88.414H102.88C102.199 89.2538 100.887 89.9876 99.2304 89.9876C95.7648 89.9876 92.5898 86.9715 92.5898 83.0906C92.5898 79.1817 95.7648 76.1406 99.2304 76.1406C100.884 76.1406 102.196 76.8743 102.88 77.6893H102.987V76.5621H105.877V76.559ZM103.202 83.0906C103.202 80.6522 101.574 78.8694 99.5023 78.8694C97.4024 78.8694 95.643 80.6522 95.643 83.0906C95.643 85.504 97.4024 87.2619 99.5023 87.2619C101.574 87.2619 103.202 85.504 103.202 83.0906Z" fill="black"></path>
<path d="M110.644 69.2695V89.5637H107.676V69.2695H110.644Z" fill="black"></path>
<path d="M122.213 85.3441L124.575 86.9176C123.813 88.0447 121.975 89.9867 118.8 89.9867C114.863 89.9867 111.922 86.9457 111.922 83.0617C111.922 78.9436 114.888 76.1367 118.459 76.1367C122.056 76.1367 123.816 78.9966 124.391 80.5421L124.706 81.3289L115.441 85.163C116.15 86.5523 117.253 87.261 118.8 87.261C120.35 87.261 121.425 86.4992 122.213 85.3441ZM114.941 82.8525L121.134 80.283C120.794 79.4182 119.769 78.8155 118.563 78.8155C117.016 78.8155 114.863 80.1799 114.941 82.8525Z" fill="black"></path>
<path d="M51.3609 81.2627V78.3247H61.2703C61.3672 78.8367 61.4172 79.4424 61.4172 80.0981C61.4172 82.3023 60.814 85.028 58.8704 86.97C56.9797 88.937 54.564 89.9861 51.3641 89.9861C45.4328 89.9861 40.4453 85.1592 40.4453 79.2333C40.4453 73.3074 45.4328 68.4805 51.3641 68.4805C54.6453 68.4805 56.9828 69.7668 58.739 71.4434L56.6641 73.5165C55.4046 72.3363 53.6984 71.4184 51.3609 71.4184C47.0297 71.4184 43.6422 74.9059 43.6422 79.2333C43.6422 83.5606 47.0297 87.0481 51.3609 87.0481C54.1703 87.0481 55.7704 85.9209 56.7953 84.8969C57.6265 84.0664 58.1735 82.88 58.389 81.2596L51.3609 81.2627Z" fill="black"></path>
</g>
<defs>
<clipPath>
<rect width="85" height="85" fill="white" transform="translate(40.332 40)"></rect>
</clipPath>
</defs>
</svg>