<svg xmlns="http://www.w3.org/2000/svg" width="166" height="165" viewBox="0 0 166 165" fill="none">
<path fill-rule="evenodd" clip-rule="evenodd" d="M124.197 99.2322L82.8382 57.4844L41.4727 99.2322H74.7267C76.3538 99.2322 77.3791 99.393 78.3502 99.9274C79.4668 100.542 79.9881 101.359 80.6116 102.638C80.6095 102.641 82.8382 107.172 82.8382 107.172C82.8382 107.172 85.0627 102.641 85.0605 102.638C85.684 101.359 86.2054 100.542 87.3219 99.9274C88.2929 99.393 89.3184 99.2322 90.9453 99.2322H124.197ZM81.6315 94.8746C79.6873 95.5242 76.8199 96.3018 73.1247 96.3018C65.0437 96.3018 61.5201 92.1788 61.5201 86.913C61.5201 80.8717 66.3166 77.2548 73.3007 77.2548C76.9524 77.2548 79.1833 77.8913 81.5534 78.8732V83.1484H80.9386C79.2246 81.8298 77.2522 80.6936 73.9827 80.6936C69.8553 80.6936 67.2573 82.9811 67.2573 86.6806C67.2573 89.9412 68.88 92.9695 74.15 92.7827C74.6779 92.7631 75.5577 92.6458 76.1313 92.4742V89.1006H71.8039V85.6618H81.6315V94.8746ZM96.5949 83.7153C96.5949 85.0469 95.8759 85.7117 95.1156 86.0636C94.4095 86.3894 93.3777 86.5132 92.4458 86.5132H89.7434V81.0845H92.4458C93.3777 81.0845 94.4095 81.128 95.1156 81.4516C95.8759 81.8036 96.5949 82.388 96.5949 83.7153ZM99.3669 78.7298C97.8614 77.8782 95.9063 77.6501 93.6862 77.6501H84.2387V95.9107H89.7434V89.952H93.5536C95.6955 89.952 97.7115 89.6957 99.3299 88.779C101.237 87.6972 102.252 86.0027 102.252 83.4111C102.252 81.1411 101.281 79.8138 99.3669 78.7298Z" fill="black"></path>
</svg>