<svg xmlns="http://www.w3.org/2000/svg" width="166" height="165" viewBox="0 0 166 165" fill="none">
<g clip-path="url(#svg-1422594781_2634_clip0_3709_2142)">
<mask style="mask-type: luminance; animation-play-state: paused;" maskUnits="userSpaceOnUse" x="40" y="70" width="86" height="24">
<path d="M125.332 70.5117H40.332V93.4482H125.332V70.5117Z" fill="white"></path>
</mask>
<g mask="url(#svg-1422594781_2634_mask0_3709_2142)">
<path d="M96.1374 82.6805H91.9937V86.7821H89.9219V77.1758H91.9937V81.1154H96.1374V77.1758H98.2093V86.7821H96.1374V82.6805Z" fill="black"></path>
<path d="M103.216 86.9727C101.144 86.9727 99.4487 86.1362 99.4219 83.8425H101.494C101.521 84.868 102.113 85.4886 103.243 85.4886C104.077 85.4886 105.045 85.0568 105.045 84.1125C105.045 83.3568 104.4 83.141 103.323 82.8172L102.624 82.6282C101.117 82.1966 99.6102 81.6029 99.6102 79.8759C99.6102 77.7441 101.601 77.0156 103.404 77.0156C105.261 77.0156 106.875 77.6633 106.902 79.7949H104.83C104.749 78.9315 104.238 78.4188 103.27 78.4188C102.489 78.4188 101.736 78.8235 101.736 79.687C101.736 80.3886 102.382 80.6045 103.727 81.0362L104.534 81.2791C106.176 81.7918 107.225 82.3584 107.225 83.9775C107.198 86.1362 105.099 86.9727 103.216 86.9727Z" fill="black"></path>
<path d="M108.383 77.2051H111.719C112.338 77.178 112.984 77.2051 113.603 77.3129C114.76 77.5828 115.648 78.3384 115.648 79.6336C115.648 80.8749 114.867 81.4955 113.737 81.7923C115.029 82.0351 115.998 82.6828 115.998 84.1129C115.998 86.2986 113.845 86.7843 112.177 86.7843H108.41L108.383 77.2051ZM111.719 81.1986C112.634 81.1986 113.576 81.0098 113.576 79.9035C113.576 78.9051 112.715 78.6351 111.854 78.6351H110.401V81.1986H111.719ZM111.908 85.3543C112.876 85.3543 113.818 85.1384 113.818 83.951C113.818 82.7637 113.011 82.5479 112.015 82.5479H110.374V85.3543H111.908Z" fill="black"></path>
<path d="M121.377 86.9724C118.282 86.9724 116.91 85.0026 116.91 82.0613C116.91 79.12 118.444 76.9883 121.484 76.9883C123.395 76.9883 125.251 77.8518 125.305 80.0105H123.153C123.045 79.0391 122.399 78.5534 121.484 78.5534C119.601 78.5534 119.036 80.5771 119.036 82.1152C119.036 83.6534 119.601 85.4342 121.404 85.4342C122.345 85.4342 123.045 84.9216 123.18 83.9501H125.332C125.117 86.1628 123.368 86.9724 121.377 86.9724Z" fill="black"></path>
<path fill-rule="evenodd" clip-rule="evenodd" d="M51.7938 93.4746L40.332 82.007L51.7935 70.5127V93.4482L51.7938 93.4746L63.229 82.0069L51.7935 70.5127L74.6646 70.5117L63.229 82.0069L74.6646 93.4749L51.7938 93.4746ZM74.6646 70.5117L86.1009 82.007L74.6646 93.4749V70.5117Z" fill="black"></path>
</g>
</g>
<defs>
<clipPath>
<rect width="85" height="85" fill="white" transform="translate(40.332 40)"></rect>
</clipPath>
</defs>
</svg>