<svg xmlns="http://www.w3.org/2000/svg" width="165" height="165" viewBox="0 0 165 165" fill="none">
<g clip-path="url(#svg-1069585187_4507_clip0_4566_4669)">
<mask style="mask-type: luminance; animation-play-state: paused;" maskUnits="userSpaceOnUse" x="45" y="45" width="75" height="75">
<path d="M120 45H45V120H120V45Z" fill="white"></path>
</mask>
<g mask="url(#svg-1069585187_4507_mask0_4566_4669)">
<path d="M83.9531 88.6493C83.937 88.6931 83.9091 88.7317 83.8725 88.7606C83.8359 88.7896 83.792 88.8079 83.7456 88.8134C82.4576 88.8427 81.19 89.1415 80.0244 89.6903C78.8589 90.2392 77.8212 91.0261 76.9781 92.0003C76.9781 92.0003 76.7734 92.1989 76.2565 91.7927C76.1485 91.7315 76.0649 91.6351 76.0193 91.5196C75.9737 91.4041 75.969 91.2766 76.0061 91.1581C76.7108 89.3833 78.5274 88.213 81.4001 87.6817L81.4844 87.6694C82.0724 87.5887 83.4405 87.3997 83.9064 88.319C83.9623 88.4195 83.979 88.5373 83.9531 88.6493ZM92.1677 97.4462L92.1511 97.4246C93.0043 96.1019 93.9813 94.8631 95.0687 93.725C95.1042 93.7088 95.13 93.6983 95.1695 93.6799C96.0866 93.6644 96.9815 93.3958 97.7553 92.9035C98.1956 92.5372 98.6166 92.1484 99.0169 91.7387C99.3067 91.2422 99.5589 90.7246 99.7713 90.1904L99.7518 90.2246L99.8225 90.0605L99.8339 90.0166L99.9489 89.6608C99.9474 89.6083 99.9321 89.557 99.9046 89.5121C99.8772 89.4674 99.8383 89.4305 99.7921 89.4055C99.7158 89.3735 99.6316 89.3644 99.5502 89.3792L99.5568 89.3576C99.6171 89.2439 99.6552 89.1197 99.6691 88.9919V88.9664C99.6624 88.912 99.6429 88.8599 99.6123 88.8145C99.5817 88.769 99.5407 88.7315 99.4927 88.705C99.3756 88.654 99.2439 88.6465 99.1217 88.684C99.0774 88.6231 99.0219 88.5713 98.9581 88.5313C98.9293 88.5106 98.7631 88.4515 98.4571 88.637C98.3278 88.7234 98.2143 88.8314 98.1216 88.9562L98.1445 88.7681C98.1307 88.7171 98.1047 88.6702 98.0687 88.6313C98.0328 88.5923 97.9879 88.5628 97.9381 88.5449C97.8522 88.5206 97.7616 88.5167 97.6737 88.5337C97.5859 88.5505 97.5033 88.5877 97.4323 88.6423C97.2231 88.834 97.0451 89.0572 96.9044 89.3038C96.7178 89.4571 96.5575 89.6396 96.4297 89.8445C96.1366 89.9692 95.8133 90.0043 95.5004 89.9455C95.7464 89.8169 95.971 89.6513 96.1668 89.4545C96.4297 89.1731 96.5911 88.8121 96.6255 88.4285C96.6258 88.3783 96.6215 88.328 96.6126 88.2785C96.6021 88.2154 96.5775 88.1554 96.5406 88.103C96.5037 88.0505 96.4555 88.0072 96.3996 87.976C96.103 87.8282 95.7486 88.1282 95.6807 88.1905C95.6754 88.198 95.5772 88.3015 95.5235 88.3594C95.3408 88.399 95.1693 88.4792 95.0217 88.594C94.9058 88.6834 94.7728 88.7482 94.6309 88.7843C94.4154 88.8445 94.2144 88.948 94.0403 89.0884L94.0248 89.1002L94.039 89.0909C94.0021 89.1164 93.6766 89.3332 93.5758 89.4016C93.2091 89.596 92.8775 89.8502 92.5946 90.1538C92.0696 90.6763 91.4115 91.3234 88.4634 92.3003C88.438 91.2203 87.7724 88.319 87.638 87.2087C87.3656 85.2479 85.0933 82.5488 83.4592 80.8412C85.0002 81.7369 85.8626 81.8624 86.7107 80.7065C86.9345 80.3564 87.2878 80.7341 87.6076 80.6723C88.0738 80.4296 88.0135 80.2994 88.0135 79.9616C88.1503 79.5998 88.5167 79.7783 88.7889 79.7345C89.4755 79.6208 89.0673 78.9001 89.336 78.5383C92.3543 78.358 88.9509 75.5816 90.9825 74.432C91.985 73.9354 92.8221 73.1591 93.3927 72.197C93.8794 71.5408 93.9803 72.0536 94.3445 71.5145C95.0021 69.1484 93.8665 66.23 92.4043 64.2223C84.9142 54.5867 76.3621 59.0294 73.8688 64.9973C72.8377 66.5138 73.1561 68.7185 73.0983 70.5319C72.9044 71.1626 72.5259 71.1452 71.982 70.7728C71.9526 70.9627 71.9633 71.1566 72.0135 71.3422C72.0638 71.5277 72.1524 71.7007 72.2736 71.8498C72.3948 71.9989 72.546 72.1208 72.7175 72.2077C72.8888 72.2945 73.0766 72.3443 73.2684 72.3541C73.3142 72.5141 73.5993 72.7577 73.7183 72.9244C73.2134 72.9754 72.7041 72.8866 72.2462 72.6677C72.2306 72.8074 72.2448 72.9487 72.2882 73.0823C72.3315 73.2161 72.4029 73.339 72.4975 73.4429C72.5463 73.7846 72.6927 74.1052 72.9192 74.3657C73.1456 74.6263 73.4426 74.8159 73.7742 74.9119C74.9759 75.3997 74.4118 77.0477 74.2711 77.7245C74.2272 77.8742 74.1815 78.0233 74.1419 78.1658C73.6131 78.3367 73.1376 78.6415 72.7615 79.0505C72.3855 79.4597 72.1217 79.9591 71.9958 80.5004C71.8604 83.0306 70.5561 85.1303 70.5792 87.7487C70.567 87.9284 70.567 88.1087 70.5792 88.2884C71.227 91.1207 70.3993 94.8331 70.5361 97.7528C61.5541 99.0379 52.8926 101.995 45 106.471C56.9436 101.786 69.6711 99.4208 82.5004 99.503C95.3296 99.4208 108.057 101.786 120 106.471C111.425 101.62 101.958 98.5501 92.1677 97.4462Z" fill="black"></path>
</g>
</g>
<defs>
<clipPath>
<rect width="75" height="75" fill="white" transform="translate(45 45)"></rect>
</clipPath>
</defs>
</svg>