<svg xmlns="http://www.w3.org/2000/svg" width="166" height="165" viewBox="0 0 166 165" fill="none">
<g clip-path="url(#svg-1349494468_3807_clip0_4548_4404)">
<g clip-path="url(#svg-1349494468_3807_clip1_4548_4404)">
<path fill-rule="evenodd" clip-rule="evenodd" d="M51.7305 114.103H114.927H114.936V50.3125H51.7305V114.103ZM83.2308 93.8637C65.6785 93.8637 53.0189 88.5923 53.0189 82.2463C53.0189 75.9003 65.6875 70.6289 83.2308 70.6289C100.774 70.6289 113.434 75.9003 113.434 82.2463C113.434 88.5923 100.783 93.8637 83.2308 93.8637Z" fill="black"></path>
<path d="M73.047 77.1966C72.9119 77.4746 72.9119 77.7432 72.9119 78.0212V81.4953C72.9119 81.4953 74.723 79.0773 75.1375 78.5029C75.4528 78.0767 75.8403 77.4746 75.8403 77.1966H81.7511C81.3456 77.4746 80.8951 77.9748 80.5257 78.438C80.2013 78.8457 78.3632 81.1525 78.3632 81.1525C78.3632 81.1525 81.0934 85.4233 81.4448 85.9699C81.643 86.2664 81.8592 86.5443 82.1115 86.7944H75.3087C75.3087 86.5165 75.0474 85.9514 74.759 85.5067C74.4707 85.062 72.9119 82.6255 72.9119 82.6255V85.9699C72.9119 86.2478 72.9119 86.5165 73.047 86.7944H67.3795C67.5146 86.5165 67.5146 86.2478 67.5146 85.9699V78.0212C67.5146 77.7432 67.5146 77.4746 67.3795 77.1966H73.047ZM94.0323 77.1966H83.0937C83.2288 77.4746 83.2288 77.7432 83.2288 78.0212V85.9699C83.2288 86.2478 83.2288 86.5165 83.0937 86.7944H94.0323V84.1356C93.762 84.2745 93.5007 84.2745 93.2304 84.2745H88.6261V83.0146H93.0502V80.9857H88.6261V79.7165H93.2304C93.5007 79.7165 93.762 79.7165 94.0323 79.8462V77.1966ZM109.188 85.9699C109.278 86.2756 109.431 86.5536 109.629 86.7944H103.701C103.728 86.5165 103.628 86.2478 103.52 85.9699C103.52 85.9699 103.43 85.7476 103.304 85.4233L103.25 85.2843H99.835L99.781 85.4326C99.781 85.4326 99.6819 85.7012 99.5918 85.9792C99.5017 86.2571 99.4025 86.5258 99.4386 86.8037H94.7622C94.9514 86.5628 95.0956 86.2849 95.1857 85.9792L97.9879 78.0304C98.087 77.7525 98.1861 77.4838 98.1501 77.2059H106.052C105.98 77.4838 106.124 77.7525 106.223 78.0304C106.458 78.6326 108.99 85.4326 109.188 85.9699ZM102.502 83.2555L101.673 81.032C101.601 80.8282 101.538 80.6152 101.493 80.4021C101.457 80.6152 101.403 80.8282 101.331 81.032C101.304 81.1247 100.952 82.0974 100.547 83.2555H102.502ZM64.5592 78.0212C64.5592 77.7432 64.5592 77.4746 64.6944 77.1966H58.5312C58.6664 77.4746 58.6664 77.7432 58.6664 78.0212V85.9699C58.6664 86.2478 58.6664 86.5165 58.5312 86.7944H64.6944C64.5592 86.5165 64.5592 86.2478 64.5592 85.9699V78.0212ZM107.296 77.9563C107.278 78.6511 107.809 79.2348 108.494 79.2533C109.17 79.2718 109.738 78.7252 109.756 78.0212C109.756 78.0026 109.756 77.9748 109.756 77.9563C109.765 77.2707 109.242 76.7056 108.575 76.6964C108.557 76.6964 108.548 76.6964 108.53 76.6964C107.872 76.6686 107.323 77.1966 107.305 77.8729C107.287 77.9007 107.287 77.9285 107.296 77.9563H107.296ZM109.503 77.9563C109.521 78.5122 109.089 78.9846 108.548 78.9939C108.007 79.0124 107.548 78.5677 107.539 78.0119C107.539 77.9934 107.539 77.9748 107.539 77.947C107.521 77.4097 107.926 76.9558 108.449 76.9372C108.476 76.9372 108.494 76.9372 108.521 76.9372C109.053 76.928 109.494 77.3634 109.503 77.91C109.503 77.9285 109.503 77.947 109.503 77.9563ZM109.125 78.716H108.881L108.593 78.1786H108.278V78.716H108.062V77.1966H108.611C108.872 77.2059 109.071 77.419 109.071 77.6876C109.071 77.8729 108.972 78.0397 108.809 78.1323L109.125 78.716ZM108.575 77.9563C108.719 77.9656 108.845 77.8544 108.845 77.7062C108.845 77.5579 108.746 77.4282 108.602 77.4282C108.593 77.4282 108.584 77.4282 108.575 77.4282H108.278V77.9656H108.575" fill="black"></path>
</g>
</g>
<defs>
<clipPath>
<rect width="63.2051" height="63.2051" fill="white" transform="translate(51.7305 50.8984)"></rect>
</clipPath>
<clipPath>
<rect width="63.2051" height="63.7904" fill="white" transform="translate(51.7305 50.3125)"></rect>
</clipPath>
</defs>
</svg>