<svg xmlns="http://www.w3.org/2000/svg" width="166" height="165" viewBox="0 0 166 165" fill="none">
<path fill-rule="evenodd" clip-rule="evenodd" d="M51.2305 63.8063H70.8117V60.707H51.2305V63.8063ZM106.364 91.288C103.497 91.288 101.512 88.6922 101.169 85.2521C102.039 82.3154 103.97 80.8527 106.253 80.8527C109.189 80.8527 110.845 82.9864 110.845 86.0196C110.845 89.2746 108.958 91.288 106.364 91.288ZM107.083 78.0101C104.187 78.0101 102.116 79.3291 101.071 81.2822C101.071 76.6686 102.705 72.6496 106.587 72.6496C109.054 72.6496 110.034 74.0476 110.557 76.3386L114.151 75.6311C113.306 71.6752 110.752 69.7522 106.613 69.7522C101.411 69.7522 97.5198 73.6827 97.5198 82.4923C97.5198 90.3125 100.764 94.1776 106.356 94.1776C110.976 94.1776 114.436 91.0728 114.436 85.9563C114.436 81.9587 112.271 78.0101 107.083 78.0101ZM67.1401 70.0047V86.3685H67.1385C67.1385 87.8171 67.1727 88.693 67.2411 89.5353H67.1727C66.8134 88.5707 66.3891 87.7256 65.7563 86.6257L55.9248 70.0047H51.4308V93.925H54.9323V77.561H54.9341C54.9341 76.1124 54.8997 75.2366 54.8315 74.3942H54.8997C55.259 75.3586 55.6833 76.2034 56.3162 77.3031L66.1484 93.925H70.5955V70.0047H67.1401ZM70.8117 103.207H51.2305V100.123H70.8117V103.207ZM87.2452 86.3685C86.0813 87.5142 83.4585 89.5824 81.6285 90.8259H92.6074V93.925H76.4512V91.0951C78.3232 89.7794 82.2114 86.9209 84.645 84.5254C86.9742 82.2326 88.4991 80.1375 88.4991 77.0629C88.4991 74.0379 86.8108 72.7796 84.5293 72.7796C82.19 72.7796 80.3214 74.1102 80.3214 76.8891C80.3214 77.4959 80.3895 78.1691 80.5608 78.9443L76.8908 78.5941C76.7198 77.9202 76.6511 77.3141 76.6511 76.7076C76.6511 72.9967 79.2944 69.7524 84.6502 69.7524C89.0671 69.7524 92.3339 72.0108 92.3339 76.9448C92.3339 81.4323 89.0053 84.6606 87.5076 86.1129C87.4122 86.2054 87.3245 86.2906 87.2452 86.3685Z" fill="black"></path>
</svg>