<svg xmlns="http://www.w3.org/2000/svg" width="166" height="165" viewBox="0 0 166 165" fill="none">
<g clip-path="url(#svg-1090298754_1379_clip0_4548_4238)">
<path d="M54.0002 91.1906C52.7968 91.3911 51.5722 91.4512 50.3054 91.6113L46.4415 80.8742V92.0722C45.238 92.1923 44.1402 92.3526 43 92.5128V72H46.2094L50.6009 83.6388V72H54.0002V91.1906ZM60.6511 79.512C61.9602 79.512 63.966 79.4519 65.1695 79.4519V82.657C63.6703 82.657 61.918 82.657 60.6511 82.7171V87.4848C62.6359 87.3646 64.6205 87.2042 66.6262 87.1441V90.2289L57.2728 90.9302V72H66.6262V75.2051H60.6511V79.512ZM79.1889 75.2052H75.6841V89.9488C74.5439 89.9488 73.4038 89.9488 72.306 89.9887V75.2052H68.8012V72H79.1891L79.1889 75.2052ZM84.6784 79.2917H89.3024V82.4968H84.6784V89.7685H81.3634V72H90.8015V75.2051H84.6784V79.2917ZM96.291 86.9639C98.2124 87.0039 100.155 87.1443 102.034 87.2443V90.4094C99.0148 90.229 95.9955 90.049 92.9129 89.9887V72H96.291V86.9639ZM104.884 90.6298C105.961 90.69 107.101 90.7501 108.199 90.8701V72H104.884V90.6298ZM123 72L118.714 81.7556L123 92.5128C121.733 92.3526 120.466 92.1322 119.199 91.9318L116.771 86.0025L114.301 91.4512C113.076 91.2507 111.894 91.1906 110.67 91.0304L115.019 81.6353L111.092 72H114.723L116.94 77.3886L119.305 72H123Z" fill="black"></path>
</g>
<defs>
<clipPath>
<rect width="80" height="20.5128" fill="white" transform="translate(43 72)"></rect>
</clipPath>
</defs>
</svg>