<svg xmlns="http://www.w3.org/2000/svg" width="166" height="165" viewBox="0 0 166 165" fill="none">
<path d="M78.5444 78.2232C81.399 71.1883 76.0601 69.2773 72.5845 69.2773H61.0708C62.0263 69.9342 61.871 70.8061 61.6799 71.3436L54.9676 92.7825C54.7048 93.6305 53.7015 94.5263 53.1641 94.6577H62.4801C61.9666 94.5621 61.238 93.8336 61.5008 92.8423L63.9373 85.0908C63.9492 85.0908 75.1524 86.6076 78.5444 78.2232V78.2232ZM69.4911 71.2481C70.7093 71.2481 74.0894 71.4153 71.9037 77.8051C69.6225 84.5175 64.5583 83.132 64.5583 83.132L68.2848 71.2481H69.4911Z" fill="black"></path>
<path d="M85.9792 94.696H92.2496C90.2431 94.051 87.281 92.1519 86.0986 90.8023C87.0541 89.7632 88.2365 88.4494 88.4515 85.786H85.2028C85.2028 85.786 85.8239 86.1443 85.8239 86.9087C85.8239 87.6133 85.5372 88.5927 84.9878 89.2735C84.0323 87.8642 83.0171 86.2518 82.6588 83.8869C83.9368 83.2539 85.7283 82.5612 87.1496 81.319C88.4993 80.1366 88.8098 79.0139 88.8337 78.2853V78.1898C88.8337 77.4254 88.5351 76.7087 87.9857 76.1713C87.0421 75.2397 85.5611 74.8575 83.9965 75.1441C82.7424 75.383 81.6794 76.0518 81.142 76.5415C79.2549 78.3211 79.016 81.2474 79.016 82.5731C79.016 82.8956 79.0279 83.1345 79.0399 83.2778C78.9324 83.3256 78.7413 83.3972 78.7413 83.3972C77.3558 83.9108 73.6652 84.8902 72.3514 87.9239C72.1842 88.3061 71.9453 89.1421 71.9453 90.1096C71.9453 90.9456 72.1245 91.8772 72.6619 92.7252C73.5935 94.1824 75.1701 95.102 77.7022 95.0543C80.4492 95.0065 83.1604 93.1313 83.6382 92.785C84.104 93.2269 85.3342 94.3854 85.9792 94.696V94.696ZM85.9792 77.7359C85.6567 79.7783 83.0052 81.8445 82.3602 82.1192C82.2408 80.9727 82.3005 79.1572 83.256 77.6762C83.889 76.6968 84.737 76.2668 85.4178 76.5057C85.9672 76.6968 86.0269 77.1984 85.9792 77.7359ZM82.3005 91.3995C81.9302 91.6264 80.4731 92.3669 79.1115 92.4983C77.8455 92.6178 75.7434 92.1281 75.7554 89.596C75.7554 87.4342 78.1083 85.8457 79.3862 85.2963C79.8998 87.3864 81.0584 89.7513 82.3005 91.3995V91.3995Z" fill="black"></path>
<path d="M105.034 71.2863C108.761 70.3905 111.83 73.3048 112.105 73.5078L113.168 70.1277C111.699 69.6858 101.009 66.0669 93.4489 74.6902C88.8028 79.9932 87.6682 90.862 93.5564 93.7762C99.8627 96.8935 106.826 93.2985 107.339 93.0477L110.218 83.8749C110.528 82.7642 111.233 82.0475 112.475 81.5817H102.466C103.924 82.1909 103.816 83.2897 103.709 83.7435L100.83 92.9163C100.448 92.988 92.3979 94.9945 96.9007 80.9129C97.892 77.8911 100.603 72.3493 105.034 71.2863Z" fill="black"></path>
</svg>