<svg xmlns="http://www.w3.org/2000/svg" width="166" height="165" viewBox="0 0 166 165" fill="none">
<g clip-path="url(#svg965977593_9893_clip0_3709_2027)">
<mask style="mask-type: luminance; animation-play-state: paused;" maskUnits="userSpaceOnUse" x="40" y="73" width="86" height="18">
<path d="M125.332 73.7812H40.332V90.7115H125.332V73.7812Z" fill="white"></path>
</mask>
<g mask="url(#svg965977593_9893_mask0_3709_2027)">
<path d="M41.7004 73.7812V77.8595H50.3131C46.7446 81.3744 40.332 87.7064 40.332 87.7064L43.2029 90.631C43.2029 90.631 50.7156 83.0647 54.767 79.0401V90.5506H58.738V73.7812H41.7004Z" fill="black"></path>
<path d="M53.5341 87.894C53.5341 86.4183 52.3267 85.2109 50.851 85.2109C49.3754 85.2109 48.168 86.4183 48.168 87.894C48.168 89.3697 49.3754 90.5771 50.851 90.5771C52.3267 90.5771 53.5341 89.3697 53.5341 87.894Z" fill="black"></path>
<path d="M115.755 80.8089C115.621 81.0235 115.299 81.2382 114.896 81.2382C114.36 81.2382 114.172 80.943 114.172 80.621C114.172 80.2454 114.413 80.0307 114.896 80.0307C115.325 80.0307 115.54 80.0844 115.755 80.2186V80.8089ZM116.989 82.1772V79.0112C116.989 77.9648 116.211 77.3477 115.084 77.3477C114.333 77.3477 113.877 77.5086 113.313 77.8306L113.796 78.6892C114.225 78.4478 114.521 78.3672 115.084 78.3672C115.54 78.3672 115.755 78.6355 115.755 78.9575V79.199C115.567 79.0917 115.272 79.0112 114.842 79.0112C113.769 79.0112 112.938 79.5209 112.938 80.5674C112.938 81.6943 113.823 82.2577 114.708 82.2577C115.138 82.2577 115.54 82.0698 115.755 81.8553V82.1772H116.989Z" fill="black"></path>
<path d="M124.1 82.1774V77.2406L122.785 77.9381V76.7308L124.314 75.9258H125.361V82.2042H124.1V82.1774Z" fill="black"></path>
<path d="M70.5433 77.9147C70.5433 78.4513 70.2213 78.7197 69.6579 78.7197H68.3431V77.1098H69.6579C70.1944 77.1098 70.5433 77.3781 70.5433 77.9147ZM71.8579 77.8879C71.8579 76.5463 70.892 75.9023 69.6847 75.9023H67.082V82.1808H68.3431V79.9538H69.5773C70.892 79.9538 71.8579 79.3367 71.8579 77.8879Z" fill="black"></path>
<path d="M75.0253 78.9049C74.8374 78.7171 74.5959 78.6098 74.3008 78.6098C73.8179 78.6098 73.496 78.8245 73.496 79.6293V82.1783H72.2617V77.4829H73.496V77.8048C73.7105 77.5902 74.0326 77.4023 74.4618 77.4023C74.8642 77.4023 75.1595 77.5634 75.3204 77.7244L75.0253 78.9049Z" fill="black"></path>
<path d="M78.5129 79.8161C78.5129 80.4601 78.2177 81.0772 77.6275 81.0772C77.0372 81.0772 76.7689 80.5405 76.7689 79.8161C76.7689 79.0917 77.0372 78.5551 77.6275 78.5551C78.2177 78.5551 78.5129 79.1185 78.5129 79.8161ZM79.7739 79.8161C79.7739 78.3672 78.8616 77.3477 77.6275 77.3477C76.3932 77.3477 75.5078 78.3672 75.5078 79.8161C75.5078 81.265 76.3932 82.2577 77.6275 82.2577C78.8616 82.2845 79.7739 81.265 79.7739 79.8161Z" fill="black"></path>
<path d="M82.6174 82.2865C81.571 82.2865 80.6588 81.8573 80.1758 81.1596L81.088 80.3547C81.5174 80.8645 82.0808 81.0792 82.6979 81.0792C83.4492 81.0792 83.798 80.8645 83.798 80.4083C83.798 80.0059 83.5833 79.8181 82.4028 79.5497C81.249 79.2814 80.4441 78.9058 80.4441 77.6717C80.4441 76.5448 81.4368 75.8203 82.6979 75.8203C83.6638 75.8203 84.3882 76.1959 84.9785 76.8131L84.0663 77.6985C83.6638 77.296 83.2077 77.0546 82.6443 77.0546C81.9734 77.0546 81.7589 77.3497 81.7589 77.618C81.7589 78.0204 82.0271 78.1277 83.0199 78.3692C84.0126 78.6107 85.1126 78.9327 85.1126 80.301C85.0858 81.4816 84.3346 82.2865 82.6174 82.2865Z" fill="black"></path>
<path d="M86.6156 77.0827C86.24 77.0827 85.918 76.7608 85.918 76.3852C85.918 76.0095 86.24 75.6875 86.6156 75.6875C86.9913 75.6875 87.3132 76.0095 87.3132 76.3852C87.3132 76.7608 86.9913 77.0827 86.6156 77.0827ZM85.9985 82.1806V77.4853H87.2327V82.2074H85.9985V82.1806Z" fill="black"></path>
<path d="M91.0701 79.2794H89.4603C89.5139 78.7966 89.7822 78.4478 90.2383 78.4478C90.8017 78.4478 91.0432 78.877 91.0701 79.2794ZM92.2775 79.8161C92.2775 78.4746 91.553 77.3477 90.292 77.3477C89.1114 77.3477 88.1992 78.3672 88.1992 79.8161C88.1992 81.2918 89.0578 82.2577 90.4261 82.2577C91.0432 82.2577 91.7409 81.9894 92.1165 81.5064L91.2311 80.782C91.0432 80.9967 90.7749 81.104 90.4261 81.104C89.9701 81.104 89.5139 80.8625 89.4603 80.2186H92.2775C92.2775 80.1381 92.2775 80.0039 92.2775 79.8161Z" fill="black"></path>
<path d="M96.0365 79.8965C96.0365 80.6746 95.7682 81.1039 95.312 81.1039C94.9632 81.1039 94.6681 80.9697 94.4803 80.7014V78.9306C94.6681 78.6891 94.856 78.5281 95.2316 78.5281C95.7145 78.5281 96.0365 78.9306 96.0365 79.8965ZM97.2975 79.8696C97.2975 78.0988 96.4657 77.3476 95.473 77.3476C95.0169 77.3476 94.7218 77.5354 94.4803 77.7501V75.7109H93.2461V82.1771H94.4803V81.9089C94.6949 82.1234 95.0705 82.2845 95.473 82.2845C96.6268 82.2845 97.2975 81.2917 97.2975 79.8696Z" fill="black"></path>
<path d="M100.781 79.2794H99.1712C99.2248 78.7966 99.4931 78.4478 99.9493 78.4478C100.486 78.4478 100.754 78.877 100.781 79.2794ZM101.988 79.8161C101.988 78.4746 101.264 77.3477 100.003 77.3477C98.8224 77.3477 97.9102 78.3672 97.9102 79.8161C97.9102 81.2918 98.7688 82.2577 100.137 82.2577C100.754 82.2577 101.452 81.9894 101.827 81.5064L100.942 80.782C100.754 80.9967 100.486 81.104 100.137 81.104C99.681 81.104 99.2248 80.8625 99.1712 80.2186H101.988C101.988 80.1381 101.988 80.0039 101.988 79.8161Z" fill="black"></path>
<path d="M105.692 82.1783V79.6293C105.692 78.7975 105.397 78.5292 104.887 78.5292C104.377 78.5292 104.082 78.7707 104.082 79.6025V82.1783H102.848V77.4829H104.082V77.8048C104.296 77.5902 104.699 77.4023 105.182 77.4023C106.389 77.4023 106.926 78.2341 106.926 79.5488V82.2051H105.692V82.1783Z" fill="black"></path>
<path d="M109.93 82.2865C108.883 82.2865 107.971 81.8573 107.488 81.1596L108.401 80.3547C108.83 80.8645 109.393 81.0792 110.01 81.0792C110.762 81.0792 111.11 80.8645 111.11 80.4083C111.11 80.0059 110.896 79.8181 109.715 79.5497C108.561 79.2814 107.757 78.9058 107.757 77.6717C107.757 76.5448 108.749 75.8203 110.01 75.8203C110.976 75.8203 111.701 76.1959 112.291 76.8131L111.379 77.6985C110.976 77.296 110.52 77.0546 109.957 77.0546C109.286 77.0546 109.071 77.3497 109.071 77.618C109.071 78.0204 109.34 78.1277 110.332 78.3692C111.325 78.6107 112.425 78.9327 112.425 80.301C112.398 81.4816 111.647 82.2865 109.93 82.2865Z" fill="black"></path>
<path d="M71.8306 90.5518V86.3126V85.6417C71.777 85.8832 71.5891 86.3394 71.455 86.6882L69.7647 90.7397L68.1012 86.6882C67.967 86.3662 67.806 85.8832 67.7255 85.6417V86.3126V90.5518H67.0547V84.2734H67.8329L69.3085 88.0297C69.4695 88.4053 69.6841 88.9956 69.7647 89.2371C69.8451 88.9688 70.0598 88.3785 70.2207 88.0297L71.7233 84.2734H72.4745V90.5518H71.8306Z" fill="black"></path>
<path d="M76.8207 87.8926H74.2718C74.3523 86.8461 74.8353 86.3363 75.5328 86.3363C76.3646 86.3363 76.7671 86.9802 76.8207 87.8926ZM77.4378 88.0535C77.4378 86.7119 76.7671 85.7461 75.5328 85.7461C74.4059 85.7461 73.5742 86.6851 73.5742 88.1877C73.5742 90.039 74.6206 90.656 75.4792 90.656C76.1767 90.656 76.6061 90.4683 77.1695 90.1195L76.8475 89.6365C76.4182 89.9317 76.0963 90.0926 75.5596 90.0926C74.7815 90.0926 74.3255 89.4487 74.245 88.456H77.3842C77.4378 88.3218 77.4378 88.2145 77.4378 88.0535Z" fill="black"></path>
<path d="M81.3825 89.3981C81.0605 89.8005 80.6312 90.0688 80.1482 90.0688C79.397 90.0688 78.9677 89.4517 78.9677 88.2712C78.9677 87.0101 79.3434 86.3394 80.1214 86.3394C80.6848 86.3394 81.141 86.6613 81.3825 87.0369V89.3981ZM82.0532 90.5518V84.2734H81.3825V86.393C81.0605 86.0174 80.658 85.7759 80.0677 85.7759C79.0751 85.7759 78.2969 86.6345 78.2969 88.298C78.2969 89.9616 79.0481 90.6859 79.9873 90.6859C80.6312 90.6859 81.0605 90.364 81.4093 90.0152V90.5786H82.0532V90.5518Z" fill="black"></path>
<path d="M83.9047 84.9971C83.6364 84.9971 83.4219 84.7825 83.4219 84.5142C83.4219 84.2458 83.6364 84.0312 83.9047 84.0312C84.1462 84.0312 84.3609 84.2458 84.3609 84.5142C84.3609 84.7825 84.1462 84.9971 83.9047 84.9971ZM83.5292 90.5511V85.8557H84.2V90.5511H83.5292Z" fill="black"></path>
<path d="M88.4152 89.395C88.1201 89.7975 87.664 90.0926 87.0737 90.0926C86.5103 90.0926 86.1078 89.7975 86.1078 89.0999C86.1078 88.5096 86.5103 88.1877 87.2079 88.1877C87.7713 88.1877 88.1201 88.295 88.4152 88.456V89.395ZM89.086 90.5488V87.2754C89.086 86.1753 88.442 85.7461 87.4225 85.7461C86.8054 85.7461 86.2688 85.907 85.8395 86.1217L86.081 86.6583C86.4566 86.4436 86.8591 86.3095 87.3689 86.3095C88.0664 86.3095 88.3884 86.6583 88.3884 87.3559V87.9194C88.1201 87.7583 87.6908 87.6511 87.2079 87.6511C86.2688 87.6511 85.4102 88.1071 85.4102 89.1536C85.4102 90.2804 86.1883 90.656 86.9127 90.656C87.5835 90.656 88.0396 90.3341 88.3884 89.9853V90.5488H89.086Z" fill="black"></path>
<path d="M120.985 82.1271C120.985 82.1271 120.26 82.2881 119.777 82.2881C119.026 82.2881 118.516 81.6978 118.516 80.866V78.6391H117.738V77.4854H118.516V75.9023H119.751V77.4854H120.878V78.6391H119.751V80.5441C119.751 81.1075 119.912 81.1344 120.207 81.1344C120.421 81.1344 120.797 81.0807 120.958 81.0539V82.1271H120.985Z" fill="black"></path>
<path d="M122.543 82.2857C122.114 82.2857 121.738 81.91 121.738 81.4808C121.738 81.0514 122.114 80.6758 122.543 80.6758C122.972 80.6758 123.348 81.0514 123.348 81.4808C123.321 81.91 122.972 82.2857 122.543 82.2857Z" fill="black"></path>
<path d="M93.4043 90.6595C92.5457 90.6595 91.7676 90.2839 91.2578 89.7741L91.7408 89.2375C92.2237 89.6935 92.7872 90.0156 93.4311 90.0156C94.2897 90.0156 94.7995 89.5862 94.7995 88.9155C94.7995 88.3251 94.4507 87.9764 93.2701 87.5739C91.9017 87.091 91.4188 86.6348 91.4188 85.7226C91.4188 84.7031 92.2237 84.0859 93.4043 84.0859C94.2628 84.0859 94.7995 84.3542 95.3361 84.7567L94.8799 85.3202C94.4238 84.9445 93.9945 84.7299 93.3506 84.7299C92.4651 84.7299 92.1163 85.1591 92.1163 85.6689C92.1163 86.2056 92.3578 86.5007 93.6188 86.9569C95.041 87.4666 95.4702 87.9495 95.4702 88.8887C95.5238 89.8814 94.7458 90.6595 93.4043 90.6595Z" fill="black"></path>
<path d="M96.7305 90.5498V84.1641H100.594V84.808H97.4549V86.8203H99.2794V87.4642H97.4549V89.9059H100.728V90.5498H96.7305Z" fill="black"></path>
</g>
</g>
<defs>
<clipPath>
<rect width="85" height="85" fill="white" transform="translate(40.332 40)"></rect>
</clipPath>
</defs>
</svg>