<svg xmlns="http://www.w3.org/2000/svg" width="166" height="165" viewBox="0 0 166 165" fill="none">
<path d="M58.7754 94.7796C58.7754 93.7004 58.2413 92.4141 55.7045 92.4141H51.2305V100.154H52.7863V97.1532H55.7045C58.2441 97.1532 58.7754 95.8615 58.7754 94.7768V94.7796ZM52.7863 93.8748H55.4811C57.1215 93.8748 57.2577 94.3081 57.2577 94.7905C57.2577 95.2729 57.1215 95.6953 55.4811 95.6953H52.7863V93.8748Z" fill="black"></path>
<path d="M68.3621 96.9081V92.4141H66.8061V96.9081C66.8061 98.2516 66.016 98.9057 64.392 98.9057C62.768 98.9057 61.9778 98.2516 61.9778 96.9081V92.4141H60.4219V96.9081C60.4219 99.1127 61.8334 100.328 64.392 100.328C66.9505 100.328 68.3621 99.1127 68.3621 96.9081Z" fill="black"></path>
<path d="M78.4029 97.8291C78.4029 96.8972 77.9151 96.3739 77.4656 96.0714C77.8252 95.7988 78.1632 95.3628 78.1632 94.6052C78.1632 92.4141 75.8443 92.4141 75.0814 92.4141H70.6562V100.154H74.6072C75.8389 100.154 78.4056 100.154 78.4056 97.8264L78.4029 97.8291ZM74.5582 93.8366C76.0951 93.8366 76.6045 93.9484 76.6045 94.6161C76.6045 94.8341 76.6045 95.4146 74.8471 95.4146H72.2095V93.8366H74.5555H74.5582ZM75.1577 98.6931H72.2122V96.8344H75.2557C76.828 96.8344 76.828 97.5103 76.828 97.7964C76.828 98.3333 76.5446 98.6931 75.1577 98.6931Z" fill="black"></path>
<path d="M87.5552 98.6931H82.2227V92.4141H80.6641V100.154H87.5552V98.6931Z" fill="black"></path>
<path d="M90.6379 92.4141H89.082V100.154H90.6379V92.4141Z" fill="black"></path>
<path d="M100.951 98.0949L101.117 97.7733L99.7332 97.1002L99.5725 97.3972C99.0384 98.3865 98.1774 98.8662 96.943 98.8662C95.1473 98.8662 94.0737 97.9451 94.0737 96.4025C94.0737 94.6066 95.0384 93.6582 96.864 93.6582C98.191 93.6582 99.0683 94.1351 99.4717 95.0808L99.6133 95.4132L100.992 94.7783L100.853 94.4621C100.243 93.0695 98.7468 92.2383 96.853 92.2383C94.1636 92.2383 92.4961 93.7944 92.4961 96.2963C92.4961 98.2448 93.6433 100.327 96.864 100.327C98.8395 100.327 100.175 99.5966 100.951 98.0949Z" fill="black"></path>
<path d="M104.47 92.4141H102.914V100.154H104.47V92.4141Z" fill="black"></path>
<path d="M110.594 95.4143C109.163 95.2836 108.297 95.161 108.297 94.5668C108.297 93.7792 109.586 93.662 110.354 93.662C112.011 93.662 112.627 94.3733 112.924 94.7167L113.196 95.0274L114.335 94.1007L114.142 93.831C113.875 93.4576 112.817 92.2422 110.37 92.2422C107.193 92.2422 106.719 93.7846 106.719 94.7058C106.719 96.5563 108.779 96.7553 110.436 96.916C111.896 97.0577 112.853 97.1967 112.853 97.8208C112.853 98.8428 110.869 98.87 110.643 98.87C108.7 98.87 108.117 98.0933 107.733 97.5782L107.507 97.2784L106.564 98.0824L106.297 98.3249L106.539 98.5947C107.161 99.2869 108.098 100.331 110.548 100.331C112.34 100.331 114.433 99.6739 114.433 97.8208C114.433 95.766 112.305 95.5724 110.597 95.417L110.594 95.4143Z" fill="black"></path>
<path d="M58.2161 110.738H61.001C60.7039 111.743 59.5949 112.111 58.6549 112.111C56.8837 112.111 55.8238 111.19 55.8238 109.647C55.8238 107.851 56.7747 106.903 58.5759 106.903C59.1372 106.903 60.4996 107.039 61.05 108.287L61.2026 108.636L62.5459 107.928L62.4124 107.625C61.8184 106.282 60.3961 105.48 58.6058 105.48C55.9165 105.48 54.2461 107.037 54.2461 109.538C54.2461 111.487 55.3933 113.569 58.614 113.569C59.8048 113.569 60.5704 113.253 61.0854 112.882V113.455H62.5459V109.274H58.2134V110.735L58.2161 110.738Z" fill="black"></path>
<path d="M72.6969 107.973C72.6969 106.915 72.1547 105.656 69.577 105.656H65.1602V113.396H66.716V110.281H68.9503L71.2147 113.396H73.1493L70.765 110.177C71.7542 109.957 72.6942 109.297 72.6942 107.973H72.6969ZM66.716 107.117H69.3808C70.8822 107.117 71.1765 107.428 71.1765 107.965C71.1765 108.501 70.8904 108.82 69.3808 108.82H66.716V107.117Z" fill="black"></path>
<path d="M78.7476 105.484C76.0718 105.484 74.2734 107.128 74.2734 109.572C74.2734 112.322 76.5922 113.573 78.7476 113.573C80.9029 113.573 83.2217 112.322 83.2217 109.572C83.2217 107.128 81.4234 105.484 78.7476 105.484ZM78.7476 112.112C78.0664 112.112 75.8483 111.919 75.8483 109.417C75.8483 107.937 77.0391 106.907 78.7476 106.907C80.456 106.907 81.6468 107.94 81.6468 109.417C81.6468 111.919 79.4288 112.112 78.7476 112.112Z" fill="black"></path>
<path d="M91.314 110.15C91.314 111.494 90.5237 112.148 88.8997 112.148C87.2757 112.148 86.4855 111.494 86.4855 110.15V105.656H84.9297V110.15C84.9297 112.355 86.3411 113.57 88.9025 113.57C91.4638 113.57 92.8752 112.355 92.8752 110.15V105.656H91.3194V110.15H91.314Z" fill="black"></path>
<path d="M99.4273 105.659H94.9531V113.399H96.509V110.398H99.4273C101.967 110.398 102.498 109.106 102.498 108.022C102.498 106.937 101.964 105.656 99.4273 105.656V105.659ZM96.509 107.12H99.2038C100.844 107.12 100.98 107.553 100.98 108.035C100.98 108.518 100.844 108.94 99.2038 108.94H96.509V107.12Z" fill="black"></path>
<path d="M105.603 110.117H110.131V108.657H105.603V107.117H111.02V105.656H104.047V113.396H111.137V111.935H105.603V110.117Z" fill="black"></path>
<path d="M103.481 88.4831L98.8439 85.7414C99.7703 85.8614 100.582 85.4498 101.34 84.9021L102.751 86.6271L101.887 84.4906C102.825 83.7547 103.593 82.9617 104.552 82.9399C107.168 82.8745 105.337 86.0167 106.293 86.0276C107.362 86.0357 108.522 82.5284 105.958 80.9886C103.304 79.3807 100.986 81.7026 99.1054 81.3075L106.144 78.1652H95.8602L95.4951 77.4757C97.356 78.3124 98.683 77.5356 99.5687 76.6636L102.495 77.086L100.076 76.1403C100.653 75.5353 101.141 75.0666 101.754 75.3009C102.62 75.6335 103.13 76.3965 104.639 76.4129C107.184 76.4428 109.037 71.9162 105.672 69.9512C105.928 73.178 104.424 73.3387 101.819 71.6245L102.713 70.1639L101.378 71.3384C98.8738 70.2238 97.6531 72.4395 96.5986 73.1562C95.5441 73.8702 94.5795 72.4367 93.2961 74.1427C95.2062 73.5132 96.1817 75.3419 97.4379 74.1427C96.9174 77.3804 95.0591 73.1562 93.2062 74.7723C94.8112 74.8921 95.6504 76.3284 96.9283 76.3284C99.2852 76.3284 97.1844 71.7936 100.501 71.7936L99.9501 71.4393C101.833 71.2621 101.926 73.1426 104.762 73.178C105.056 73.6058 104.021 73.6385 103.293 73.3906C103.174 73.9929 107.141 75.3446 106.19 70.8343C107.441 71.5128 107.168 74.3472 105.997 75.4263C105.77 75.6362 105.558 75.7397 105.416 75.519C105.097 75.0366 105.915 75.0448 106.149 74.3144C105.261 75.0857 103.748 75.023 102.713 74.0664C101.68 73.1044 100.133 71.938 99.4706 73.9601C98.8112 75.985 98.2553 76.9224 97.0373 76.9443C95.3588 76.9716 93.5823 74.1563 91.7185 75.7125C95.277 76.0423 96.1162 81.6999 99.2471 81.7734C101.68 81.7734 102.228 80.7052 103.811 80.7052C105.394 80.7052 107.062 81.5419 107.062 83.6294C107.062 84.8912 106.397 85.6025 106.397 85.6025C106.397 85.6025 106.885 84.5778 106.642 83.2751C106.408 82.0296 105.343 81.2693 103.953 81.2693C101.999 81.2693 100.427 84.4687 98.2526 84.4687C93.9037 84.4687 92.7838 76.0804 88.2334 77.3722C91.5823 79.6342 91.95 83.256 93.7512 84.6459C95.5795 86.0521 97.7539 85.4771 98.9583 86.5372C99.4488 86.9678 99.6531 87.6954 99.8166 88.4858H99.4024C99.2553 88.0798 99.0373 87.7009 98.6749 87.3847C97.6313 86.2892 94.5005 86.7689 93.0618 85.2182C91.6258 83.6621 90.5713 78.991 87.7375 78.277C90.2089 79.8603 90.7566 83.951 92.525 85.954C94.288 87.9571 96.6258 86.897 97.6994 87.9462C97.8901 88.1315 98.0481 88.3114 98.1954 88.4885H96.1681C95.9882 88.4559 95.7975 88.4341 95.5823 88.4313C95.2552 88.4313 94.9229 88.4559 94.5904 88.4885H91.7975C91.4296 88.3767 91.0918 88.1833 90.7893 87.8672C89.386 86.3873 89.5168 84.8285 89.6286 82.9889C89.901 84.7167 90.2334 88.6901 93.2035 88.246C89.4677 86.9705 91.6395 80.5689 87.0754 78.9256C86.5822 78.7457 86.7511 77.1378 87.9963 76.8979C85.5304 77.3722 85.5467 76.4674 87.2879 74.6551C86.2143 75.3392 85.0427 75.1402 84.7838 75.9168C84.7838 75.9168 86.8056 79.0891 86.8056 79.7077C86.8056 80.3264 85.4759 82.8281 85.3288 82.9072C84.8301 83.177 83.2089 83.1879 82.7947 83.0652C82.367 82.9344 81.8628 81.5718 82.059 81.1466C82.3697 80.4844 84.8682 79.9421 84.9146 78.961C84.9472 78.1924 83.9064 78.1189 83.9418 78.5222C84.544 78.7239 84.8029 79.6124 83.0373 80.0211L83.435 79.3834C83.435 79.3834 82.1244 80.4299 82.059 80.4735C81.9936 80.5171 81.6856 80.5389 81.4922 80.4789C81.3015 80.419 79.4105 79.5087 79.732 78.6095C79.732 78.6095 80.3069 78.8601 81.7375 78.8601C83.168 78.8601 83.307 78.236 83.307 78.236C83.307 78.236 82.5413 78.4296 81.7593 78.4296C80.9772 78.4296 80.2088 78.236 80.2088 78.236C79.5876 78.0916 80.247 77.3068 80.465 77.2986H81.9555C82.0454 77.2986 82.1707 77.0915 81.9691 77.0778C81.8192 77.0724 80.871 77.0506 80.7974 76.8162C80.6721 76.4183 80.416 73.9274 80.416 73.9274C80.416 73.9274 80.7402 73.1507 80.4705 72.8945C80.2034 72.6356 80.0726 72.7692 80.0726 72.7692C80.6911 76.2302 78.0372 78.3832 76.5222 77.9663L76.3423 77.9336C76.6802 78.1897 77.1216 78.4241 77.6884 78.6149C74.86 79.2144 73.7047 77.4921 73.2497 76.4456C73.0044 76.5709 72.9962 77.244 73.0289 77.672C72.4404 77.0261 72.0862 76.0368 72.6257 75.3146C71.9037 75.6635 71.8764 75.7724 71.8764 75.7724C71.9037 75.1783 72.9445 74.7913 73.4704 74.0991C73.9881 73.4069 73.8846 72.344 72.7647 71.8944C72.8382 72.9626 72.3096 73.6904 71.2306 74.0501C70.1843 74.3962 70.3614 73.4478 69.3914 73.6576C70.9772 74.0201 70.8927 76.2112 72.4785 77.1133C70.3641 76.6173 69.999 73.7421 67.4241 74.0256C68.9036 71.9162 71.2443 73.7285 72.2142 72.2677C69.7074 72.8428 68.0017 70.7253 67.7128 68.4087C67.2714 64.8605 64.2742 66.6101 64.3232 64.8605C65.83 65.5418 69.176 62.9555 70.1598 65.8988C71.1951 68.9783 73.2797 70.232 75.1571 68.8094L66.9744 60.5055L68.0072 63.9857C65.8708 64.408 63.2932 63.1326 64.6911 60.1457C62.6692 59.2055 59.9934 62.5686 62.4621 65.2039C63.6039 66.4166 66.3886 65.9724 67.1215 68.4579L64.4703 68.2425L67.1951 68.9565L68.0072 71.3685L61.672 68.2453L65.5739 72.7883C63.2932 73.9956 62.7265 70.5399 59.7782 70.6135C57.7155 70.6625 55.4048 72.7883 56.364 75.2737C59.4486 73.4042 60.4431 74.7369 61.7537 76.0341L59.8518 77.0479L62.0998 76.3666C62.8981 77.1078 63.879 77.7319 65.5003 77.6175C68.1652 77.4185 70.5194 76.5573 71.1216 77.2823C71.5875 77.8327 71.0534 78.1625 70.0916 78.1625H57.3449L62.4567 80.9014C61.9635 81.2829 60.5384 83.0325 59.5548 83.0325C58.5711 83.0325 56.364 81.5201 55.7782 84.169C58.0506 83.7819 59.2005 88.7475 63.9798 84.7848L61.7455 88.4831H51.2305V89.7531H114.373V88.4831H103.49H103.481ZM100.983 73.4696C102.155 73.9737 98.5277 77.5084 97.4133 77.3804C99.7348 76.6909 99.8111 72.9626 100.983 73.4696ZM101.46 83.8992C102.283 81.7108 104.855 80.7705 105.917 82.6837C105.969 82.779 105.887 82.8527 105.702 82.6701C104.372 81.3374 102.667 82.6047 101.596 83.9918C101.443 84.1908 101.394 84.0654 101.457 83.8992H101.46ZM64.187 60.47C63.5167 61.6392 63.6474 63.7731 66.3368 64.408C61.83 65.4109 61.9444 60.293 64.187 60.47ZM60.5384 74.3907C58.4648 73.2488 56.6228 74.606 56.6228 74.606C57.2441 72.5457 61.0834 72.3741 60.5384 74.3907ZM61.4486 73.5731C61.1351 73.1589 60.8682 72.7992 60.533 72.6875C60.0998 72.543 59.6175 72.5621 59.1896 72.5811C58.661 72.6084 58.2033 72.6274 58.0615 72.3004C57.9662 72.0879 58.067 71.8589 58.3422 71.66C58.6229 71.4584 59.0371 71.322 59.454 71.2975C59.9253 71.2648 60.3286 71.3794 60.5929 71.6164C60.8545 71.8508 60.9608 71.8698 61.0071 71.8481C61.0725 71.8154 61.0561 71.66 61.0507 71.5564C61.0398 71.4802 61.0289 71.4202 61.0725 71.4257C61.8136 71.5455 62.1733 72.0033 62.552 72.4612C63.1869 73.2216 64.1625 74.3826 66.5384 73.9764C65.9362 76.0913 62.5302 75.4645 61.4458 73.5758L61.4486 73.5731ZM63.3696 76.4565C63.2414 75.5326 67.8845 74.8458 67.9226 76.173C67.9581 77.3286 63.5058 77.4784 63.3696 76.4565ZM87.3424 82.1577C85.8029 85.4662 89.5986 87.5347 90.307 88.1942C90.3888 88.2705 90.4705 88.3713 90.5495 88.4831H89.2688C88.8955 87.6982 88.495 87.096 88.0454 86.8915C88.3561 87.3575 88.5876 87.9026 88.7865 88.4831H88.1789C87.2961 86.7361 85.8302 85.4008 87.3397 82.1577H87.3424ZM86.9609 88.4831H86.4187L85.792 86.6762C86.2798 86.9269 86.6421 87.6028 86.9609 88.4831ZM85.4132 88.4831H84.8192C85.0754 87.4911 85.2089 86.4336 84.5876 85.1583C85.5767 85.9731 85.5658 87.2376 85.4132 88.4831ZM84.3615 88.4831H83.8301C84.0617 87.7036 84.1271 86.8752 83.465 85.6951C84.4405 86.5209 84.5086 87.4911 84.3615 88.4831ZM80.4323 88.4831C80.7429 87.115 80.1789 86.698 79.0262 85.4662C80.7592 86.6571 81.3832 87.4802 81.2688 88.4831H80.4323ZM81.8383 86.0821C82.702 87.085 82.9527 87.8154 82.9663 88.4804H82.4405C82.465 87.8372 82.3452 87.0877 81.841 86.0821H81.8383ZM81.7457 83.7356C82.5032 83.7356 83.9446 83.6948 83.9827 83.6948C84.187 83.6948 84.2279 83.7629 84.2361 83.7956C84.2415 83.872 84.1407 84.2562 83.9882 84.2943C83.9773 84.3025 82.5713 84.6295 81.7457 84.5887C80.92 84.6295 79.5167 84.3025 79.5031 84.2943C79.3533 84.2562 79.247 83.872 79.2579 83.7956C79.2634 83.7601 79.3015 83.6948 79.5058 83.6948C79.5058 83.6948 80.9881 83.7356 81.7457 83.7356ZM79.5549 78.5167C78.9418 78.7184 78.8355 79.7104 80.6203 80.1165C80.0399 80.2009 78.6176 79.9367 78.574 78.9556C78.5358 78.187 79.5767 78.1134 79.5549 78.5167ZM77.8083 80.2119C79.4704 80.31 81.2252 81.1412 81.2252 81.1412C81.4241 81.5637 80.9227 82.929 80.4868 83.0598C80.0781 83.1825 78.0808 82.9699 77.792 82.1195C78.9908 82.4411 79.0727 81.9915 79.0727 81.9915C79.0727 81.9915 77.9772 81.9997 77.5358 81.2393C78.3913 81.5446 78.8028 81.2285 78.8028 81.2285C78.8028 81.2285 77.138 80.5935 77.0889 80.2119H77.8111H77.8083ZM76.1489 82.0569L76.1897 81.7353C76.2987 85.7033 79.1844 86.3328 79.1844 88.3059C79.1844 88.3658 79.1789 88.4232 79.1762 88.4831H78.6693C78.7048 88.1206 78.623 87.7636 78.3559 87.4093C76.4786 84.9021 76.3968 84.3624 76.3968 84.3624C76.5576 86.2647 77.7701 86.5073 78.0617 88.4804H77.2824C76.9935 87.0032 75.4949 86.4227 76.1543 82.0569H76.1489ZM76.3232 88.4831H74.9309L75.672 87.2921C76.0508 87.7636 76.2497 88.1506 76.3232 88.4831ZM74.0671 88.4831H73.157C74.5222 85.9431 73.7592 81.817 74.9363 80.5471C74.1189 82.0187 75.4105 85.5725 74.0671 88.4831ZM74.4404 78.9174C73.8846 79.4134 71.3423 81.6427 72.1352 87.7199C72.9363 86.4064 72.2497 81.4355 74.6203 79.6314C72.9608 81.6536 73.8409 85.2346 72.6394 88.4804H71.4731C71.8028 85.8668 70.3532 81.937 74.4376 78.9174H74.4404ZM69.7646 88.4831H69.2278C69.6011 87.9435 69.9008 87.2867 70.2142 86.5563C70.236 87.0059 70.1243 87.7527 69.7673 88.4831H69.7646ZM72.3913 78.0044C72.8736 78.5413 69.8327 79.9203 68.3368 79.3943C70.8382 79.4297 71.8927 77.4621 72.3913 78.0044ZM68.9227 80.0075C70.6448 80.0075 71.6638 79.4379 72.0971 79.0046C71.9282 80.2446 70.6094 80.6725 68.9363 80.6725C67.2632 80.6725 65.7237 78.8274 64.4512 80.0593C66.6911 79.7976 67.0235 82.1604 69.5521 81.3674C67.3668 83.7193 65.7646 79.5715 63.2523 80.7705C64.5248 77.7319 67.2087 80.0075 68.9227 80.0075ZM56.473 83.7928C57.7782 81.8607 58.7919 84.5206 60.9608 83.0434C61.6829 84.1799 59.9117 84.8912 58.8818 84.2562C57.849 83.6158 57.018 83.5885 56.4757 83.7928H56.473ZM62.8191 85.1692C61.8627 85.9104 59.4213 86.6626 59.454 85.0628C61.9934 85.5534 62.5766 81.9479 64.8382 83.0107C64.266 83.117 63.7591 84.436 62.8191 85.1692ZM69.92 84.3597C69.9146 85.7251 69.7237 86.7225 69.4077 87.4584L65.7401 88.4831H62.4703L69.92 84.3597Z" fill="black"></path>
<path d="M83.809 69.2617C82.0406 69.4553 82.3185 71.8557 83.6482 71.8557C84.9779 71.8557 85.1742 71.2372 86.1823 71.2372C87.1905 71.2372 87.5474 71.8966 88.3568 71.8966C89.166 71.8966 89.6402 71.319 89.2777 70.8122C88.7545 71.665 87.8281 70.5015 87.1469 70.5015C86.1006 70.5015 85.6538 70.9321 84.9752 71.2753C84.2123 71.665 83.482 71.2945 83.7655 70.8476C83.1823 70.8394 82.8008 70.1119 83.8063 69.2617H83.809Z" fill="black"></path>
<path d="M90.2269 61.8922C88.5157 64.4349 90.7827 67.043 87.1914 67.9451C91.4585 67.9887 89.2405 64.3532 90.7964 62.2575C92.3522 60.1617 94.1179 60.9385 94.6873 58.5156C93.7909 60.486 91.205 60.4315 90.2269 61.8922Z" fill="black"></path>
<path d="M85.3203 66.7215C84.3422 65.7623 84.7835 64.043 84.7835 64.043C84.7835 64.043 83.244 65.9749 85.3203 66.7215Z" fill="black"></path>
<path d="M91.3641 62.7357C89.9935 64.7715 91.574 67.7202 88.6992 68.5733C92.3205 68.6632 90.5821 64.4717 91.89 63.0192C93.0344 61.3513 94.078 61.6374 94.6202 59.8633C93.8546 61.2804 92.1461 61.572 91.3668 62.7385L91.3641 62.7357Z" fill="black"></path>
<path d="M96.4482 68.9943C93.4563 67.7708 91.6797 70.5937 91.6797 71.4412C92.4073 71.0923 93.5952 69.7926 94.0394 69.5011C94.8541 68.967 96.113 69.2912 96.4482 68.9943Z" fill="black"></path>
<path d="M89.4155 73.424C89.6309 73.9035 90.5218 72.8327 91.8652 73.2441C91.2167 72.8027 89.2957 72.8054 89.4155 73.424Z" fill="black"></path>
<path d="M99.2934 67.4961C98.6613 70.4312 93.1571 68.2592 93.2034 72.437C94.3697 70.3685 99.7702 70.5539 99.2934 67.4961Z" fill="black"></path>
<path d="M88.405 74.8021C88.5085 75.4288 89.6121 74.1263 91.7265 75.0337C90.999 73.9791 88.247 73.881 88.405 74.8021Z" fill="black"></path>
<path d="M84.0964 66.7091C81.9657 63.2071 86.9629 62.4032 85.5487 59.5117C85.7285 61.7737 80.9275 64.1065 84.0964 66.7091Z" fill="black"></path>
<path d="M84.6387 80.2852C84.3527 80.4896 83.6633 80.6885 83.1265 81.0481C83.072 81.1408 82.9794 81.4732 82.8594 81.5522C83.4125 81.6639 84.5951 80.8683 84.6387 80.2852Z" fill="black"></path>
<path d="M77.782 72.1823C76.9509 72.0134 75.9645 72.8499 75 73.2968C75.9046 74.5993 78.0027 74.7055 78.8446 75.1688C79.0327 74.8799 79.6703 72.5611 77.782 72.1851V72.1823ZM76.8146 74.2995C75.9564 73.9753 76.3134 72.3186 77.4577 72.5611C77.3896 72.6946 76.8664 73.7028 76.8146 74.2995ZM77.4686 74.4985C77.8447 74.0925 78.1117 73.1197 78.1743 72.9671C79.0027 73.6047 78.1743 74.7709 77.4686 74.4985Z" fill="black"></path>
<path d="M80.7939 70.8455C79.8838 71.919 79.2352 70.742 78.0773 70.742C77.0827 70.7311 75.9246 71.8455 75.7257 71.1261C75.5677 70.5703 76.5895 69.6357 77.9246 69.5376C76.7883 69.2215 74.9274 70.2679 74.5922 71.4178C74.2271 71.4532 73.9219 71.3524 73.9219 71.3524C74.3878 73.3115 76.3606 71.3088 77.2897 71.3088C78.129 71.3088 80.7421 73.1997 80.7939 70.8483V70.8455Z" fill="black"></path>
<path d="M80.5312 58.948L81.523 61.537C81.523 61.537 80.6184 62.5944 80.6184 64.4749C80.6184 68.1648 83.6429 68.5109 83.4331 67.0203C81.3078 67.9905 81.2043 64.9163 81.7874 64.265C81.7874 64.265 81.4004 65.8783 82.82 66.4643C80.9236 63.3247 84.6593 62.1284 84.6593 59.6239C84.6593 57.5336 83.3759 56.855 83.4032 54.9392C83.4359 52.6309 86.831 52.0313 86.8664 52.917C86.8936 53.552 84.4005 53.6229 84.3624 56.002C84.3241 58.2313 86.8146 58.7681 86.7601 60.9347C86.7193 62.3518 84.177 63.6654 85.7629 66.3308L89.3759 56.1382L86.6076 59.2641C85.722 58.1605 85.0272 58.0568 85.0272 56.0728C85.0272 54.0888 87.237 53.7999 87.237 52.8733C87.237 52.1294 86.128 52.0258 85.3187 51.9904C84.068 51.9332 81.8555 53.0178 81.8555 55.3234C81.8555 57.629 83.4168 58.8036 81.8664 60.9701L80.5312 58.9453V58.948ZM83.7983 58.4492C84.7846 61.5752 81.5339 62.4064 81.2642 64.4694C81.0626 61.9758 84.1797 60.7903 83.7983 58.4492Z" fill="black"></path>
<path d="M78.1868 75.5176C77.6745 75.1743 75.8544 75.2261 74.8326 74.1797C74.8326 74.1797 74.7536 74.3949 74.8517 74.5748C73.5901 75.0788 73.9498 76.2723 73.9498 76.2723C73.9498 76.2723 74.7727 75.2724 75.2904 75.2914C75.2904 75.2914 75.176 76.0925 75.4075 76.4577L75.5165 76.6266C75.0778 74.9726 78.1868 75.5176 78.1868 75.5176Z" fill="black"></path>
<path d="M68.8883 61.0041L71.1635 62.0942C71.2316 62.8764 71.5613 63.7048 72.3487 64.626C73.2317 65.6589 75.6376 65.9641 75.7385 68.3924C76.4715 67.6565 75.8965 65.9505 74.2643 64.983C68.158 61.3965 78.4333 55.7798 71.8338 53.7658C77.5368 53.3816 75.1036 58.5404 75.5586 60.609C76.188 63.4623 78.8229 62.7728 80.2316 64.5579L78.684 55.8942L77.2126 61.9335C75.2698 61.6473 75.9564 58.892 76.0082 56.3957C76.1036 51.6591 68.0055 53.0164 69.1009 55.6817C69.515 56.6928 72.2561 54.4281 72.2725 56.8235C72.2861 58.4533 71.2698 59.8676 71.1554 61.4646L68.8828 61.0068L68.8883 61.0041ZM69.6594 55.3002C69.1063 54.6269 71.8447 53.8748 72.3461 55.559C70.9945 54.6761 69.9183 55.6135 69.6594 55.3002Z" fill="black"></path>
<path d="M74.5178 60.25C71.8285 65.338 81.131 63.0243 79.9212 67.3521C81.8776 62.6754 73.5016 65.2781 74.5178 60.25Z" fill="black"></path>
<path d="M98.6261 83.5744C100.174 83.5417 101.397 82.0155 102.272 81.4569C101.016 81.7457 100.354 82.8658 98.6261 82.904C95.7924 82.9585 94.3155 74.9462 89.4844 76.5841C94.4599 76.9765 94.3455 83.6725 98.6261 83.5744Z" fill="black"></path>
<path d="M77.852 66.8346C77.7158 66.8346 77.5878 66.791 77.476 66.7175C76.8356 66.3142 76.4951 65.2076 75.8466 65.3276C76.2225 65.6165 76.0536 66.6575 76.5877 67.2352C76.8383 67.5241 77.2117 67.7013 77.6232 67.7013C78.3916 67.7013 79.0074 67.0826 79.0074 66.3196C79.0074 65.8753 78.8002 65.4775 78.4733 65.2294C77.9855 64.8506 77.2907 64.5944 75.2662 63.9077C70.4487 62.2698 77.6613 57.3807 74.3398 54.6445C76.1626 58.5798 70.8411 60.9208 73.6067 63.6788C74.8084 64.9296 77.4351 64.7389 78.3343 65.6301C78.4678 65.7554 78.5496 65.938 78.5496 66.1397C78.5496 66.5239 78.239 66.8373 77.852 66.8373V66.8346Z" fill="black"></path>
<path d="M73.6994 69.7546C72.8302 69.7301 71.4378 69.3186 70.9528 68.1523C70.5031 69.2151 71.8847 72.0706 73.6994 69.7546Z" fill="black"></path>
<path d="M85.0689 81.0664C85.0144 81.2027 84.6248 81.3553 83.8373 81.6577C83.7283 81.8376 83.4858 82.1264 83.2461 82.2762C84.1888 82.5352 85.2325 81.5787 85.0716 81.0664H85.0689Z" fill="black"></path>
<path d="M89.0811 72.5965C89.2799 72.9235 89.5688 72.3023 90.1029 72.0079C89.4081 71.9126 88.9803 72.4194 89.0811 72.5965Z" fill="black"></path>
<path d="M88.4981 73.0383C87.5389 72.5942 86.5499 71.7576 85.7214 71.9239C83.8222 72.2999 84.4626 74.6187 84.6507 74.9102C85.498 74.447 87.5961 74.3407 88.4981 73.0383ZM86.6861 74.0056C86.6861 74.0056 86.1139 72.3979 86.043 72.2644C87.1875 72.0247 87.5416 73.6813 86.6861 74.0056ZM85.321 72.6705C85.3863 72.8203 85.6506 73.7957 86.0267 74.2018C85.321 74.4742 84.4981 73.3081 85.321 72.6705Z" fill="black"></path>
<path d="M92.6654 67.4168C91.8153 68.3488 91.8752 69.1119 90.6055 69.9267C92.2622 70.6407 92.3058 68.447 93.9597 67.97C95.0878 67.6402 95.9488 69.0028 97.562 68.2643C99.1804 67.5231 98.5973 64.5253 99.382 63.2036C100.17 61.8845 102.336 60.6527 103.87 63.3153C103.87 63.3153 101.279 60.7671 100.061 63.8086C100.905 63.1054 102.161 62.8874 102.161 63.5633C101.497 63.7759 100.426 64.1656 100.39 66.5447C100.349 69.3135 99.2322 69.9104 98.363 70.4827C97.1069 71.314 94.1859 71.2703 93.5374 73.1589L103.671 68.6377H100.581C100.982 66.3702 100.101 62.9937 104.336 63.7786C104.856 62.653 101.33 59.042 98.2677 63.16L97.9733 62.1216C97.333 67.6103 94.4338 65.4819 92.6654 67.4223V67.4168ZM98.0224 64.6697C98.5456 65.5663 96.987 67.1797 96.987 67.1797C97.3958 67.3295 97.3767 67.9155 96.8699 68.0627C95.9515 68.3324 95.2213 67.2996 94.0442 67.6021C94.2895 67.1797 96.7417 67.2696 98.0224 64.6697Z" fill="black"></path>
<path d="M72.984 71.1394C68.7116 71.2102 71.8559 66.5255 68.668 65.8359C70.311 66.9452 69.4091 67.9399 69.42 69.7304C69.4336 71.8915 72.0222 72.5456 72.9813 71.1394H72.984Z" fill="black"></path>
<path d="M87.9259 64.8249C87.4327 66.1603 86.0648 66.5391 85.3945 67.6974C85.7678 67.7083 87.7542 67.2586 88.4898 66.0132C89.1956 64.8113 88.5035 61.3038 90.7787 60.4482C93.1574 59.5488 95.6479 58.2271 92.836 55.3573C97.1521 56.4502 94.727 61.0559 94.2147 61.7318C93.7269 62.3586 92.1384 63.6177 92.1384 65.6398C92.1384 67.1387 90.7951 68.8474 89.746 69.0545C90.8523 69.5014 92.5062 66.9697 92.5062 66.9697L97.8851 60.0122L94.7896 61.6091C94.7896 61.6091 95.637 60.876 95.637 58.4506C95.637 55.0194 91.9532 54.4062 91.9886 55.4719C92.0185 56.1804 93.242 56.6818 93.2829 57.8483C93.3183 59.0146 91.6833 59.6769 90.4054 60.0476L89.8332 58.129V60.2846C87.7433 61.3639 88.4435 63.4214 87.9259 64.8249Z" fill="black"></path>
</svg>