<svg xmlns="http://www.w3.org/2000/svg" width="166" height="165" viewBox="0 0 166 165" fill="none">
<path d="M67.2377 78.7258C67.2377 79.4756 67.1273 80.1614 66.9064 80.7832C66.6856 81.3867 66.3822 81.9262 65.9957 82.4018C65.6093 82.859 65.1677 83.243 64.671 83.554C64.1742 83.8466 63.6498 84.0661 63.0979 84.2123V84.4867L66.6856 89.1503V91.8935L66.4097 92.1679H64.7537L64.2018 91.8935L58.6821 84.761L58.1301 84.4867H55.3703L55.0943 84.761V91.8935L54.8183 92.1679H51.5065L51.2305 91.8935V73.2392L51.5065 72.9648H60.614C61.5891 72.9648 62.4815 73.0837 63.2911 73.3215C64.1007 73.5593 64.7906 73.925 65.361 74.4188C65.9497 74.8943 66.4097 75.4887 66.7409 76.2019C67.0721 76.9152 67.2377 77.7564 67.2377 78.7258ZM63.3738 78.7258C63.3738 77.7564 63.1163 77.1073 62.6011 76.7781C62.1044 76.4306 61.4419 76.2568 60.614 76.2568H55.3703L55.0943 76.5311V80.9204L55.3703 81.1947H60.614C61.4419 81.1947 62.1044 81.0301 62.6011 80.7009C63.1163 80.3534 63.3738 79.6951 63.3738 78.7258Z" fill="black"></path>
<path d="M75.5214 92.1679H72.2095L71.9336 91.8935V73.2392L72.2095 72.9648H75.5214L75.7974 73.2392V91.8935L75.5214 92.1679Z" fill="black"></path>
<path d="M96.4916 86.6821C96.4916 87.4319 96.3444 88.1543 96.0501 88.8494C95.7556 89.5443 95.2865 90.1569 94.6425 90.6873C94.0169 91.2177 93.1982 91.6475 92.1863 91.9766C91.1743 92.2875 89.9415 92.443 88.488 92.443C87.1081 92.443 85.9122 92.2875 84.9002 91.9766C83.9066 91.6475 83.0787 91.1994 82.4163 90.6324C81.7539 90.0655 81.2664 89.3979 80.9536 88.6299C80.6408 87.8617 80.4844 87.0296 80.4844 86.1335L80.7604 85.8591H84.0722L84.3482 86.1335C84.3482 87.0845 84.6702 87.8251 85.3141 88.3555C85.9582 88.8859 87.1081 89.1511 88.764 89.1511C90.0152 89.1511 90.9718 88.9499 91.6343 88.5475C92.2966 88.127 92.6278 87.5052 92.6278 86.6821C92.6278 86.2066 92.545 85.8043 92.3794 85.4751C92.2322 85.1459 91.9655 84.8716 91.5791 84.6521C91.211 84.4326 90.7051 84.2498 90.0612 84.1034C89.4355 83.9389 88.6352 83.7925 87.66 83.6645C86.7033 83.5182 85.8018 83.3171 84.9554 83.061C84.1091 82.805 83.3731 82.4575 82.7476 82.0185C82.1404 81.5797 81.6528 81.0218 81.2848 80.3451C80.9352 79.6685 80.7604 78.8547 80.7604 77.9037C80.7604 77.2087 80.8984 76.5503 81.1744 75.9285C81.4687 75.3067 81.9196 74.758 82.5267 74.2825C83.1339 73.7887 83.9066 73.4046 84.845 73.1304C85.7834 72.8378 86.9057 72.6914 88.2121 72.6914C89.5183 72.6914 90.6407 72.8378 91.5791 73.1304C92.5174 73.423 93.2902 73.8253 93.8974 74.3374C94.5045 74.8494 94.946 75.4621 95.2221 76.1753C95.5164 76.8704 95.6636 77.6294 95.6636 78.4523L95.3877 78.7266H92.0759L91.7998 78.4523C91.7998 78.0317 91.7354 77.675 91.6066 77.3824C91.4962 77.0715 91.2939 76.8154 90.9995 76.6143C90.7051 76.3948 90.3095 76.2394 89.8128 76.148C89.316 76.0382 88.6904 75.9833 87.936 75.9833C86.7033 75.9833 85.8385 76.1663 85.3418 76.532C84.8634 76.8978 84.6242 77.355 84.6242 77.9037C84.6242 78.306 84.6978 78.6535 84.845 78.9461C85.0106 79.2387 85.2774 79.4856 85.6454 79.6868C86.0317 79.888 86.5469 80.0617 87.1909 80.208C87.8348 80.3543 88.6352 80.5006 89.5919 80.6469C90.5671 80.7749 91.4687 80.9852 92.2966 81.2778C93.1429 81.5705 93.8697 81.9546 94.4769 82.43C95.1025 82.9056 95.5901 83.4908 95.9397 84.1857C96.3077 84.8807 96.4916 85.7129 96.4916 86.6821Z" fill="black"></path>
<path d="M114.157 92.1679H101.186L100.91 91.8935V73.2392L101.186 72.9648H114.157L114.433 73.2392V75.9825L114.157 76.2568H105.05L104.774 76.5311V80.3717L105.05 80.646H113.605L113.881 80.9204V83.6636L113.605 83.938H105.05L104.774 84.2123V88.6016L105.05 88.8759H114.157L114.433 89.1503V91.8935L114.157 92.1679Z" fill="black"></path>
</svg>