<svg xmlns="http://www.w3.org/2000/svg" width="166" height="165" viewBox="0 0 166 165" fill="none">
<mask style="mask-type: luminance; animation-play-state: paused;" maskUnits="userSpaceOnUse" x="51" y="56" width="64" height="53">
<path d="M115 56H51V108.372H115V56Z" fill="white"></path>
</mask>
<g mask="url(#svg-277649071_28526_mask0_4548_4226)">
<path fill-rule="evenodd" clip-rule="evenodd" d="M57.8376 99.3778C57.9087 99.4026 57.9849 99.4563 58.0069 99.4974C58.0314 99.5431 58.0468 100.332 58.0468 101.535V103.498L58.2814 103.256C58.4104 103.123 58.5985 102.966 58.6995 102.907C58.8005 102.848 58.9926 102.772 59.1263 102.737C59.2601 102.702 59.4902 102.674 59.6379 102.674C59.7855 102.674 60.0143 102.702 60.1461 102.736C60.2781 102.771 60.491 102.854 60.6192 102.923C60.7474 102.991 60.9555 103.151 61.0816 103.278C61.2078 103.405 61.3577 103.578 61.4151 103.663C61.4723 103.748 61.5685 103.94 61.6287 104.091L61.7383 104.365L61.7512 106.176C61.7583 107.172 61.7532 108.03 61.7398 108.084C61.7246 108.144 61.6609 108.203 61.5677 108.242C61.4799 108.278 61.3673 108.293 61.2906 108.279C61.2197 108.266 61.1262 108.229 61.0831 108.198C61.0083 108.143 61.0037 108.057 60.9842 106.333L60.9638 104.526L60.8316 104.258C60.7517 104.096 60.6179 103.913 60.4936 103.797C60.3805 103.692 60.1831 103.557 60.0548 103.497C59.8634 103.409 59.7629 103.389 59.4951 103.39C59.2254 103.39 59.1254 103.41 58.9196 103.503C58.7704 103.571 58.5873 103.701 58.4626 103.828C58.3482 103.944 58.2123 104.13 58.1608 104.243C58.0687 104.443 58.0669 104.476 58.0468 106.265C58.0276 107.975 58.0218 108.09 57.9494 108.169C57.907 108.216 57.8104 108.266 57.7345 108.28C57.6556 108.295 57.5439 108.284 57.4734 108.255C57.4056 108.227 57.3324 108.171 57.3109 108.131C57.2864 108.085 57.2716 106.441 57.2716 103.783C57.2716 99.7628 57.2758 99.5047 57.343 99.4463C57.3823 99.4121 57.4419 99.3741 57.4757 99.3616C57.5093 99.3493 57.5754 99.3377 57.6225 99.3361C57.6697 99.3343 57.7664 99.353 57.8376 99.3778ZM84.4867 99.4376C84.562 99.5057 84.5651 99.5869 84.5651 101.499C84.5651 102.593 84.5753 103.489 84.5877 103.489C84.6001 103.489 84.7122 103.379 84.8367 103.244C84.9962 103.072 85.1517 102.956 85.3625 102.852C85.6183 102.726 85.7137 102.702 86.0211 102.684C86.2269 102.673 86.4803 102.684 86.6139 102.712C86.7423 102.739 86.9626 102.818 87.1035 102.888C87.265 102.969 87.4655 103.122 87.6458 103.303C87.8331 103.492 87.9771 103.683 88.0628 103.858C88.1348 104.005 88.2172 104.225 88.2459 104.347C88.2841 104.509 88.2981 105.042 88.2981 106.329C88.2981 108.065 88.2969 108.092 88.2122 108.176C88.1651 108.223 88.055 108.271 87.9675 108.281C87.8527 108.295 87.7716 108.278 87.6758 108.218L87.5433 108.135L87.543 106.535C87.5429 105.63 87.5243 104.822 87.5005 104.676C87.4773 104.533 87.4198 104.341 87.3728 104.249C87.3257 104.156 87.2319 104.012 87.1642 103.928C87.0964 103.844 86.9476 103.711 86.8331 103.633C86.7188 103.555 86.5078 103.461 86.3643 103.425C86.1844 103.379 86.032 103.367 85.8747 103.386C85.749 103.401 85.5545 103.455 85.4422 103.506C85.33 103.558 85.155 103.673 85.0533 103.764C84.9516 103.854 84.8201 104.017 84.7611 104.126C84.702 104.235 84.6339 104.433 84.6095 104.566C84.5823 104.714 84.5651 105.438 84.5651 106.433C84.5651 107.43 84.5494 108.087 84.5246 108.133C84.5024 108.175 84.4197 108.23 84.3409 108.256C84.2621 108.282 84.1428 108.291 84.0758 108.276C84.0089 108.262 83.9172 108.203 83.872 108.145C83.7909 108.043 83.7899 107.988 83.7899 103.831C83.7899 100.758 83.8026 99.5941 83.8366 99.5194C83.8623 99.4632 83.9312 99.3986 83.9897 99.3761C84.0481 99.3535 84.1662 99.3421 84.2521 99.3508C84.338 99.3594 84.4435 99.3984 84.4867 99.4376ZM114.926 99.4542C114.996 99.5412 115 99.7524 115 103.812V108.079L114.908 108.164C114.858 108.211 114.766 108.262 114.704 108.278C114.642 108.293 114.55 108.295 114.499 108.282C114.448 108.27 114.366 108.221 114.316 108.174L114.225 108.09V103.796V99.5017L114.337 99.4133C114.428 99.3413 114.487 99.3283 114.651 99.3439C114.795 99.3576 114.873 99.389 114.926 99.4542ZM54.9594 99.8378C55.1573 99.8969 55.3902 99.9815 55.4768 100.025C55.5634 100.07 55.6632 100.147 55.6982 100.197C55.7333 100.247 55.7621 100.338 55.7621 100.399C55.7621 100.46 55.7402 100.559 55.7134 100.617C55.6865 100.676 55.6126 100.751 55.5489 100.784C55.4405 100.84 55.4136 100.835 55.1183 100.703C54.945 100.626 54.7024 100.532 54.579 100.494C54.4556 100.457 54.1526 100.417 53.9058 100.405C53.584 100.39 53.3722 100.402 53.157 100.448C52.9919 100.483 52.7441 100.573 52.6062 100.648C52.4302 100.744 52.3164 100.842 52.224 100.978C52.1518 101.085 52.0739 101.24 52.0509 101.322C52.028 101.404 52.0092 101.591 52.0092 101.737C52.0092 101.882 52.028 102.069 52.0509 102.151C52.0739 102.234 52.1518 102.389 52.224 102.497C52.2964 102.604 52.4466 102.76 52.5578 102.844C52.6692 102.928 52.8711 103.037 53.0066 103.086C53.1422 103.135 53.4813 103.266 53.7604 103.376C54.0392 103.486 54.4463 103.664 54.6648 103.772C54.8832 103.88 55.1291 104.02 55.2112 104.082C55.2932 104.145 55.4444 104.314 55.5474 104.458C55.6504 104.602 55.7763 104.834 55.8272 104.975C55.8782 105.115 55.9409 105.383 55.9666 105.57C55.9924 105.759 56.0012 106.039 55.9864 106.197C55.9716 106.355 55.9331 106.601 55.9007 106.744C55.8685 106.887 55.7828 107.116 55.7103 107.252C55.6379 107.388 55.4801 107.596 55.3598 107.715C55.2316 107.841 55.0208 107.989 54.8499 108.072C54.6897 108.15 54.4393 108.246 54.2934 108.285C54.0924 108.339 53.8802 108.356 53.4163 108.353C52.931 108.349 52.7385 108.331 52.4867 108.263C52.312 108.216 52.0274 108.103 51.8543 108.013C51.6812 107.924 51.4457 107.768 51.3308 107.667C51.2159 107.567 51.0904 107.418 51.0516 107.337C51.0055 107.24 50.9899 107.143 51.0064 107.055C51.0202 106.981 51.076 106.873 51.1306 106.814C51.1925 106.748 51.2731 106.708 51.3449 106.708C51.4337 106.708 51.5254 106.774 51.7447 106.996C51.9108 107.164 52.1267 107.334 52.2634 107.404C52.3923 107.47 52.6027 107.551 52.731 107.584C52.8665 107.619 53.1452 107.645 53.3959 107.645C53.6543 107.645 53.9251 107.619 54.0707 107.582C54.2044 107.547 54.3915 107.473 54.4865 107.417C54.5816 107.362 54.7263 107.248 54.8084 107.165C54.8905 107.081 55.0049 106.912 55.0627 106.789C55.1481 106.607 55.1706 106.488 55.1837 106.153C55.1957 105.846 55.182 105.679 55.1305 105.502C55.0923 105.371 54.9969 105.167 54.9184 105.049C54.84 104.931 54.7087 104.781 54.6265 104.716C54.5443 104.651 54.357 104.533 54.2104 104.452C54.0637 104.372 53.6506 104.194 53.2924 104.058C52.9342 103.922 52.5118 103.747 52.3538 103.669C52.1958 103.592 51.9966 103.471 51.9113 103.4C51.8258 103.33 51.6857 103.184 51.5997 103.075C51.5139 102.967 51.4051 102.775 51.3579 102.649C51.3109 102.524 51.2537 102.286 51.2306 102.12C51.2011 101.909 51.2021 101.72 51.2338 101.483C51.2617 101.274 51.3253 101.046 51.4006 100.883C51.4675 100.739 51.5851 100.544 51.6619 100.451C51.7387 100.357 51.8915 100.223 52.0012 100.152C52.111 100.082 52.3157 99.978 52.456 99.921C52.5963 99.8642 52.8239 99.7917 52.9617 99.76C53.1404 99.7192 53.4113 99.7066 53.9058 99.7165C54.5127 99.7285 54.6444 99.7437 54.9594 99.8378ZM82.7514 99.7995C82.8147 99.8625 82.8516 99.946 82.8516 100.026C82.8516 100.095 82.8238 100.206 82.7898 100.271L82.7278 100.391L81.6372 100.402L80.5466 100.412L80.5362 104.26C80.5267 107.752 80.5196 108.114 80.4592 108.181C80.4224 108.221 80.3321 108.266 80.258 108.279C80.1841 108.293 80.058 108.283 79.9777 108.257C79.8975 108.23 79.8138 108.175 79.7915 108.133C79.7656 108.085 79.7511 106.682 79.7511 104.225V100.392H78.6761C77.6895 100.392 77.5958 100.386 77.5344 100.318C77.4974 100.278 77.4561 100.188 77.4425 100.12C77.4269 100.042 77.4417 99.9496 77.482 99.8718C77.5173 99.8035 77.5696 99.7383 77.5982 99.7268C77.6266 99.7153 78.7752 99.7044 80.1505 99.7027L82.6513 99.6995L82.7514 99.7995ZM96.0559 99.7664C96.1334 99.8031 96.2431 99.8936 96.2995 99.9674C96.3559 100.041 96.8763 100.996 97.4558 102.089C98.0353 103.182 98.5252 104.082 98.5443 104.088C98.5635 104.094 99.0471 103.216 99.6193 102.137C100.191 101.058 100.711 100.104 100.773 100.017C100.836 99.9306 100.946 99.8238 101.018 99.7797C101.09 99.7357 101.199 99.6997 101.26 99.6996C101.32 99.6995 101.415 99.7198 101.469 99.7447C101.524 99.7696 101.589 99.8346 101.614 99.8892C101.646 99.9598 101.659 101.158 101.659 104.041C101.659 108 101.657 108.095 101.58 108.172C101.536 108.216 101.432 108.264 101.347 108.28C101.233 108.302 101.157 108.289 101.049 108.231L100.904 108.154L100.894 104.803C100.888 102.96 100.869 101.451 100.852 101.451C100.835 101.451 100.383 102.263 99.8467 103.254C99.3108 104.246 98.838 105.107 98.7961 105.167C98.754 105.227 98.6821 105.289 98.6362 105.303C98.5902 105.318 98.5024 105.309 98.441 105.283C98.3796 105.258 98.3002 105.188 98.2645 105.127C98.2288 105.066 97.7745 104.219 97.2549 103.244C96.7352 102.269 96.2927 101.454 96.2716 101.433C96.2476 101.409 96.2332 102.649 96.2332 104.744C96.2332 108.007 96.2311 108.095 96.1539 108.172C96.1102 108.216 96.0056 108.264 95.9211 108.28C95.8068 108.302 95.731 108.289 95.6231 108.231L95.4784 108.154L95.468 104.047C95.4608 101.188 95.4709 99.9146 95.5013 99.8579C95.5253 99.8131 95.5851 99.7602 95.634 99.7405C95.6831 99.7208 95.7663 99.7035 95.8191 99.7021C95.8717 99.7006 95.9783 99.7295 96.0559 99.7664ZM65.4168 102.712C65.5271 102.733 65.7242 102.79 65.8545 102.838C65.9848 102.887 66.1841 103.003 66.2972 103.096C66.4102 103.189 66.5725 103.381 66.6577 103.522C66.7429 103.664 66.8545 103.893 66.9056 104.031C66.9968 104.278 66.9991 104.323 67.0127 106.193C67.0256 107.941 67.0209 108.108 66.9576 108.178C66.9196 108.22 66.8266 108.266 66.7508 108.28C66.6744 108.294 66.561 108.284 66.4965 108.258C66.4325 108.231 66.3593 108.164 66.3339 108.109C66.3087 108.053 66.2879 107.898 66.2879 107.765C66.2879 107.632 66.281 107.522 66.2726 107.522C66.2643 107.522 66.177 107.596 66.0788 107.687C65.9806 107.778 65.7996 107.919 65.6765 108.001C65.5535 108.083 65.3331 108.196 65.1869 108.251C64.963 108.336 64.8504 108.352 64.4723 108.352C64.1056 108.352 63.9816 108.336 63.7932 108.262C63.6667 108.212 63.4877 108.117 63.3957 108.051C63.3036 107.984 63.1727 107.853 63.1047 107.759C63.0367 107.666 62.9521 107.489 62.9166 107.367C62.8698 107.206 62.8569 107.032 62.8693 106.733C62.8828 106.414 62.9075 106.278 62.9782 106.131C63.0286 106.027 63.1375 105.874 63.2203 105.791C63.3031 105.708 63.4535 105.598 63.5544 105.547C63.6554 105.496 63.8389 105.423 63.9624 105.386C64.0859 105.349 64.3612 105.292 64.5744 105.26C64.7897 105.227 65.2498 105.2 65.6093 105.2L66.2566 105.2L66.2404 104.803C66.2265 104.465 66.2055 104.366 66.0988 104.139C66.0299 103.992 65.9145 103.805 65.8424 103.723C65.7701 103.641 65.6068 103.522 65.4793 103.46C65.2669 103.356 65.2101 103.346 64.7988 103.349C64.3811 103.351 64.3221 103.362 63.9478 103.505C63.7011 103.599 63.5099 103.649 63.4531 103.635C63.4005 103.622 63.3315 103.551 63.2942 103.473C63.2579 103.396 63.2281 103.303 63.2281 103.266C63.2281 103.228 63.2788 103.147 63.3407 103.085C63.4027 103.023 63.5633 102.931 63.6978 102.88C63.8321 102.83 64.0521 102.764 64.1867 102.734C64.3215 102.705 64.608 102.679 64.8238 102.677C65.0395 102.675 65.3063 102.691 65.4168 102.712ZM71.4971 102.762C71.5654 102.826 71.5915 102.896 71.5915 103.014C71.5915 103.126 71.5634 103.208 71.5028 103.272C71.4243 103.356 71.3764 103.367 71.0831 103.367C70.9009 103.367 70.6427 103.395 70.5092 103.43C70.3756 103.464 70.1804 103.548 70.0753 103.615C69.9704 103.683 69.8078 103.821 69.7144 103.922C69.6208 104.023 69.4995 104.204 69.4447 104.324C69.3861 104.451 69.3287 104.681 69.3059 104.881C69.2842 105.068 69.2666 105.876 69.2664 106.678L69.2661 108.135L69.1335 108.216C69.0606 108.26 68.955 108.296 68.8989 108.296C68.8427 108.296 68.7372 108.26 68.6643 108.216L68.5317 108.135V105.509V102.882L68.6224 102.819C68.6723 102.784 68.7891 102.755 68.8821 102.755C68.9913 102.755 69.0891 102.785 69.1585 102.84C69.2579 102.918 69.2661 102.948 69.267 103.237L69.2681 103.55L69.4492 103.342C69.5487 103.228 69.7291 103.066 69.8499 102.983C69.9708 102.9 70.1779 102.797 70.3104 102.755C70.4799 102.701 70.6773 102.678 70.9769 102.676C71.3596 102.674 71.4122 102.683 71.4971 102.762ZM75.1367 102.737C75.2803 102.77 75.5261 102.865 75.6831 102.948C75.8513 103.036 76.0734 103.202 76.2238 103.352C76.3706 103.499 76.5316 103.713 76.6028 103.855C76.671 103.991 76.7484 104.206 76.7748 104.333C76.8011 104.461 76.8148 104.721 76.8052 104.913C76.7942 105.132 76.7619 105.31 76.7182 105.393C76.6793 105.467 76.5728 105.566 76.4762 105.617C76.3065 105.708 76.2764 105.71 74.6773 105.721L73.0512 105.733L73.0674 106.149C73.0808 106.49 73.1029 106.607 73.1909 106.797C73.2498 106.924 73.3825 107.109 73.4859 107.208C73.5893 107.307 73.7774 107.438 73.9039 107.5C74.0304 107.562 74.2825 107.639 74.464 107.672C74.6727 107.709 74.8916 107.721 75.0593 107.704C75.2052 107.69 75.4346 107.642 75.5692 107.598C75.7039 107.554 75.9178 107.455 76.0446 107.378C76.1714 107.3 76.3031 107.237 76.3372 107.237C76.3715 107.237 76.4559 107.285 76.5249 107.343C76.6216 107.424 76.6504 107.481 76.6504 107.593C76.6504 107.705 76.6186 107.767 76.5081 107.871C76.4298 107.945 76.2653 108.053 76.1425 108.111C76.0198 108.168 75.8038 108.247 75.6627 108.286C75.4785 108.336 75.2505 108.355 74.8553 108.355C74.4091 108.354 74.2429 108.336 73.9796 108.262C73.8009 108.211 73.544 108.111 73.4087 108.04C73.2734 107.968 73.0415 107.79 72.8933 107.645C72.71 107.465 72.5842 107.295 72.4996 107.115C72.4312 106.969 72.3549 106.753 72.3301 106.634C72.3049 106.513 72.2851 106.011 72.2851 105.492C72.2851 104.791 72.3003 104.507 72.3475 104.326C72.3819 104.194 72.4688 103.976 72.5407 103.841C72.6127 103.707 72.7838 103.484 72.9212 103.347C73.0671 103.201 73.2903 103.035 73.458 102.947C73.6159 102.864 73.8527 102.77 73.984 102.738C74.1155 102.707 74.3698 102.679 74.5493 102.678C74.7289 102.676 74.9931 102.703 75.1367 102.737ZM92.3656 102.719C92.4846 102.743 92.7143 102.826 92.8762 102.903C93.0448 102.983 93.2742 103.138 93.4132 103.267C93.5466 103.39 93.7125 103.579 93.7817 103.687C93.8507 103.794 93.9431 103.986 93.9865 104.112C94.0302 104.239 94.0782 104.467 94.0932 104.621C94.1097 104.788 94.1017 104.991 94.073 105.129C94.0468 105.255 93.9866 105.407 93.9393 105.467C93.892 105.527 93.7874 105.606 93.7071 105.643C93.5827 105.699 93.3215 105.712 91.9495 105.73L90.3379 105.75L90.3252 105.951C90.3182 106.061 90.3334 106.275 90.359 106.426C90.3881 106.599 90.4539 106.782 90.535 106.917C90.606 107.035 90.759 107.208 90.8746 107.302C90.9904 107.396 91.1897 107.512 91.3174 107.56C91.4453 107.608 91.6857 107.666 91.8516 107.689C92.0585 107.717 92.2528 107.717 92.4695 107.689C92.7183 107.656 92.8741 107.602 93.1993 107.438C93.4868 107.292 93.6385 107.237 93.6979 107.256C93.7448 107.271 93.8204 107.33 93.8659 107.388C93.9113 107.446 93.9485 107.535 93.9485 107.588C93.9485 107.64 93.8941 107.745 93.8276 107.82C93.7611 107.896 93.6004 108.014 93.4706 108.083C93.3407 108.152 93.1152 108.241 92.9694 108.281C92.7762 108.334 92.5546 108.354 92.1534 108.354C91.7566 108.355 91.5285 108.335 91.3374 108.284C91.1916 108.245 90.9434 108.152 90.7857 108.078C90.6202 108 90.3934 107.845 90.2487 107.711C90.1109 107.584 89.9396 107.388 89.8679 107.277C89.7963 107.165 89.7009 106.96 89.6559 106.82C89.5893 106.613 89.5701 106.413 89.5529 105.75C89.5398 105.244 89.5495 104.803 89.5783 104.588C89.6106 104.349 89.6688 104.15 89.7685 103.94C89.8758 103.714 89.9877 103.563 90.21 103.345C90.402 103.156 90.6009 103.007 90.7697 102.925C90.9137 102.855 91.1324 102.771 91.2559 102.738C91.3793 102.706 91.6308 102.678 91.8149 102.677C91.9988 102.675 92.2467 102.694 92.3656 102.719ZM105.98 102.737C106.123 102.77 106.363 102.862 106.512 102.94C106.661 103.019 106.876 103.171 106.988 103.278C107.101 103.385 107.253 103.56 107.327 103.667C107.401 103.774 107.499 103.966 107.547 104.093C107.613 104.274 107.632 104.421 107.634 104.772C107.636 105.132 107.621 105.251 107.559 105.375C107.51 105.474 107.421 105.563 107.314 105.62C107.151 105.707 107.106 105.71 105.525 105.721L103.903 105.733V106.097C103.903 106.325 103.928 106.533 103.969 106.655C104.006 106.762 104.089 106.927 104.154 107.022C104.219 107.116 104.376 107.268 104.504 107.359C104.635 107.453 104.862 107.564 105.023 107.613C105.238 107.679 105.413 107.701 105.719 107.7C106.033 107.698 106.187 107.677 106.392 107.607C106.538 107.556 106.758 107.452 106.882 107.376C107.006 107.3 107.14 107.237 107.181 107.237C107.222 107.237 107.308 107.291 107.374 107.356C107.456 107.439 107.493 107.516 107.493 107.606C107.493 107.702 107.457 107.771 107.358 107.864C107.284 107.934 107.119 108.042 106.993 108.103C106.866 108.165 106.647 108.247 106.506 108.286C106.323 108.335 106.09 108.355 105.698 108.355C105.306 108.355 105.071 108.335 104.882 108.285C104.736 108.246 104.487 108.151 104.328 108.073C104.164 107.993 103.931 107.831 103.788 107.697C103.649 107.567 103.473 107.354 103.395 107.222C103.316 107.089 103.225 106.852 103.188 106.689C103.135 106.451 103.125 106.199 103.136 105.38C103.148 104.456 103.157 104.344 103.238 104.129C103.287 104 103.412 103.774 103.517 103.628C103.621 103.481 103.808 103.282 103.932 103.185C104.056 103.088 104.256 102.96 104.376 102.902C104.496 102.843 104.7 102.769 104.83 102.738C104.96 102.706 105.213 102.679 105.392 102.678C105.572 102.676 105.836 102.703 105.98 102.737ZM111.381 102.807C111.533 102.863 111.732 102.961 111.823 103.024C111.915 103.087 112.049 103.213 112.123 103.304C112.197 103.394 112.298 103.55 112.348 103.65C112.399 103.75 112.478 103.933 112.525 104.057C112.607 104.273 112.611 104.371 112.625 106.193C112.637 107.941 112.632 108.108 112.569 108.178C112.531 108.22 112.438 108.266 112.362 108.28C112.286 108.294 112.172 108.284 112.108 108.258C112.044 108.231 111.971 108.164 111.945 108.109C111.92 108.053 111.899 107.898 111.899 107.765C111.899 107.632 111.893 107.522 111.884 107.522C111.876 107.522 111.789 107.596 111.69 107.687C111.592 107.778 111.411 107.919 111.288 108.001C111.165 108.083 110.947 108.193 110.804 108.245C110.661 108.297 110.413 108.35 110.253 108.363C110.093 108.376 109.853 108.367 109.721 108.342C109.589 108.317 109.385 108.253 109.267 108.2C109.15 108.146 108.979 108.034 108.887 107.951C108.795 107.868 108.669 107.697 108.607 107.57C108.511 107.375 108.492 107.277 108.479 106.924C108.467 106.607 108.48 106.455 108.536 106.279C108.582 106.131 108.672 105.979 108.791 105.847C108.891 105.735 109.058 105.601 109.162 105.549C109.265 105.496 109.451 105.423 109.574 105.386C109.697 105.349 109.973 105.292 110.186 105.26C110.401 105.227 110.861 105.2 111.221 105.2L111.868 105.2L111.852 104.803C111.838 104.465 111.817 104.366 111.71 104.139C111.641 103.992 111.526 103.805 111.454 103.723C111.382 103.641 111.218 103.522 111.091 103.46C110.878 103.356 110.822 103.346 110.41 103.349C109.993 103.351 109.934 103.362 109.559 103.505C109.303 103.603 109.122 103.65 109.061 103.634C109.008 103.621 108.948 103.578 108.927 103.539C108.907 103.5 108.877 103.409 108.862 103.336C108.838 103.224 108.851 103.186 108.949 103.088C109.013 103.024 109.175 102.931 109.309 102.88C109.444 102.83 109.664 102.763 109.798 102.732C109.962 102.694 110.218 102.68 110.573 102.69C111.017 102.702 111.149 102.721 111.381 102.807ZM74.3124 103.331C74.18 103.349 73.9676 103.422 73.8302 103.495C73.6953 103.567 73.5144 103.705 73.4283 103.803C73.3423 103.901 73.2302 104.067 73.179 104.173C73.1064 104.323 73.0822 104.456 73.0685 104.782L73.051 105.2L74.3101 105.198C75.0026 105.197 75.6491 105.181 75.7467 105.162C75.8442 105.143 75.9543 105.098 75.9914 105.061C76.0414 105.01 76.0581 104.922 76.056 104.719C76.0538 104.511 76.0261 104.386 75.9418 104.201C75.8805 104.067 75.7441 103.869 75.6387 103.76C75.5332 103.652 75.3611 103.52 75.2564 103.466C75.1518 103.412 74.9865 103.358 74.8893 103.345C74.7921 103.331 74.6758 103.315 74.631 103.309C74.5861 103.302 74.4427 103.312 74.3124 103.331ZM91.6144 103.33C91.4863 103.344 91.2811 103.404 91.1584 103.464C91.0252 103.529 90.8454 103.671 90.712 103.814C90.5651 103.973 90.4648 104.127 90.4193 104.264C90.3786 104.386 90.3475 104.618 90.344 104.826L90.3379 105.18L91.4599 105.192C92.0769 105.199 92.7166 105.193 92.8814 105.178C93.1036 105.158 93.2024 105.13 93.2638 105.069C93.3362 104.997 93.3443 104.948 93.3284 104.675C93.3137 104.42 93.2852 104.316 93.1733 104.106C93.0981 103.965 92.9525 103.775 92.8499 103.684C92.7473 103.593 92.5819 103.482 92.4822 103.437C92.3825 103.392 92.199 103.344 92.0742 103.33C91.9495 103.316 91.7426 103.316 91.6144 103.33ZM105.161 103.333C105.034 103.349 104.841 103.404 104.733 103.454C104.624 103.505 104.433 103.648 104.308 103.772C104.146 103.932 104.054 104.068 103.991 104.234C103.925 104.411 103.903 104.56 103.903 104.835V105.2L105.158 105.198C105.848 105.197 106.492 105.181 106.589 105.162C106.687 105.143 106.797 105.098 106.834 105.06C106.885 105.009 106.9 104.924 106.896 104.713C106.892 104.508 106.863 104.372 106.787 104.207C106.73 104.082 106.597 103.888 106.491 103.776C106.386 103.663 106.202 103.523 106.082 103.465C105.961 103.406 105.757 103.346 105.628 103.331C105.498 103.316 105.288 103.317 105.161 103.333ZM64.9913 105.772C64.8278 105.789 64.5644 105.835 64.406 105.874C64.2277 105.917 64.0533 105.993 63.9484 106.072C63.8552 106.143 63.7467 106.264 63.7075 106.342C63.6605 106.435 63.6361 106.578 63.6361 106.76C63.6361 106.917 63.6633 107.101 63.6991 107.187C63.7339 107.27 63.8027 107.381 63.8522 107.434C63.9016 107.487 64.0154 107.568 64.1052 107.614C64.2066 107.667 64.3777 107.705 64.5572 107.717C64.7581 107.73 64.9194 107.715 65.087 107.666C65.2196 107.628 65.4087 107.549 65.5073 107.491C65.6059 107.433 65.7813 107.293 65.8972 107.179C66.0131 107.065 66.1391 106.905 66.1774 106.824C66.2305 106.71 66.2471 106.563 66.2471 106.202V105.73L65.7676 105.735C65.504 105.738 65.1547 105.755 64.9913 105.772ZM110.603 105.772C110.439 105.789 110.176 105.835 110.018 105.874C109.838 105.918 109.667 105.992 109.564 106.071C109.473 106.141 109.365 106.262 109.323 106.34C109.271 106.438 109.247 106.568 109.247 106.759C109.247 106.917 109.275 107.101 109.311 107.187C109.345 107.27 109.414 107.381 109.464 107.434C109.513 107.487 109.627 107.568 109.717 107.614C109.818 107.667 109.989 107.705 110.169 107.717C110.37 107.73 110.531 107.715 110.699 107.666C110.831 107.628 111.02 107.549 111.119 107.491C111.217 107.433 111.393 107.293 111.509 107.179C111.624 107.065 111.751 106.905 111.789 106.824C111.842 106.71 111.859 106.563 111.859 106.202V105.73L111.379 105.735C111.116 105.738 110.766 105.755 110.603 105.772Z" fill="black"></path>
<path fill-rule="evenodd" clip-rule="evenodd" d="M95.8377 56.3347C95.5881 56.255 95.1751 56.1481 94.9198 56.097L94.4556 56.0042L83.1752 56.0004C76.9709 55.9985 71.812 56.0034 71.7111 56.0117C71.6101 56.0199 71.3192 56.0631 71.0645 56.1078C70.8097 56.1525 70.3967 56.2545 70.1466 56.3342C69.8963 56.4141 69.4712 56.5861 69.202 56.7165C68.9328 56.8468 68.5532 57.0606 68.3583 57.1915C68.1637 57.3225 67.8456 57.5647 67.6519 57.7299C67.4581 57.8948 67.1612 58.188 66.9922 58.3811C66.8232 58.5743 66.5575 58.9224 66.402 59.1545C66.2465 59.3868 66.0374 59.7473 65.9372 59.9557C65.8371 60.1641 65.6918 60.5245 65.6145 60.7564C65.537 60.9884 65.4319 61.3615 65.3805 61.5857L65.2874 61.993L65.2736 73.0349C65.2632 81.2781 65.272 84.1851 65.3075 84.5046C65.3338 84.7398 65.4071 85.1351 65.4706 85.3827C65.5339 85.6303 65.6422 85.9745 65.711 86.1475C65.7798 86.3205 65.9007 86.5903 65.9798 86.747C66.0588 86.9038 66.1989 87.1555 66.2911 87.3065C66.3832 87.4574 66.5733 87.7275 66.7132 87.9067C66.8531 88.0861 67.1694 88.4271 67.416 88.6649C67.6903 88.9292 68.0447 89.217 68.3292 89.4061C68.5848 89.5762 68.9868 89.8071 69.2224 89.9193C69.458 90.0315 69.8435 90.1875 70.0791 90.2657C70.3148 90.3439 70.7003 90.4503 70.936 90.5019L71.3643 90.5959H82.9916H94.6188L95.0423 90.5024C95.2752 90.451 95.6424 90.3528 95.8582 90.2841C96.0741 90.2156 96.4613 90.06 96.7186 89.9383C96.976 89.8166 97.389 89.5818 97.6365 89.4164C97.8842 89.251 98.2253 88.9903 98.3948 88.8371C98.5643 88.684 98.8032 88.4487 98.9257 88.3143C99.0482 88.1799 99.2325 87.9597 99.3354 87.8253C99.4381 87.6909 99.598 87.4604 99.6907 87.3133C99.7834 87.1661 99.9505 86.8544 100.062 86.6207C100.174 86.3867 100.321 86.0244 100.39 85.8151C100.458 85.6059 100.555 85.2483 100.606 85.0206L100.698 84.6064V73.3202V62.0339L100.605 61.6152C100.554 61.385 100.465 61.0469 100.407 60.8641C100.349 60.6812 100.231 60.3687 100.145 60.1695C100.058 59.9704 99.8918 59.6484 99.7751 59.4539C99.6584 59.2594 99.4651 58.9698 99.3456 58.8105C99.2261 58.6511 99.0076 58.3905 98.8599 58.2313C98.7124 58.0722 98.4504 57.8243 98.278 57.6805C98.1054 57.537 97.8082 57.3144 97.6174 57.1863C97.4267 57.0581 97.0504 56.8467 96.7811 56.7164C96.5118 56.586 96.0874 56.4143 95.8377 56.3347ZM95.798 66.2094C95.7507 66.1463 95.6498 66.0579 95.5736 66.0131C95.4367 65.9326 95.3612 65.9316 89.2135 65.931C85.7916 65.9308 80.1738 65.9399 76.7295 65.9514C70.6597 65.9716 70.4636 65.9747 70.3526 66.0499C70.2896 66.0926 70.2024 66.1973 70.1588 66.2826C70.0935 66.4104 70.0796 66.5223 70.0799 66.9181C70.0801 67.1823 70.099 67.6185 70.1217 67.8874C70.1446 68.1564 70.201 68.6056 70.2471 68.8856C70.2933 69.1658 70.4012 69.6701 70.487 70.0061C70.5726 70.3423 70.7184 70.8227 70.811 71.0739C70.9037 71.325 71.0702 71.7341 71.1814 71.9829C71.2924 72.2317 71.4875 72.6221 71.6148 72.8504C71.7422 73.0788 71.9835 73.4744 72.1511 73.7295C72.3188 73.9847 72.6349 74.4156 72.8538 74.687C73.0726 74.9586 73.4328 75.365 73.6544 75.5902C73.876 75.8153 74.2102 76.1328 74.3973 76.2958C74.5843 76.4587 74.9481 76.7486 75.2058 76.9399C75.4634 77.1314 75.9163 77.4325 76.2121 77.6095C76.5078 77.7863 76.7811 77.9491 76.8195 77.9711C76.8819 78.0068 76.8832 78.0249 76.8321 78.1472C76.8008 78.2221 76.7538 78.4058 76.7277 78.5554C76.6915 78.7627 76.6917 78.8928 76.7282 79.1023C76.7544 79.2536 76.8316 79.4938 76.8995 79.6361C76.9746 79.7932 77.1159 79.9875 77.2599 80.1312C77.4057 80.277 77.596 80.4144 77.7556 80.4896C77.8981 80.5567 78.1119 80.6318 78.2307 80.6567C78.3811 80.688 79.8407 80.7017 83.0261 80.7017C86.9535 80.7017 87.6385 80.693 87.8389 80.6408C87.9674 80.6074 88.1676 80.532 88.2838 80.4731C88.4 80.4143 88.5996 80.2619 88.7272 80.1345C88.8547 80.0071 89.0075 79.8078 89.0663 79.6917C89.1252 79.5756 89.2008 79.3756 89.2342 79.2473C89.2677 79.1189 89.2948 78.9308 89.2945 78.829C89.2941 78.7272 89.2656 78.5341 89.2309 78.3995C89.1963 78.265 89.159 78.1184 89.1479 78.0736C89.1314 78.0063 89.1906 77.9568 89.4869 77.7903C89.6843 77.6793 90.0569 77.4472 90.315 77.2743C90.573 77.1016 90.9861 76.7986 91.233 76.601C91.4797 76.4036 91.9206 76.0032 92.2125 75.7113C92.5044 75.4195 92.9197 74.9607 93.1356 74.6917C93.3514 74.4228 93.6558 74.0103 93.8121 73.775C93.9683 73.5396 94.1703 73.2189 94.261 73.0621C94.3516 72.905 94.5102 72.6082 94.6134 72.4023C94.7167 72.1963 94.8683 71.8663 94.9504 71.6688C95.0325 71.4716 95.1711 71.0991 95.2585 70.8414C95.3458 70.5837 95.4708 70.162 95.536 69.9042C95.6013 69.6466 95.6917 69.2157 95.7368 68.9468C95.782 68.6778 95.8399 68.2286 95.8654 67.9486C95.891 67.6684 95.9056 67.1883 95.8978 66.8818C95.8856 66.3916 95.8736 66.3105 95.798 66.2094ZM84.1429 68.8901C84.2952 68.8418 84.5299 68.7858 84.6646 68.7655C84.7992 68.7453 85.0459 68.7384 85.2126 68.7503C85.3794 68.7621 85.6181 68.7976 85.7429 68.8291C85.8678 68.8606 86.117 68.9587 86.2964 69.0469C86.4759 69.1353 86.7146 69.2835 86.8268 69.3764C86.939 69.4692 87.11 69.6398 87.2065 69.7554C87.3031 69.8709 87.4525 70.1121 87.5383 70.2913C87.6243 70.4706 87.714 70.6998 87.7375 70.8007C87.7611 70.9014 87.7926 71.0944 87.8076 71.2293C87.8229 71.3674 87.8133 71.6161 87.7856 71.7983C87.7587 71.9764 87.6917 72.2419 87.6369 72.3883C87.5821 72.5347 87.4601 72.768 87.3656 72.9067C87.2712 73.0453 86.2498 74.132 85.0957 75.3216C83.9418 76.511 82.9853 77.4703 82.9704 77.453C82.9555 77.4358 82.0358 76.4866 80.9265 75.3437C79.8173 74.2008 78.8326 73.1682 78.7383 73.0492C78.6442 72.9301 78.512 72.7177 78.4449 72.5771C78.3777 72.4364 78.295 72.2038 78.2611 72.0601C78.2271 71.9165 78.1991 71.6414 78.1987 71.4489C78.1984 71.2321 78.2288 70.9794 78.2786 70.7847C78.323 70.612 78.4275 70.3405 78.5111 70.1816C78.6045 70.0041 78.7741 69.7797 78.9509 69.6C79.1091 69.4389 79.3488 69.2412 79.4837 69.1605C79.6186 69.0798 79.8755 68.964 80.0549 68.9029C80.3004 68.8194 80.4872 68.7872 80.8115 68.7728C81.1598 68.7573 81.3078 68.77 81.5866 68.8395C81.7761 68.8867 82.0622 68.9913 82.2226 69.0719C82.3828 69.1524 82.6168 69.3099 82.7426 69.4219L82.9714 69.6255L83.188 69.4407C83.3072 69.339 83.5083 69.1934 83.6353 69.1171C83.7622 69.0407 83.9906 68.9387 84.1429 68.8901Z" fill="black"></path>
</g>
</svg>