<svg xmlns="http://www.w3.org/2000/svg" width="166" height="165" viewBox="0 0 166 165" fill="none">
<g clip-path="url(#svg-177335251_8784_clip0_3709_2063)">
<g style="mix-blend-mode: multiply; animation-play-state: paused;">
<mask style="mask-type: luminance; animation-play-state: paused;" maskUnits="userSpaceOnUse" x="40" y="75" width="86" height="14">
<path d="M125.332 75.9609H40.332V88.3999H125.332V75.9609Z" fill="white"></path>
</mask>
<g mask="url(#svg-177335251_8784_mask0_3709_2063)">
<path fill-rule="evenodd" clip-rule="evenodd" d="M79.5549 78.347C79.2589 78.347 79.0138 78.2522 78.8194 78.0625C78.6339 77.8733 78.5406 77.6323 78.5406 77.342C78.5406 77.0528 78.6339 76.817 78.8194 76.6361C79.0138 76.4465 79.2589 76.3516 79.5549 76.3516C79.8503 76.3516 80.0918 76.4465 80.2779 76.6361C80.4723 76.817 80.5702 77.0528 80.5702 77.3426C80.5702 77.6318 80.4717 77.8712 80.2779 78.063C80.0918 78.2522 79.8503 78.347 79.5549 78.347ZM78.6551 86.3832V79.2763H80.4531V86.3836L78.6551 86.3832ZM62.6917 78.063C62.8866 78.2527 63.1312 78.347 63.4271 78.347C63.7226 78.347 63.9641 78.2527 64.1502 78.063C64.3445 77.8712 64.4425 77.6323 64.4425 77.3426C64.4425 77.0534 64.3445 76.817 64.1502 76.6361C63.9646 76.4465 63.7226 76.3521 63.4271 76.3521C63.1317 76.3521 62.8861 76.4465 62.6917 76.6361C62.5062 76.8175 62.4134 77.0534 62.4134 77.3426C62.4134 77.6323 62.5057 77.8733 62.6917 78.063ZM62.5279 79.2758V86.3836H64.3264V79.2758H62.5279ZM65.8149 79.2758V86.3853H67.6124V82.7162C67.6124 82.0668 67.7575 81.5604 68.0488 81.1966C68.3479 80.8328 68.7366 80.6523 69.2149 80.6523C69.7011 80.6523 70.0613 80.8141 70.2961 81.1396C70.5309 81.4635 70.6475 81.9326 70.6475 82.5441V86.3847H72.4454V82.7162C72.4454 82.0668 72.5906 81.5604 72.8808 81.1966C73.1804 80.8328 73.5738 80.6523 74.0604 80.6523C74.5388 80.6523 74.8903 80.8141 75.1152 81.1396C75.3499 81.4635 75.4666 81.9326 75.4666 82.5441V86.3811H77.2645V82.369C77.2645 81.2992 77.0209 80.4876 76.5343 79.933C76.0476 79.3794 75.3499 79.1022 74.4403 79.1022C73.9511 79.0987 73.4688 79.2172 73.0368 79.4469C72.6257 79.6667 72.2774 79.9875 72.0246 80.3793C71.5753 79.5293 70.8113 79.1043 69.7348 79.1043C69.2481 79.1043 68.8175 79.209 68.4421 79.4194C68.0834 79.6134 67.779 79.8942 67.5569 80.2362L67.403 79.2763L65.8149 79.2758ZM81.9442 76.4123V86.3853H83.7416V76.4123H81.9442ZM88.2011 86.5553C87.5454 86.5553 86.9592 86.3936 86.4456 86.068C85.9299 85.7425 85.523 85.2994 85.224 84.7361C84.925 84.1727 84.7741 83.5316 84.7741 82.8168C84.7741 82.1015 84.9244 81.464 85.224 80.9111C85.523 80.3477 85.932 79.9082 86.4456 79.5925C86.9607 79.267 87.5454 79.1052 88.2011 79.1052C88.7246 79.1052 89.1848 79.2048 89.5782 79.4064C89.972 79.6065 90.2898 79.889 90.5329 80.2527V79.2774H92.3308V86.3857H90.7293L90.5329 85.3673C90.3084 85.6824 90.0094 85.9603 89.6341 86.1976C89.2671 86.4376 88.7908 86.5553 88.2011 86.5553ZM88.5794 84.9516C89.1609 84.9516 89.6341 84.7547 89.999 84.3639C90.3742 83.9628 90.5619 83.4507 90.5619 82.8303C90.5619 82.2099 90.3742 81.7035 89.999 81.3107C89.6341 80.909 89.1609 80.7094 88.5794 80.7094C88.0087 80.7094 87.5356 80.9058 87.1604 81.2966C86.785 81.6879 86.5974 82.1943 86.5974 82.8168C86.5974 83.4372 86.785 83.9487 87.1604 84.3504C87.5356 84.7495 88.0083 84.9516 88.5794 84.9516ZM93.7737 79.2758V86.3836H95.5716V83.1444C95.5716 82.5996 95.6546 82.1741 95.8236 81.8694C96.0024 81.5636 96.246 81.3485 96.5549 81.2246C96.8643 81.1002 97.2157 81.038 97.6096 81.038H98.1149L97.6096 79.2758C97.2427 79.2758 96.856 79.3412 96.5704 79.5189C96.1393 79.7858 95.7856 80.1611 95.5447 80.6073L95.3757 79.2752L93.7737 79.2758ZM100.676 86.3853L98.6384 79.2774H100.423L101.631 84.3929L103.036 79.2774H105.031L106.435 84.3929L107.658 79.2774H109.443L107.391 86.3853H105.523L104.034 81.0675L102.544 86.3853H100.676ZM111.284 86.0976C111.828 86.4024 112.45 86.5557 113.153 86.5557C113.714 86.5557 114.216 86.4505 114.657 86.2407C115.092 86.042 115.476 85.748 115.781 85.3803C116.084 85.02 116.309 84.6007 116.441 84.1488H114.615C114.491 84.4173 114.304 84.636 114.052 84.8086C113.807 84.9702 113.503 85.0516 113.138 85.0516C112.652 85.0516 112.234 84.8946 111.888 84.5795C111.551 84.2639 111.364 83.8295 111.327 83.2749H116.622C116.63 83.1506 116.636 83.0319 116.636 82.9163C116.646 82.8027 116.651 82.6923 116.651 82.5872C116.651 81.9378 116.5 81.3505 116.201 80.825C115.92 80.2981 115.496 79.8609 114.978 79.5635C114.454 79.2587 113.851 79.1052 113.167 79.1052C112.435 79.1052 111.8 79.267 111.256 79.5925C110.722 79.9082 110.301 80.3507 109.992 80.9245C109.693 81.4967 109.542 82.1513 109.542 82.8873C109.542 83.6129 109.696 84.252 110.005 84.807C110.302 85.3488 110.745 85.796 111.284 86.0976ZM112.001 80.982C112.337 80.7229 112.726 80.5938 113.167 80.5938C113.626 80.5938 114.01 80.7337 114.319 81.009C114.628 81.2862 114.796 81.6589 114.824 82.1274H111.354C111.448 81.6123 111.663 81.2302 112.001 80.982ZM121.649 86.5557C121.124 86.5557 120.665 86.4557 120.272 86.2541C119.885 86.0603 119.556 85.7687 119.317 85.4082L119.119 86.3836H117.518V76.4117H119.315V80.2937C119.54 79.9787 119.836 79.7013 120.201 79.4634C120.576 79.224 121.058 79.1052 121.647 79.1052C122.303 79.1052 122.888 79.267 123.403 79.5925C123.921 79.9207 124.342 80.3803 124.625 80.9245C124.924 81.4884 125.074 82.1295 125.074 82.8443C125.074 83.5595 124.924 84.2007 124.625 84.7641C124.34 85.3029 123.919 85.7576 123.403 86.082C122.891 86.3992 122.305 86.5557 121.649 86.5557ZM121.27 84.9516C121.841 84.9516 122.314 84.7552 122.69 84.3639C123.065 83.9731 123.253 83.4662 123.253 82.8443C123.253 82.2239 123.065 81.7123 122.69 81.3107C122.314 80.9094 121.843 80.7094 121.27 80.7094C120.689 80.7094 120.213 80.9094 119.838 81.3107C119.473 81.702 119.29 82.2083 119.29 82.8307C119.29 83.4507 119.473 83.9628 119.838 84.3639C120.211 84.7552 120.689 84.9516 121.27 84.9516ZM60.2423 82.4571C60.6548 82.5919 60.9824 82.7965 61.226 83.0739C61.4691 83.3428 61.5908 83.7285 61.5925 84.2349C61.6065 84.6568 61.4884 85.0728 61.2545 85.4243C61.0197 85.7773 60.6833 86.0545 60.2423 86.2546C59.8017 86.4568 59.2824 86.5562 58.6822 86.5562C58.0644 86.5562 57.5202 86.4547 57.0521 86.2546C56.5841 86.0447 56.2089 85.7587 55.9285 85.3948C55.7025 85.1022 55.5454 84.7624 55.4688 84.4007L57.0962 84.1457C57.1553 84.2784 57.3812 84.6174 57.6233 84.7936C57.6409 84.8102 57.6586 84.8246 57.6772 84.8412L57.6855 84.8485C57.9395 85.0403 58.2619 85.1346 58.6557 85.1346C59.0496 85.1346 59.3347 85.0537 59.5125 84.892C59.6996 84.7298 59.7924 84.5437 59.7924 84.3333C59.7924 84.0265 59.6612 83.8218 59.399 83.7165C59.1357 83.6025 58.7703 83.4927 58.3023 83.3874C57.995 83.3188 57.6907 83.2378 57.3901 83.1444C57.0934 83.0535 56.8064 82.9335 56.5333 82.7862C56.2888 82.641 56.078 82.4455 55.915 82.2124C55.7559 81.9745 55.6766 81.6838 55.6766 81.3387C55.6766 80.7078 55.9202 80.1792 56.4064 79.7485C56.9034 79.3194 57.5964 79.1037 58.4868 79.1037C59.3109 79.1037 59.967 79.3007 60.4537 79.6915C60.8369 79.9922 61.1144 80.4073 61.2457 80.8763L59.7432 81.2557L59.7416 81.2484C59.7416 81.2484 59.5441 80.8607 59.2232 80.6903C59.0336 80.5782 58.7832 80.5213 58.4728 80.5213C58.1349 80.5213 57.8726 80.5871 57.685 80.7213C57.5078 80.8561 57.4181 81.023 57.4181 81.223C57.4181 81.4329 57.555 81.6003 57.8254 81.7242C58.096 81.8487 58.4578 81.9636 58.9071 82.0689C59.3932 82.1844 59.8406 82.3141 60.2423 82.4571Z" fill="black"></path>
<path d="M51.3022 79.5259C50.6802 78.5563 49.78 77.7462 48.747 77.3347L48.4412 77.2309C48.1037 77.1267 47.7527 77.0725 47.3994 77.0703C46.2805 77.0754 45.375 78.0012 45.375 79.1434C45.375 79.6192 45.532 80.0568 45.7953 80.405L45.6689 80.2392C45.7295 80.3293 45.7953 80.4184 45.8715 80.5087C46.1929 80.8974 46.649 81.3011 47.2398 81.7593C48.6936 82.884 49.6364 83.8822 49.7141 85.1194C49.7328 85.2863 49.7442 85.4568 49.7442 85.6294C49.7442 86.258 49.6074 86.9236 49.3741 87.3916H49.3762C49.3762 87.3916 49.2762 87.5746 49.3389 87.628C49.371 87.6554 49.4405 87.6761 49.5618 87.602C50.2129 87.1783 50.7735 86.6295 51.211 85.9876C51.8557 85.0372 52.2076 83.9187 52.2232 82.7704C52.2405 81.6222 51.9202 80.494 51.3022 79.5259Z" fill="#666666"></path>
<path d="M46.8906 83.7531L45.98 83.0016C44.0727 81.61 43.0806 80.109 43.6243 78.2582C43.6736 78.0897 43.7342 77.9259 43.8037 77.7658V77.7638C43.8037 77.7638 43.9384 77.4813 43.6451 77.6207C42.7652 78.0984 42.0227 78.7941 41.4885 79.641C40.9544 80.4878 40.6465 81.4576 40.5944 82.4574C40.5259 83.733 40.8752 84.9963 41.5895 86.0554C41.8779 86.4603 42.2307 86.8155 42.6339 87.1065H42.6323C44.6433 88.5868 46.3682 87.8077 46.3682 87.8077H46.3697C46.7975 87.6272 47.1622 87.324 47.4178 86.9363C47.6734 86.5488 47.8085 86.0942 47.8059 85.6299C47.8078 85.2677 47.7262 84.9101 47.5674 84.5847C47.4085 84.2593 47.1773 83.9743 46.8906 83.7531Z" fill="black"></path>
</g>
</g>
</g>
<defs>
<clipPath>
<rect width="85" height="85" fill="white" transform="translate(40.332 40)"></rect>
</clipPath>
</defs>
</svg>