<svg xmlns="http://www.w3.org/2000/svg" width="166" height="165" viewBox="0 0 166 165" fill="none">
<g clip-path="url(#svg1745348937_3595_clip0_4548_4351)">
<path d="M68.2656 88.1797L69.2865 85.8381C70.3897 86.6512 71.8552 87.0739 73.3042 87.0739C74.3745 87.0739 75.0496 86.6674 75.0496 86.0495C75.0331 84.3258 68.6443 85.6755 68.5949 81.35C68.5785 79.1547 70.5544 77.4635 73.3536 77.4635C75.0166 77.4635 76.6797 77.87 77.8652 78.7969L76.9102 81.1874C75.8235 80.5044 74.4733 80.0165 73.1889 80.0165C72.3162 80.0165 71.7399 80.4231 71.7399 80.9434C71.7564 82.6346 78.1945 81.7077 78.2604 85.8381C78.2604 88.0821 76.3339 89.6595 73.5676 89.6595C71.5423 89.6595 69.6817 89.1879 68.2656 88.1797ZM107.438 84.9925C106.927 85.8706 105.972 86.4723 104.869 86.4723C103.239 86.4723 101.922 85.1714 101.922 83.5615C101.922 81.9516 103.239 80.6507 104.869 80.6507C105.972 80.6507 106.927 81.2524 107.438 82.1305L110.254 80.5857C109.2 78.7319 107.174 77.4635 104.869 77.4635C101.461 77.4635 98.6945 80.1954 98.6945 83.5615C98.6945 86.9276 101.461 89.6595 104.869 89.6595C107.191 89.6595 109.2 88.4074 110.254 86.5373L107.438 84.9925ZM79.6765 72.4062H83.2002V89.4318H79.6765V72.4062ZM111.637 72.4062V89.4318H115.16V84.3258L119.343 89.4318H123.854L118.536 83.3664L123.459 77.7074H119.145L115.16 82.407V72.4062H111.637ZM93.6724 85.025C93.162 85.8543 92.1082 86.4723 90.9226 86.4723C89.2925 86.4723 87.9753 85.1714 87.9753 83.5615C87.9753 81.9516 89.2925 80.6507 90.9226 80.6507C92.1082 80.6507 93.162 81.3012 93.6724 82.1468V85.025ZM93.6724 77.7074V79.0896C93.0961 78.1302 91.6636 77.4635 90.1652 77.4635C87.0696 77.4635 84.6327 80.1629 84.6327 83.5452C84.6327 86.9276 87.0696 89.6595 90.1652 89.6595C91.6636 89.6595 93.0961 88.9928 93.6724 88.0334V89.4156H97.1961V77.7074H93.6724Z" fill="black"></path>
<path d="M46.4798 85.0098C46.4798 86.1968 45.5083 87.1563 44.3063 87.1563C43.1043 87.1563 42.1328 86.1968 42.1328 85.0098C42.1328 83.8227 43.1043 82.8633 44.3063 82.8633H46.4798V85.0098ZM47.5665 85.0098C47.5665 83.8227 48.538 82.8633 49.74 82.8633C50.942 82.8633 51.9135 83.8227 51.9135 85.0098V90.376C51.9135 91.5631 50.942 92.5225 49.74 92.5225C48.538 92.5225 47.5665 91.5631 47.5665 90.376V85.0098Z" fill="black"></path>
<path d="M49.7409 76.3906C48.5389 76.3906 47.5674 75.4312 47.5674 74.2441C47.5674 73.0571 48.5389 72.0977 49.7409 72.0977C50.9429 72.0977 51.9144 73.0571 51.9144 74.2441V76.3906H49.7409ZM49.7409 77.4801C50.9429 77.4801 51.9144 78.4396 51.9144 79.6266C51.9144 80.8137 50.9429 81.7731 49.7409 81.7731H44.2907C43.0887 81.7731 42.1172 80.8137 42.1172 79.6266C42.1172 78.4396 43.0887 77.4801 44.2907 77.4801H49.7409Z" fill="black"></path>
<path d="M58.4533 79.6266C58.4533 78.4396 59.4248 77.4801 60.6268 77.4801C61.8288 77.4801 62.8003 78.4396 62.8003 79.6266C62.8003 80.8137 61.8288 81.7731 60.6268 81.7731H58.4533V79.6266ZM57.3665 79.6266C57.3665 80.8137 56.395 81.7731 55.193 81.7731C53.991 81.7731 53.0195 80.8137 53.0195 79.6266V74.2441C53.0195 73.0571 53.991 72.0977 55.193 72.0977C56.395 72.0977 57.3665 73.0571 57.3665 74.2441V79.6266Z" fill="black"></path>
<path d="M55.193 88.2295C56.395 88.2295 57.3665 89.1889 57.3665 90.376C57.3665 91.5631 56.395 92.5225 55.193 92.5225C53.991 92.5225 53.0195 91.5631 53.0195 90.376V88.2295H55.193ZM55.193 87.1563C53.991 87.1563 53.0195 86.1968 53.0195 85.0098C53.0195 83.8227 53.991 82.8633 55.193 82.8633H60.6432C61.8452 82.8633 62.8167 83.8227 62.8167 85.0098C62.8167 86.1968 61.8452 87.1563 60.6432 87.1563H55.193Z" fill="black"></path>
</g>
<defs>
<clipPath>
<rect width="82" height="20.6519" fill="white" transform="translate(42 72)"></rect>
</clipPath>
</defs>
</svg>