<svg xmlns="http://www.w3.org/2000/svg" width="166" height="165" viewBox="0 0 166 165" fill="none">
<g clip-path="url(#svg-1996803402_12475_clip0_4548_4169)">
<path d="M92.6036 80.0117L96.9374 74.5962H92.4751L90.3477 77.2674L92.6036 80.0117Z" fill="black"></path>
<path d="M86.6244 85.9926L86.6262 86.0522H94.9735V85.9895C94.9735 85.9895 94.8482 85.9672 94.7172 85.9455C94.1587 85.8722 93.7155 85.722 93.404 85.5905C92.1448 85.0741 91.0866 84.0458 90.1867 82.9826C90.1867 82.9826 89.5177 83.8596 88.9237 84.5081C88.0375 85.4781 87.0787 85.8803 86.6268 85.9926H86.6244ZM82.2192 85.9926C81.6749 85.8524 81.1617 85.565 81.0022 85.4595C79.2508 84.3647 78.0915 82.457 78.0915 80.1961C78.0915 76.7231 80.901 73.9154 84.3721 73.9154C86.085 73.9154 87.7843 74.5689 89.1403 76.1559L89.2167 76.2489L89.2713 76.2055L82.4942 64.4821L70.0508 86.0547H82.2149L82.2198 85.9926H82.2192ZM84.3715 77.4157C85.2354 77.4157 85.9802 77.8005 86.522 78.4372C86.7144 78.6737 86.7789 78.7351 86.9254 78.9294C87.4392 79.581 87.6198 79.8187 87.9227 80.2004C87.6198 80.5647 87.4454 80.8185 86.9254 81.4801C86.7727 81.6694 86.7144 81.7352 86.522 81.9642C85.9802 82.6072 85.2354 82.982 84.3715 82.982C82.838 82.982 81.5961 81.7352 81.5961 80.201C81.5936 78.6706 82.838 77.4126 84.3715 77.4126" fill="black"></path>
<path d="M82.4568 92.3256V91.749C82.4568 91.749 82.4357 91.7869 82.337 91.8229C82.1676 91.8942 81.933 91.9569 81.6835 92.0091C81.3782 92.0742 80.7656 92.1946 80.7824 92.6266C80.8029 93.0709 81.2547 93.169 81.6047 93.1324C82.1452 93.0784 82.4351 92.7581 82.4568 92.3256V92.3256ZM80.9257 91.003L79.9141 90.9739C79.9526 90.7734 79.9526 89.5303 81.6916 89.557C82.6169 89.5756 83.5565 89.8716 83.5565 91.0471V93.4365C83.5565 93.5345 83.5677 93.6189 83.608 93.7157C83.6465 93.7871 83.6769 93.8088 83.7421 93.8659H82.5561C82.5561 93.8659 82.5182 93.7803 82.4903 93.5916C82.4717 93.4632 82.4686 93.4632 82.4568 93.3676C82.4568 93.3676 82.283 93.9336 81.3422 93.9727C80.536 94.0074 79.7124 93.5395 79.6597 92.7445C79.6299 92.2225 79.97 91.8049 80.3765 91.605C80.6936 91.4511 81.1566 91.345 81.82 91.2624C82.2247 91.2004 82.4245 91.1371 82.4394 90.9C82.4636 90.5674 82.1241 90.3874 81.7499 90.3775C80.8525 90.3626 80.9257 91.003 80.9257 91.003V91.003ZM74.0555 90.5034H74.6302V92.6303C74.6302 92.9747 74.6625 93.411 74.9933 93.6549C75.3271 93.8957 75.7759 93.8659 76.1991 93.8597H76.5522L76.5572 93.0095H76.286C76.1004 93.0095 75.9912 92.9965 75.8963 92.9226C75.7541 92.8134 75.7647 92.6297 75.7647 92.5297V90.5034H76.5305V89.7171H75.7647V88.4064L74.6302 88.3977V89.7109L74.0555 89.7171V90.5034V90.5034ZM77.2144 93.8659H78.3644V91.9712C78.3644 91.4462 78.4687 90.9652 78.9398 90.7318C79.1849 90.6089 79.3798 90.5953 79.6528 90.6313V89.6464C79.6193 89.6222 79.4871 89.6066 79.3587 89.6035C78.9863 89.5837 78.6344 89.7947 78.4234 90.1751C78.4048 90.2074 78.3911 90.2341 78.3564 90.3173L78.3173 89.7184H77.2188V93.8659H77.2144ZM71.8293 90.4867C71.0089 90.491 70.9276 91.2873 70.9276 91.2873H72.764C72.764 91.2873 72.6436 90.478 71.8293 90.4867ZM69.7596 91.9104C69.6957 90.648 70.5143 89.5613 71.8101 89.5812C74.0958 89.6135 73.981 92.099 73.981 92.099H70.8972C70.8972 92.099 70.9263 93.0864 71.9169 93.0864C72.5673 93.0914 72.7565 92.5589 72.7565 92.5589L73.937 92.6297C73.937 92.6297 73.6087 93.959 71.9212 94.0112C71.1411 94.0323 69.8353 93.4563 69.7596 91.9104V91.9104ZM68.8814 93.8659V89.117H70.6396V88.0855H65.918V89.117H67.6532V93.8659H68.8814V93.8659ZM92.7566 92.3256V91.7521C92.7566 91.7521 92.7311 91.7869 92.6349 91.8285C92.4611 91.8967 92.2315 91.9606 91.9833 92.0097C91.673 92.0742 91.0648 92.1971 91.0834 92.6266C91.097 93.0709 91.5538 93.169 91.9032 93.1361C92.445 93.0833 92.7348 92.7606 92.7603 92.3256H92.7566ZM91.2274 91.0061L90.2095 90.9739C90.2486 90.7765 90.2486 89.534 91.9895 89.5613C92.9142 89.5787 93.8575 89.8741 93.8575 91.0471V93.4365C93.8575 93.5345 93.8687 93.6196 93.909 93.7157C93.9426 93.7871 93.9736 93.8088 94.0357 93.8659H92.8552C92.8552 93.8659 92.8143 93.7803 92.7913 93.5916C92.769 93.4632 92.7665 93.4632 92.7597 93.3676C92.7597 93.3676 92.5778 93.9336 91.6438 93.9727C90.8395 94.0074 90.0116 93.5395 89.9625 92.7445C89.9284 92.2225 90.2735 91.8067 90.6781 91.605C90.9921 91.4536 91.4551 91.345 92.1136 91.2649C92.5232 91.2054 92.7206 91.1445 92.7417 90.9C92.7597 90.5736 92.4227 90.3936 92.0503 90.3824C91.1504 90.3719 91.2249 91.0061 91.2249 91.0061H91.2274ZM86.9898 89.0866V90.8665H87.8512C88.483 90.8851 88.9621 90.6151 88.9559 89.9722C88.9497 89.3323 88.5184 89.0562 87.8264 89.0866H86.9898ZM86.9873 93.8659H85.7616V88.0905H87.7618C89.1644 88.039 90.1388 88.7036 90.1388 89.9592C90.1388 91.5001 89.0341 91.8967 87.6383 91.8719H86.9873V93.8659V93.8659ZM94.6768 93.8659L94.6755 88.0942H95.8311V91.2438L97.2778 89.7022H98.6363L97.0972 91.2947L98.8169 93.8659H97.4255L96.2755 92.0289L95.8311 92.477V93.8659H94.6768" fill="black"></path>
<path d="M100.346 87.7519H100.631C100.873 87.7519 101.139 87.737 101.139 87.4503C101.139 87.1654 100.873 87.1499 100.631 87.1549H100.346V87.7519ZM99.9547 86.8235H100.778C101.289 86.8235 101.53 87.0543 101.53 87.4652C101.53 87.8363 101.309 88.0169 101.019 88.0541L101.576 88.9565H101.164L100.631 88.0827H100.346V88.9565H99.9547V86.8235ZM100.673 89.4381C101.52 89.4381 102.208 88.7499 102.208 87.9021C102.208 87.0543 101.52 86.3673 100.673 86.3673C99.8237 86.3673 99.1373 87.0543 99.1373 87.9021C99.1373 88.7499 99.8237 89.4381 100.673 89.4381V89.4381ZM100.673 86.0365C101.701 86.0365 102.539 86.8737 102.539 87.9021C102.539 88.9305 101.701 89.7695 100.673 89.7695C99.6431 89.7695 98.8047 88.9305 98.8047 87.9021C98.8047 86.8737 99.6431 86.0365 100.673 86.0365Z" fill="black"></path>
<path fill-rule="evenodd" clip-rule="evenodd" d="M82.8245 60.8361C70.859 60.8361 61.1525 70.5364 61.1525 82.5081C61.1525 94.4798 70.8528 104.18 82.8245 104.18C94.79 104.18 104.496 94.4798 104.496 82.5081C104.496 70.5364 94.79 60.8361 82.8245 60.8361ZM114.426 82.5081C114.426 99.9598 100.276 114.11 82.8245 114.11C65.3727 114.11 51.2227 99.9598 51.2227 82.5081C51.2227 65.0563 65.3727 50.9062 82.8245 50.9062C100.276 50.9062 114.426 65.0563 114.426 82.5081ZM58.2487 78.6036C58.2344 79.4781 57.5263 80.1763 56.6357 80.1601C55.7581 80.1459 55.068 79.4222 55.0817 78.549C55.0984 77.669 55.8152 76.972 56.6903 76.9857C57.5809 77.0018 58.2648 77.7236 58.2487 78.6036ZM109 80.1601C108.109 80.1763 107.4 79.4781 107.383 78.6036C107.368 77.7236 108.054 77.0018 108.945 76.9857C109.822 76.972 110.537 77.669 110.553 78.549C110.567 79.4222 109.875 80.1459 109 80.1601ZM60.9747 92.1494L61.6847 93.2441L59.2326 95.8706L59.2413 95.8842L62.7844 94.9384L63.3914 95.8731L61.0038 98.7689L61.0119 98.7825L64.5116 97.5996L65.1738 98.6168L59.7458 100.245L59.165 99.3491L61.6691 96.2951L61.6605 96.2821L57.8523 97.3259L57.2907 96.4633L60.9747 92.1494ZM66.7072 99.7865L65.7955 99.0101L62.2717 103.153L63.1846 103.929L64.7076 102.138L66.4807 103.645L64.959 105.436L65.8719 106.212L69.3945 102.07L68.481 101.293L67.1665 102.839L65.3946 101.331L66.7072 99.7865ZM71.1975 104.815L69.8303 106.008L71.0082 106.623L71.1975 104.815ZM71.5202 103.198L72.3997 103.657L71.9814 109.574L70.7823 108.948L70.8996 107.709L69.0266 106.733L68.092 107.545L66.9202 106.933L71.5202 103.198ZM73.5833 105.418L75.0659 105.871L73.7912 110.061L74.9374 110.409L76.2134 106.22L77.6986 106.673L78.007 105.657L73.8917 104.405L73.5833 105.418ZM79.3413 107.982L78.3681 107.845L79.2327 105.779L80.3287 105.934L79.3413 107.982ZM82.8748 107.079C83.1665 107.085 83.5481 107.205 83.7374 107.454L84.574 106.568C84.1179 106.153 83.5295 105.983 82.9145 105.975C81.8477 105.957 80.8311 106.549 80.8125 107.708C80.7964 108.749 81.633 109.028 82.3455 109.266C82.8741 109.443 83.3344 109.597 83.3278 110.022C83.3216 110.407 82.8797 110.585 82.4881 110.577C82.0891 110.571 81.6925 110.373 81.4523 110.046L80.5847 110.971C81.0917 111.455 81.7037 111.672 82.4031 111.683C83.5239 111.7 84.5082 111.139 84.5281 109.925C84.545 108.819 83.7038 108.557 82.9987 108.337C82.49 108.179 82.0522 108.043 82.0587 107.627C82.0649 107.221 82.5353 107.074 82.8748 107.079ZM94.1886 108.861C93.6332 109.431 92.9443 109.821 92.1847 110.069C90.5717 110.599 89.0505 109.928 88.505 108.269C87.9626 106.614 88.7886 105.169 90.4016 104.64C91.2171 104.373 92.0016 104.317 92.6768 104.629L92.1629 105.767C91.7502 105.547 91.3226 105.501 90.7467 105.691C89.776 106.01 89.3714 106.918 89.6873 107.883C90.005 108.845 90.8696 109.337 91.8396 109.018C92.3355 108.856 92.6551 108.596 92.8295 108.411L92.5533 107.571L91.6261 107.875L91.2817 106.825L93.3024 106.161L94.1886 108.861ZM98.3556 103.659C98.9036 104.512 98.7423 105.494 97.8827 106.047C97.025 106.6 96.0649 106.341 95.5132 105.49C94.964 104.637 95.1278 103.656 95.9861 103.101C96.8463 102.549 97.8064 102.807 98.3556 103.659ZM99.4032 102.986C98.4574 101.521 96.8153 101.253 95.3872 102.172C93.9604 103.091 93.5248 104.698 94.4681 106.163C95.412 107.629 97.0548 107.896 98.4816 106.978C99.9097 106.057 100.345 104.452 99.4032 102.986ZM103.512 101.473C104.201 100.719 104.108 99.7284 103.359 99.0451C102.609 98.3612 101.615 98.3562 100.926 99.1109C100.238 99.8656 100.332 100.855 101.079 101.539C101.827 102.223 102.822 102.228 103.512 101.473ZM100.11 98.3649C101.254 97.1119 102.91 96.9493 104.198 98.126C105.485 99.3021 105.472 100.965 104.329 102.218C103.184 103.471 101.527 103.633 100.239 102.458C98.9534 101.282 98.964 99.6186 100.11 98.3649ZM107.144 95.998L106.855 96.5473L104.002 95.0386L104.331 94.4148C104.805 93.5174 105.646 92.9986 106.59 93.4963C107.683 94.0754 107.664 95.0119 107.144 95.998ZM103.303 93.9916L102.464 95.5803L107.27 98.1243L108.186 96.3921C108.944 94.9591 108.782 93.2474 107.226 92.4251C105.466 91.4954 104.123 92.4437 103.303 93.9916ZM63.5974 63.6509L64.169 63.0942C64.4731 62.8006 64.6742 62.4047 64.3217 62.0385C63.9288 61.6363 63.4671 61.9777 63.1388 62.2979L62.6975 62.7243L63.5974 63.6509ZM61.1311 62.8366L62.5784 61.426C63.3901 60.6384 64.3142 60.2493 65.2135 61.1715C66.0997 62.0851 65.7522 62.9707 64.9317 63.7669L64.3055 64.3789L65.7826 65.8987L64.9218 66.736L61.1311 62.8366ZM68.6133 59.5867L68.0125 59.9566L67.3615 58.9065L68.0268 58.4932C68.4004 58.2642 68.8603 58.0749 69.1476 58.5373C69.4592 59.0406 68.9838 59.3527 68.6133 59.5867ZM67.5979 57.5672L65.8068 58.6744L68.6747 63.2974L69.6919 62.6693L68.5462 60.8199L69.0496 60.5065L71.1621 61.7558L72.3823 61.0011L69.9972 59.7754C70.5763 59.259 70.6104 58.5366 70.2089 57.8875C69.5417 56.815 68.545 56.9826 67.5979 57.5672ZM75.6114 58.9011C76.5889 58.6007 77.0134 57.7008 76.718 56.7333C76.4207 55.7595 75.5692 55.25 74.5911 55.5485C73.6149 55.8464 73.1904 56.7488 73.4858 57.717C73.7818 58.687 74.6352 59.1965 75.6114 58.9011ZM74.269 54.491C75.8926 53.9958 77.3988 54.702 77.9077 56.369C78.416 58.0341 77.5577 59.4597 75.9335 59.9562C74.3112 60.4508 72.8031 59.7476 72.2967 58.0776C71.7859 56.4124 72.6467 54.9856 74.269 54.491ZM78.9888 54.5932L80.5384 54.5032L80.809 58.8742L82.0037 58.7979L81.7362 54.4287L83.284 54.3344L83.2189 53.275L78.9248 53.54L78.9888 54.5932ZM85.3931 53.2718L89.046 53.8297L88.876 54.9233L86.4109 54.5466L86.2594 55.5488L88.5886 55.902L88.4204 56.998L86.0906 56.6405L85.9237 57.7365L88.5272 58.1281L88.3621 59.2241L84.5732 58.647L85.3931 53.2718ZM93.7535 56.5185C94.1669 56.6861 94.4244 56.9616 94.5411 57.3179L95.6787 56.9622C95.4714 56.243 94.8365 55.7651 94.2742 55.5367C92.7034 54.9006 91.1383 55.474 90.4847 57.0851C89.8331 58.7006 90.5611 60.1969 92.1356 60.833C92.827 61.1098 93.6499 61.1222 94.3121 60.6909L93.6642 59.6297C93.298 59.881 92.8549 59.9307 92.4068 59.7501C91.6019 59.423 91.2605 58.4908 91.6379 57.5506C92.0177 56.6141 92.9151 56.1796 93.7535 56.5185ZM98.2343 58.9011L96.9521 58.0242L97.5479 57.1509L101.103 59.5689L100.505 60.4489L99.2248 59.5732L96.7585 63.1908L95.768 62.5156L98.2343 58.9011ZM103.345 62.9492C103.548 63.1602 103.731 63.5183 103.687 63.8268L104.906 63.7939C104.879 63.1807 104.585 62.6408 104.157 62.1976C103.416 61.4268 102.282 61.1283 101.445 61.9339C100.696 62.6561 101.088 63.4457 101.422 64.1184C101.669 64.6176 101.885 65.0523 101.579 65.3473C101.302 65.6117 100.865 65.4286 100.592 65.1419C100.316 64.8545 100.178 64.4387 100.237 64.0341L98.9738 64.0701C98.9862 64.7726 99.263 65.3584 99.7502 65.8618C100.528 66.6704 101.62 66.9733 102.492 66.1293C103.29 65.3615 102.882 64.5804 102.54 63.9259C102.293 63.4539 102.081 63.0478 102.38 62.7599C102.675 62.4738 103.11 62.7066 103.345 62.9492Z" fill="black"></path>
</g>
<defs>
<clipPath>
<rect width="63.2051" height="63.2051" fill="white" transform="translate(51.2305 50.8984)"></rect>
</clipPath>
</defs>
</svg>