<svg xmlns="http://www.w3.org/2000/svg" width="166" height="165" viewBox="0 0 166 165" fill="none">
<path d="M51.1427 87.8679C51.4469 88.6761 51.8682 89.3671 52.4065 89.941C52.9449 90.515 53.5827 90.9542 54.3199 91.2587C55.0571 91.5633 55.8588 91.7155 56.7248 91.7155C57.5674 91.7155 58.3573 91.5574 59.0945 91.2411C59.8318 90.9248 60.4754 90.4797 61.0254 89.9059C61.5754 89.3319 62.0026 88.6468 62.3069 87.8503C62.6111 87.0538 62.7632 86.1637 62.7632 85.1798V70H66.4495V94.5968H62.7984V92.3128C61.9792 93.1795 61.0137 93.8471 59.902 94.3157C58.7902 94.7842 57.5908 95.0185 56.3035 95.0185C54.9927 95.0185 53.7699 94.79 52.6347 94.3332C51.4996 93.8764 50.5165 93.2265 49.6857 92.3831C48.8549 91.5397 48.1995 90.5267 47.7197 89.3436C47.2399 88.1607 47 86.843 47 85.3906V70H50.6863V85.1798C50.6863 86.1637 50.8384 87.0596 51.1427 87.8679Z" fill="black"></path>
<path d="M72.7997 70V78.9602C73.6189 78.1404 74.5668 77.4904 75.6434 77.0101C76.72 76.5298 77.8903 76.2897 79.1541 76.2897C80.4649 76.2897 81.6935 76.5357 82.8404 77.0276C83.9872 77.5195 84.9819 78.1872 85.8245 79.0305C86.6671 79.8739 87.3342 80.8694 87.8257 82.0173C88.3172 83.1652 88.5629 84.3833 88.5629 85.6717C88.5629 86.96 88.3172 88.1723 87.8257 89.3084C87.3342 90.4446 86.6671 91.4344 85.8245 92.2776C84.9819 93.1209 83.9872 93.7886 82.8404 94.2805C81.6935 94.7725 80.4648 95.0184 79.1541 95.0184C77.8903 95.0184 76.7142 94.7783 75.6259 94.298C74.5376 93.8178 73.5838 93.1678 72.7646 92.3479V94.5967H69.2539V70H72.7997ZM73.2034 88.0962C73.5194 88.8459 73.9583 89.5018 74.52 90.064C75.0817 90.6262 75.7371 91.0714 76.486 91.3993C77.235 91.7273 78.0424 91.8912 78.9084 91.8912C79.7511 91.8912 80.5468 91.7273 81.2957 91.3993C82.0446 91.0714 82.6941 90.6263 83.2442 90.064C83.7942 89.5019 84.233 88.8459 84.5607 88.0962C84.8884 87.3466 85.0522 86.5385 85.0522 85.6717C85.0522 84.8049 84.8884 83.9909 84.5607 83.2296C84.233 82.4682 83.7942 81.8065 83.2442 81.2443C82.6941 80.6821 82.0447 80.2428 81.2957 79.9266C80.5467 79.6104 79.751 79.4522 78.9084 79.4522C78.0659 79.4522 77.2701 79.6103 76.5212 79.9266C75.7722 80.2429 75.1169 80.6821 74.5551 81.2443C73.9935 81.8065 73.5487 82.4682 73.2211 83.2296C72.8934 83.9909 72.7296 84.8049 72.7296 85.6717C72.7295 86.5385 72.8875 87.3466 73.2034 88.0962Z" fill="black"></path>
<path d="M90.5692 82.0595C91.0372 80.935 91.681 79.9453 92.5001 79.0903C93.3192 78.2353 94.2906 77.5618 95.414 77.0699C96.5375 76.578 97.7545 76.332 99.0652 76.332C100.352 76.332 101.546 76.5663 102.646 77.0347C103.746 77.5033 104.694 78.1533 105.49 78.985C106.286 79.8165 106.906 80.8005 107.35 81.9365C107.795 83.0727 108.018 84.3084 108.018 85.6437V86.8033H93.448C93.5651 87.5295 93.7992 88.203 94.1502 88.8236C94.5013 89.4444 94.9401 89.9832 95.4667 90.44C95.9933 90.8969 96.5901 91.2541 97.2572 91.5117C97.9243 91.7694 98.6322 91.8983 99.3812 91.8983C101.511 91.8983 103.231 91.0198 104.542 89.2629L107.105 91.1603C106.215 92.355 105.115 93.2921 103.805 93.9714C102.494 94.6507 101.02 94.9904 99.3813 94.9904C98.0471 94.9904 96.8009 94.756 95.6423 94.2876C94.4838 93.8191 93.4774 93.1632 92.6231 92.3198C91.7689 91.4764 91.096 90.4867 90.6045 89.3506C90.113 88.2145 89.8672 86.9788 89.8672 85.6436C89.867 84.3786 90.1012 83.1839 90.5692 82.0595ZM95.5018 80.6715C94.5071 81.5031 93.8459 82.61 93.5183 83.9921H104.437C104.132 82.61 103.483 81.5031 102.488 80.6715C101.493 79.8399 100.329 79.4241 98.995 79.4241C97.6609 79.4241 96.4965 79.8399 95.5018 80.6715Z" fill="black"></path>
<path d="M114.646 81.0641C113.897 81.884 113.522 82.9967 113.522 84.4023V94.5925H109.977V76.6719H113.487V78.8856C113.932 78.1594 114.511 77.5855 115.225 77.1638C115.939 76.7421 116.787 76.5312 117.77 76.5312H118.999V79.8343H117.525C116.354 79.8343 115.395 80.2442 114.646 81.0641Z" fill="black"></path>
</svg>