<svg xmlns="http://www.w3.org/2000/svg" width="166" height="165" viewBox="0 0 166 165" fill="none">
<mask style="mask-type: luminance; animation-play-state: paused;" maskUnits="userSpaceOnUse" x="51" y="71" width="64" height="22">
<path d="M114.436 71.6016H51.2305V92.5358H114.436V71.6016Z" fill="white"></path>
</mask>
<g mask="url(#svg-811889525_1554_mask0_3709_2115)">
<path fill-rule="evenodd" clip-rule="evenodd" d="M60.9133 75.2279L51.2305 91.6039V92.1797H67.075V88.5244H57.9317L67.4159 72.1485V71.6016H52.3095V75.2279H60.9133ZM67.6311 83.6333V83.8933C67.6311 89.3193 71.3174 92.5358 76.3822 92.5358C80.9664 92.5358 83.8512 90.4887 84.3963 86.8175H80.0046C79.716 88.247 78.6583 89.1893 76.5105 89.1893C73.9781 89.1893 72.4714 87.5647 72.3432 84.738H84.4283V83.4385C84.4283 77.3626 80.5816 74.7959 76.2541 74.7959C71.3815 74.7959 67.6311 78.2723 67.6311 83.6333ZM76.2541 78.0449C78.466 78.0449 79.7481 79.2796 79.9086 81.8465H72.4072C72.76 79.442 74.1704 78.0449 76.2541 78.0449ZM86.4558 75.1867H91.1038V78.4357C92.1618 76.1614 93.7965 74.9593 96.5214 74.9267V79.3129C93.0914 79.2803 91.1038 80.4177 91.1038 83.6667V92.1792H86.4558V75.1867ZM110.461 83.6294C110.461 80.9874 108.34 78.8382 105.734 78.8382C103.127 78.8382 101.006 80.9874 101.006 83.6294C101.006 86.2713 103.127 88.4204 105.734 88.4204C108.34 88.4204 110.461 86.2713 110.461 83.6294ZM97.0313 83.6294C97.0313 78.7582 100.927 74.8092 105.734 74.8092C110.539 74.8092 114.436 78.7582 114.436 83.6294C114.436 88.5007 110.539 92.4494 105.734 92.4494C100.927 92.4494 97.0313 88.5007 97.0313 83.6294Z" fill="black"></path>
</g>
</svg>