<svg xmlns="http://www.w3.org/2000/svg" width="630" height="630" viewBox="0 0 630 630" fill="none">
<g clip-path="url(#svg468003968_43055_clip0_4533_101624)">
<g clip-path="url(#svg468003968_43055_clip1_4533_101624)">
<path fill-rule="evenodd" clip-rule="evenodd" d="M315 626C382.434 626 444.855 604.538 495.805 568.072L405.798 446.759C380.002 464.569 348.719 475 315 475C280.213 475 248.018 463.898 221.767 445.044L133.297 567.427C184.411 604.285 247.17 626 315 626ZM218.547 442.67C179.943 413.46 155 367.143 155 315C155 298.684 157.442 282.939 161.981 268.11L18.5281 220.78C9.09143 250.5 4 282.156 4 315C4 417.495 53.5815 508.409 130.068 565.067L218.547 442.67ZM163.199 264.3C184.103 201.686 242.662 156.303 312 155.028V4.01417C175.795 5.30129 60.5243 94.1466 19.7633 216.976L163.199 264.3ZM316 155.003V4.00157C452.966 4.43269 569.09 93.4028 610.138 216.678L466.699 263.998C445.507 200.939 386.099 155.432 316 155.003ZM467.926 267.806L611.377 220.482C620.874 250.288 626 282.046 626 315C626 417.891 576.034 509.113 499.043 565.723L409.062 444.445C449.025 415.356 475 368.211 475 315C475 298.573 472.524 282.724 467.926 267.806ZM315 630C488.97 630 630 488.97 630 315C630 141.03 488.97 0 315 0C141.03 0 0 141.03 0 315C0 488.97 141.03 630 315 630ZM471 315C471 401.156 401.156 471 315 471C228.844 471 159 401.156 159 315C159 228.844 228.844 159 315 159C401.156 159 471 228.844 471 315Z" fill="white" fill-opacity="0.3"></path>
</g>
<g clip-path="url(#svg468003968_43055_clip2_4533_101624)">
<path fill-rule="evenodd" clip-rule="evenodd" d="M402.871 89L394.391 110.01L399.491 112.07L407.971 91.06L402.871 89ZM417.83 110.959L413.99 118.769L414 118.779L418.74 121.109L423.09 112.269C423.44 111.559 423.69 110.809 423.86 110.009C424.02 109.209 424.03 108.439 423.89 107.689C423.74 106.939 423.42 106.229 422.92 105.559C422.42 104.879 421.69 104.309 420.73 103.839C420.23 103.599 419.73 103.429 419.22 103.349C418.72 103.269 418.23 103.239 417.75 103.269C417.27 103.299 416.82 103.389 416.4 103.549C415.98 103.709 415.6 103.899 415.28 104.119L415.22 104.089L416.19 102.109L411.62 99.8594L404.59 114.159L409.33 116.489L413.14 108.739C413.34 108.329 413.58 107.969 413.87 107.649C414.16 107.329 414.48 107.069 414.83 106.889C415.18 106.699 415.55 106.599 415.95 106.599C416.35 106.589 416.76 106.689 417.18 106.899C417.6 107.109 417.91 107.359 418.11 107.659C418.31 107.959 418.41 108.289 418.43 108.639C418.45 108.989 418.4 109.359 418.29 109.759C418.18 110.159 418.03 110.559 417.83 110.959ZM437.698 119.289C437.538 118.719 437.288 118.169 436.938 117.629C436.588 117.089 436.138 116.659 435.598 116.329C435.178 116.079 434.738 115.919 434.288 115.869C433.828 115.819 433.488 115.989 433.238 116.389C433.008 116.769 433.038 117.169 433.328 117.569C433.618 117.969 434.148 118.539 434.898 119.269C435.338 119.689 435.768 120.159 436.158 120.669C436.558 121.189 436.868 121.739 437.088 122.319C437.308 122.899 437.398 123.509 437.368 124.139C437.338 124.769 437.118 125.409 436.718 126.069C436.198 126.929 435.588 127.549 434.878 127.929C434.168 128.309 433.428 128.519 432.648 128.549C431.868 128.579 431.088 128.459 430.288 128.209C429.498 127.949 428.748 127.619 428.058 127.199C426.948 126.529 425.968 125.689 425.108 124.679C424.258 123.679 423.688 122.609 423.398 121.489L427.528 120.359C427.668 121.039 427.938 121.699 428.338 122.349C428.748 122.999 429.278 123.519 429.938 123.919C430.298 124.139 430.718 124.269 431.178 124.309C431.638 124.349 431.998 124.149 432.268 123.719C432.518 123.299 432.488 122.859 432.178 122.389C431.858 121.919 431.308 121.299 430.508 120.519C430.098 120.119 429.718 119.689 429.348 119.219C428.988 118.749 428.708 118.249 428.528 117.709C428.338 117.169 428.268 116.599 428.308 115.999C428.348 115.399 428.558 114.779 428.948 114.139C429.448 113.319 430.038 112.729 430.738 112.359C431.428 111.999 432.168 111.799 432.938 111.759C433.708 111.729 434.478 111.829 435.248 112.059C436.018 112.289 436.728 112.599 437.388 112.999C438.408 113.619 439.308 114.379 440.098 115.299C440.878 116.209 441.418 117.189 441.708 118.239L437.698 119.289ZM445.93 119.039L436.91 132.179L441.24 135.149L450.26 122.009L445.93 119.039ZM452.61 118.839C452.94 118.639 453.22 118.369 453.45 118.039H453.44C453.67 117.709 453.82 117.349 453.89 116.969C453.96 116.589 453.95 116.219 453.88 115.859C453.8 115.499 453.65 115.149 453.43 114.819C453.2 114.479 452.92 114.199 452.59 113.969C452.24 113.729 451.87 113.569 451.48 113.499C451.09 113.429 450.71 113.419 450.34 113.469C449.97 113.519 449.62 113.649 449.3 113.859C448.98 114.059 448.71 114.319 448.49 114.639C448.05 115.289 447.9 116.009 448.05 116.799C448.21 117.589 448.64 118.229 449.34 118.709C449.67 118.939 450.04 119.099 450.43 119.189C450.83 119.279 451.2 119.289 451.57 119.229C451.93 119.169 452.28 119.039 452.61 118.839ZM458.151 146.182C457.191 147.402 456.171 148.332 455.111 148.962C454.051 149.592 452.961 149.952 451.861 150.042C450.751 150.132 449.631 149.972 448.481 149.542C447.341 149.112 446.211 148.472 445.101 147.592C443.991 146.722 442.991 145.662 442.091 144.412C441.191 143.162 440.561 141.882 440.211 140.572L444.591 139.252C444.771 140.262 445.121 141.182 445.651 142.022C446.171 142.852 446.791 143.552 447.491 144.102C448.701 145.052 449.841 145.432 450.921 145.252C452.001 145.072 452.961 144.452 453.791 143.392L454.381 142.642L454.301 142.582C453.521 142.782 452.681 142.772 451.791 142.562C450.901 142.352 450.031 141.912 449.201 141.252C448.241 140.502 447.531 139.662 447.071 138.742C446.601 137.822 446.341 136.862 446.301 135.872C446.251 134.882 446.401 133.892 446.741 132.902C447.091 131.912 447.601 130.982 448.291 130.112C448.981 129.242 449.761 128.512 450.651 127.942C451.541 127.362 452.481 126.972 453.461 126.772C454.451 126.572 455.451 126.582 456.471 126.802C457.491 127.022 458.471 127.502 459.411 128.242C460.201 128.862 460.831 129.612 461.301 130.502C461.771 131.392 461.961 132.342 461.871 133.352L461.921 133.392L463.191 131.782L467.091 134.852L458.161 146.192L458.151 146.182ZM458.281 137.942C458.611 137.522 458.851 137.062 459.021 136.562C459.181 136.062 459.241 135.562 459.211 135.062C459.171 134.562 459.041 134.072 458.801 133.622C458.561 133.162 458.211 132.752 457.741 132.382C457.271 132.012 456.791 131.772 456.301 131.652C455.811 131.532 455.321 131.522 454.851 131.612C454.371 131.702 453.921 131.882 453.481 132.162C453.041 132.442 452.651 132.802 452.311 133.232C451.981 133.652 451.731 134.102 451.561 134.602C451.391 135.092 451.321 135.582 451.341 136.072C451.361 136.562 451.481 137.042 451.701 137.502C451.921 137.962 452.271 138.372 452.741 138.742C453.211 139.112 453.701 139.362 454.221 139.482C454.741 139.602 455.241 139.622 455.721 139.542C456.201 139.462 456.671 139.282 457.121 139.012C457.571 138.742 457.961 138.382 458.301 137.952L458.281 137.942ZM467.913 157.266L467.908 157.271L467.898 157.251L467.913 157.266ZM467.913 157.266L473.848 151.001C474.158 150.671 474.428 150.341 474.658 150.001C474.888 149.661 475.048 149.321 475.128 148.971C475.208 148.621 475.208 148.281 475.108 147.941C475.018 147.601 474.798 147.271 474.458 146.951C473.788 146.321 473.058 146.071 472.258 146.201C471.458 146.331 470.718 146.751 470.058 147.451L464.138 153.701L460.328 150.091L476.968 132.531L480.778 136.141L473.708 143.591L473.758 143.631C474.458 143.421 475.268 143.401 476.188 143.581C477.108 143.761 477.968 144.231 478.768 144.991C479.558 145.741 480.088 146.511 480.358 147.291C480.628 148.081 480.718 148.851 480.638 149.601C480.548 150.361 480.308 151.091 479.918 151.801C479.518 152.511 479.048 153.151 478.508 153.731L471.728 160.881L467.913 157.266ZM482.679 164.099L487.178 159.989L489.689 162.739L492.569 160.109L490.049 157.349L493.149 154.519L489.679 150.719L486.579 153.549L484.879 151.679L481.999 154.309L483.729 156.199L478.759 160.739C478.129 161.319 477.619 161.909 477.239 162.519C476.859 163.129 476.629 163.769 476.549 164.429C476.469 165.099 476.579 165.789 476.869 166.499C477.169 167.219 477.669 167.969 478.389 168.759C478.769 169.169 479.169 169.549 479.619 169.889C480.069 170.229 480.459 170.499 480.799 170.679L483.589 168.039C483.389 167.959 483.189 167.819 482.959 167.639C482.729 167.459 482.529 167.269 482.359 167.079C481.859 166.529 481.649 166.019 481.729 165.559C481.809 165.089 482.129 164.609 482.679 164.099ZM497.33 171.689C497.47 172.309 497.52 172.909 497.47 173.499V173.519L501.59 173.899C501.68 172.819 501.51 171.709 501.09 170.589C500.66 169.469 500.08 168.439 499.33 167.509C498.85 166.909 498.29 166.369 497.64 165.889C496.99 165.409 496.3 165.049 495.57 164.819C494.83 164.589 494.08 164.529 493.3 164.629C492.52 164.739 491.76 165.089 491.01 165.689C490.42 166.159 490.01 166.669 489.77 167.219C489.52 167.769 489.39 168.329 489.39 168.899C489.38 169.469 489.47 170.029 489.65 170.599C489.83 171.169 490.04 171.709 490.29 172.219C490.77 173.229 491.08 173.999 491.22 174.549C491.36 175.099 491.23 175.519 490.85 175.829C490.45 176.149 490.04 176.209 489.62 176.009C489.2 175.809 488.86 175.539 488.59 175.209C488.11 174.609 487.79 173.939 487.63 173.189C487.47 172.439 487.44 171.729 487.55 171.039L483.29 170.689C483.18 171.839 483.35 173.039 483.81 174.269C484.27 175.499 484.91 176.629 485.72 177.639C486.23 178.279 486.81 178.849 487.47 179.359C488.13 179.869 488.83 180.249 489.57 180.489C490.31 180.729 491.08 180.789 491.87 180.669C492.66 180.549 493.45 180.179 494.23 179.549C494.83 179.069 495.25 178.539 495.5 177.959C495.75 177.379 495.87 176.789 495.86 176.159C495.85 175.529 495.75 174.909 495.55 174.289C495.35 173.669 495.11 173.089 494.84 172.539C494.38 171.589 494.09 170.879 493.95 170.399C493.81 169.919 493.92 169.539 494.27 169.259C494.63 168.969 495.02 168.929 495.43 169.129C495.84 169.329 496.2 169.629 496.51 170.009C496.91 170.509 497.19 171.069 497.33 171.689ZM550.469 317.768C549.149 317.808 548.029 317.588 547.109 317.128C546.189 316.658 545.439 316.018 544.859 315.208C544.279 314.388 543.849 313.448 543.559 312.358C543.269 311.278 543.109 310.148 543.079 308.978L542.999 306.258L534.459 306.498L534.309 301.028L556.959 300.398L557.189 308.718C557.219 309.958 557.129 311.118 556.919 312.198C556.699 313.278 556.339 314.228 555.809 315.048C555.289 315.868 554.589 316.508 553.719 316.998C552.849 317.478 551.759 317.738 550.459 317.778L550.469 317.768ZM550.279 312.298C550.809 312.288 551.249 312.168 551.579 311.938C551.909 311.718 552.169 311.418 552.359 311.048C552.539 310.678 552.659 310.268 552.709 309.808C552.759 309.348 552.779 308.868 552.769 308.378L552.699 305.978L547.359 306.128L547.419 308.428C547.429 308.938 547.489 309.428 547.589 309.898C547.689 310.368 547.849 310.778 548.069 311.148C548.289 311.518 548.579 311.798 548.939 312.008C549.299 312.208 549.739 312.308 550.279 312.288V312.298ZM545.882 331.129C545.852 331.349 545.792 331.579 545.722 331.809V331.819L550.342 332.249C550.392 332.129 550.432 331.959 550.462 331.759C550.492 331.559 550.522 331.349 550.522 331.139C550.572 330.159 550.352 329.289 549.872 328.519C549.392 327.749 548.752 327.139 547.962 326.699V326.639L550.262 326.739L550.492 321.689L534.592 320.969L534.352 326.209L542.512 326.579C542.832 326.589 543.202 326.669 543.622 326.819C544.042 326.969 544.422 327.199 544.772 327.499C545.122 327.799 545.412 328.199 545.642 328.689C545.872 329.179 545.972 329.779 545.942 330.479C545.932 330.689 545.912 330.909 545.882 331.129ZM533.879 333.441L549.739 334.941L549.239 340.161L533.379 338.661L533.879 333.441ZM554.279 341.031C553.879 340.991 553.509 340.881 553.169 340.681C552.829 340.491 552.549 340.251 552.319 339.961C552.089 339.671 551.919 339.331 551.809 338.951C551.699 338.561 551.659 338.171 551.699 337.771C551.779 336.921 552.129 336.241 552.749 335.721C553.369 335.201 554.069 334.981 554.849 335.051C555.229 335.091 555.589 335.201 555.929 335.381C556.269 335.561 556.549 335.801 556.779 336.101C557.009 336.401 557.189 336.741 557.309 337.111C557.439 337.491 557.479 337.891 557.439 338.311C557.399 338.711 557.289 339.091 557.109 339.451C556.929 339.811 556.689 340.111 556.409 340.351C556.129 340.591 555.809 340.771 555.439 340.901C555.069 341.031 554.689 341.071 554.289 341.031H554.279ZM539.769 355.569L531.179 354.139L531.159 354.129L530.289 359.339L540.009 360.959C540.789 361.089 541.589 361.119 542.399 361.049C543.209 360.979 543.949 360.769 544.629 360.419C545.309 360.069 545.899 359.549 546.399 358.879C546.909 358.199 547.239 357.339 547.419 356.289C547.509 355.749 547.519 355.219 547.459 354.709C547.399 354.199 547.279 353.719 547.119 353.269C546.949 352.819 546.739 352.419 546.459 352.059C546.179 351.699 545.889 351.399 545.599 351.149V351.089L547.779 351.449L548.619 346.429L532.899 343.809L532.029 349.019L540.549 350.439C540.989 350.519 541.409 350.649 541.799 350.829C542.189 351.009 542.519 351.239 542.799 351.529C543.079 351.809 543.279 352.139 543.399 352.519C543.529 352.899 543.549 353.309 543.469 353.779C543.389 354.249 543.239 354.609 543.009 354.889C542.779 355.169 542.499 355.359 542.169 355.479C541.829 355.599 541.459 355.669 541.049 355.669C540.639 355.679 540.209 355.639 539.769 355.569ZM537.42 375.64C537.86 375.44 538.26 375.12 538.61 374.68C538.96 374.24 539.2 373.76 539.33 373.24C539.46 372.7 539.48 372.19 539.37 371.7C539.26 371.21 539.06 370.77 538.78 370.37C538.49 369.97 538.14 369.62 537.7 369.33C537.27 369.04 536.78 368.82 536.24 368.69C535.7 368.56 535.17 368.51 534.66 368.56C534.14 368.61 533.66 368.75 533.22 368.98C532.78 369.21 532.4 369.52 532.08 369.92C531.76 370.31 531.53 370.79 531.4 371.35C531.27 371.87 531.24 372.4 531.31 372.96C531.38 373.52 531.56 374 531.86 374.4L527.71 376.37C527.25 375.57 526.97 374.62 526.87 373.52C526.77 372.42 526.87 371.3 527.14 370.16C527.44 368.94 527.91 367.84 528.55 366.88C529.19 365.91 529.96 365.13 530.87 364.52C531.78 363.92 532.79 363.52 533.92 363.32C535.05 363.12 536.25 363.19 537.53 363.5C538.79 363.81 539.88 364.32 540.78 365.02C541.68 365.72 542.4 366.55 542.92 367.51C543.44 368.47 543.76 369.52 543.88 370.68C544 371.83 543.91 373.01 543.61 374.21C543.47 374.77 543.28 375.31 543.04 375.83C542.8 376.35 542.53 376.85 542.23 377.31C541.93 377.77 541.6 378.19 541.23 378.55C540.87 378.91 540.49 379.21 540.1 379.44L537.41 375.64H537.42ZM540.6 383.119L525.39 378.359L523.82 383.369L539.03 388.129L540.6 383.119ZM542.76 389.449C543.05 389.709 543.38 389.899 543.77 390.019L543.79 390.009C544.18 390.129 544.57 390.169 544.95 390.119C545.33 390.069 545.69 389.959 546.01 389.779C546.34 389.609 546.63 389.359 546.88 389.049C547.13 388.739 547.32 388.389 547.44 387.999C547.56 387.589 547.6 387.189 547.56 386.799C547.51 386.409 547.41 386.039 547.25 385.699C547.09 385.359 546.86 385.069 546.57 384.819C546.28 384.569 545.95 384.389 545.58 384.279C544.82 384.049 544.09 384.119 543.38 384.499C542.67 384.879 542.18 385.479 541.93 386.289C541.8 386.679 541.76 387.069 541.79 387.469C541.82 387.869 541.92 388.239 542.08 388.569C542.25 388.899 542.47 389.189 542.76 389.449ZM523.128 407.989C522.098 407.579 521.168 407.029 520.348 406.329C519.518 405.629 518.868 404.839 518.388 403.949C517.908 403.059 517.618 402.089 517.528 401.039C517.438 399.989 517.618 398.919 518.058 397.809C518.418 396.899 518.948 396.109 519.638 395.439C520.328 394.769 521.078 394.339 521.898 394.129L521.918 394.069L513.148 390.579L515.088 385.699L537.028 394.429L535.178 399.069L533.368 398.349L533.328 398.439C533.738 399.129 534.008 399.969 534.138 400.949C534.268 401.929 534.108 402.959 533.678 404.059C533.248 405.129 532.658 406.019 531.898 406.729C531.138 407.439 530.278 407.949 529.318 408.269C528.368 408.589 527.348 408.729 526.278 408.679C525.208 408.629 524.158 408.399 523.128 407.989ZM525.008 403.259C525.488 403.449 525.978 403.559 526.498 403.589C527.008 403.619 527.498 403.559 527.958 403.409C528.418 403.259 528.848 403.009 529.238 402.659C529.628 402.309 529.938 401.849 530.168 401.269C530.388 400.709 530.478 400.179 530.428 399.649C530.378 399.119 530.248 398.639 530.008 398.189C529.778 397.739 529.458 397.339 529.068 396.989C528.678 396.639 528.248 396.369 527.768 396.179C527.288 395.989 526.788 395.889 526.268 395.879C525.748 395.869 525.248 395.939 524.768 396.109C524.288 396.279 523.858 396.529 523.458 396.879C523.068 397.229 522.758 397.679 522.538 398.239C522.308 398.809 522.218 399.359 522.258 399.889C522.298 400.409 522.448 400.889 522.688 401.319C522.928 401.749 523.258 402.129 523.658 402.469C524.068 402.799 524.508 403.069 524.978 403.259H525.008ZM535.33 419.719L513.59 409.109L511.25 413.909L532.99 424.519L535.33 419.719ZM507.85 436.04C507.76 435.985 507.668 435.932 507.575 435.88C507.509 435.843 507.443 435.805 507.378 435.767C507.352 435.751 507.326 435.736 507.3 435.72C507.11 435.61 506.95 435.5 506.79 435.39L506.79 435.39L512.56 425.38C512.15 425.19 511.73 425.11 511.31 425.12C510.88 425.13 510.47 425.23 510.06 425.4C509.65 425.57 509.28 425.81 508.93 426.11C508.58 426.41 508.29 426.77 508.06 427.18C507.64 427.9 507.43 428.59 507.41 429.24C507.39 429.89 507.5 430.5 507.75 431.06L503.93 433.07C503.36 431.88 503.13 430.61 503.23 429.25C503.34 427.89 503.79 426.51 504.6 425.11C505.2 424.08 505.92 423.19 506.78 422.45C507.64 421.71 508.57 421.18 509.59 420.84C510.61 420.51 511.69 420.4 512.82 420.52C513.95 420.64 515.1 421.04 516.27 421.72C517.4 422.37 518.31 423.15 519 424.07C519.69 424.99 520.16 425.96 520.42 426.99C520.68 428.02 520.71 429.09 520.54 430.2C520.37 431.31 519.98 432.39 519.37 433.44C518.78 434.46 518.07 435.29 517.24 435.94C516.41 436.59 515.49 437.04 514.49 437.27C513.49 437.51 512.43 437.53 511.31 437.34C510.19 437.15 509.04 436.71 507.85 436.03V436.04ZM512.01 432.86C512.73 433.28 513.48 433.41 514.26 433.25C515.04 433.09 515.69 432.57 516.21 431.66C516.47 431.22 516.63 430.77 516.71 430.32C516.78 429.87 516.78 429.44 516.71 429.02C516.63 428.6 516.48 428.22 516.25 427.87C516.02 427.52 515.74 427.23 515.4 427.01L512.03 432.86H512.01ZM503.838 449.828C503.278 450.148 502.718 450.358 502.138 450.478H502.148L502.938 454.538C503.998 454.318 505.008 453.848 505.968 453.128C506.918 452.408 507.748 451.558 508.428 450.578C508.868 449.948 509.228 449.248 509.508 448.498C509.788 447.738 509.928 446.978 509.948 446.208C509.968 445.438 509.818 444.698 509.498 443.978C509.178 443.258 508.628 442.628 507.838 442.078C507.228 441.648 506.628 441.398 506.028 441.318C505.428 441.238 504.858 441.278 504.308 441.428C503.758 441.578 503.238 441.828 502.748 442.158C502.258 442.488 501.798 442.848 501.378 443.228C500.538 443.978 499.888 444.488 499.398 444.778C498.918 445.058 498.468 445.058 498.068 444.778C497.648 444.488 497.478 444.118 497.548 443.658C497.618 443.198 497.778 442.798 498.018 442.448C498.458 441.818 499.018 441.318 499.688 440.958C500.358 440.588 501.038 440.358 501.728 440.268L500.868 436.078C499.728 436.298 498.638 436.798 497.578 437.588C496.518 438.378 495.618 439.298 494.878 440.368C494.408 441.038 494.028 441.758 493.718 442.528C493.418 443.308 493.248 444.078 493.228 444.858C493.208 445.638 493.358 446.388 493.698 447.118C494.038 447.838 494.618 448.498 495.438 449.068C496.068 449.508 496.688 449.768 497.318 449.838C497.938 449.908 498.548 449.848 499.148 449.668C499.738 449.488 500.308 449.208 500.848 448.848C501.388 448.488 501.878 448.098 502.328 447.678C503.108 446.968 503.708 446.488 504.128 446.218C504.548 445.958 504.938 445.948 505.308 446.208C505.698 446.478 505.848 446.838 505.768 447.288C505.688 447.738 505.508 448.168 505.228 448.568C504.858 449.098 504.398 449.518 503.838 449.828ZM391.481 539.152C392.131 539.552 392.871 539.782 393.701 539.852C394.531 539.922 395.281 539.832 395.941 539.592C396.281 539.472 396.621 539.312 396.941 539.122C397.271 538.932 397.541 538.702 397.761 538.432C397.981 538.162 398.131 537.852 398.221 537.512C398.311 537.172 398.281 536.792 398.131 536.372C398.001 536.012 397.811 535.742 397.571 535.552C397.331 535.372 397.031 535.242 396.681 535.162C396.321 535.092 395.921 535.052 395.461 535.042C395.001 535.042 394.501 535.042 393.941 535.072C393.131 535.092 392.281 535.102 391.391 535.102C390.501 535.102 389.651 534.972 388.831 534.722C388.011 534.472 387.261 534.072 386.581 533.512C385.901 532.952 385.361 532.142 384.981 531.082C384.531 529.862 384.371 528.722 384.501 527.662C384.621 526.602 384.961 525.652 385.511 524.792C386.061 523.932 386.771 523.182 387.651 522.542C388.531 521.902 389.491 521.392 390.531 521.012C392.051 520.452 393.621 520.182 395.241 520.192C396.861 520.192 398.321 520.522 399.621 521.162L397.511 525.822C396.751 525.372 395.871 525.082 394.861 524.972C393.851 524.852 392.931 524.952 392.081 525.252C391.701 525.392 391.341 525.572 391.011 525.782C390.681 525.992 390.411 526.242 390.211 526.522C390.011 526.802 389.881 527.122 389.831 527.482C389.781 527.842 389.831 528.232 389.991 528.652C390.141 529.052 390.361 529.352 390.661 529.562C390.961 529.772 391.341 529.922 391.801 530.012C392.261 530.102 392.791 530.152 393.411 530.132C393.934 530.123 394.514 530.101 395.151 530.076L395.511 530.062C396.271 530.032 397.031 530.052 397.791 530.112C398.551 530.172 399.271 530.352 399.961 530.632C400.641 530.912 401.261 531.332 401.821 531.892C402.381 532.452 402.831 533.212 403.181 534.172C403.611 535.352 403.741 536.452 403.571 537.472C403.401 538.492 403.021 539.412 402.441 540.242C401.861 541.072 401.121 541.782 400.231 542.402C399.341 543.012 398.391 543.502 397.391 543.862C396.191 544.302 394.881 544.532 393.471 544.552C392.061 544.572 390.721 544.322 389.461 543.802L391.471 539.152H391.481ZM374.55 532.99L376.21 538.86L376.2 538.85L372.6 539.87L373.66 543.63L377.26 542.61L378.4 546.64L383.36 545.24L382.22 541.21L384.65 540.52L383.59 536.76L381.13 537.46L379.29 530.98C379.06 530.16 378.75 529.44 378.38 528.82C378 528.2 377.54 527.71 376.98 527.35C376.43 526.98 375.76 526.77 374.99 526.71C374.22 526.65 373.32 526.77 372.29 527.06C371.76 527.21 371.24 527.41 370.73 527.65C370.23 527.89 369.81 528.13 369.5 528.35L370.61 532.03C370.77 531.9 370.98 531.77 371.25 531.65C371.52 531.53 371.77 531.44 372.02 531.37C372.74 531.17 373.29 531.21 373.67 531.49C374.05 531.77 374.35 532.27 374.55 532.99ZM359.109 542.521C359.349 542.531 359.589 542.521 359.809 542.501C360.029 542.471 360.249 542.431 360.459 542.391C361.149 542.241 361.699 541.981 362.109 541.631C362.519 541.281 362.829 540.891 363.029 540.481C363.229 540.061 363.349 539.641 363.379 539.191C363.409 538.751 363.389 538.371 363.329 538.061L361.559 530.081L366.679 528.941L370.129 544.481L365.189 545.581L364.689 543.331H364.629C364.409 544.231 363.989 545.001 363.379 545.671C362.759 546.341 361.979 546.771 361.019 546.991C360.809 547.041 360.609 547.071 360.399 547.091C360.199 547.111 360.029 547.121 359.899 547.101L359.109 542.521ZM342.711 535.569L342.411 533.379H342.401L337.391 534.078L339.581 549.859L344.781 549.139L343.601 540.608C343.471 539.699 343.601 538.869 343.981 538.129C344.371 537.389 345.011 536.958 345.921 536.828C346.411 536.768 346.811 536.799 347.131 536.939C347.451 537.079 347.731 537.299 347.951 537.589C348.171 537.889 348.341 538.229 348.461 538.618C348.581 539.009 348.671 539.429 348.731 539.868L349.921 548.429L355.151 547.699L353.791 537.939C353.681 537.139 353.471 536.359 353.161 535.618C352.851 534.879 352.431 534.239 351.891 533.699C351.351 533.159 350.691 532.749 349.911 532.469C349.131 532.189 348.211 532.118 347.151 532.268C346.601 532.349 346.091 532.489 345.611 532.708C345.141 532.928 344.711 533.179 344.331 533.469C343.951 533.759 343.631 534.079 343.371 534.439C343.111 534.799 342.911 535.179 342.771 535.569H342.711ZM323.92 545.761C324.24 546.131 324.67 546.411 325.19 546.611C325.72 546.811 326.24 546.901 326.78 546.861C327.33 546.831 327.83 546.681 328.26 546.431C328.69 546.181 329.06 545.861 329.35 545.471C329.65 545.081 329.87 544.631 330.02 544.131C330.17 543.631 330.23 543.101 330.2 542.551C330.17 542.001 330.05 541.481 329.85 541.001C329.65 540.521 329.37 540.101 329.02 539.751C328.67 539.401 328.26 539.131 327.78 538.941C327.31 538.761 326.79 538.681 326.21 538.721C325.68 538.751 325.16 538.891 324.65 539.121C324.14 539.351 323.74 539.671 323.44 540.081L320.32 536.711C320.94 536.031 321.76 535.481 322.78 535.051C323.8 534.621 324.9 534.381 326.07 534.301C327.33 534.221 328.51 534.341 329.62 534.661C330.73 534.981 331.71 535.481 332.56 536.161C333.41 536.851 334.09 537.701 334.62 538.711C335.15 539.721 335.45 540.891 335.53 542.211C335.61 543.511 335.45 544.691 335.05 545.771C334.65 546.841 334.08 547.771 333.32 548.551C332.56 549.331 331.65 549.961 330.59 550.421C329.53 550.881 328.37 551.151 327.14 551.231C326.57 551.271 325.99 551.251 325.42 551.181C324.85 551.111 324.3 551.001 323.76 550.851C323.23 550.701 322.73 550.511 322.28 550.271C321.83 550.031 321.43 549.761 321.09 549.461L323.91 545.761H323.92ZM310.691 540.989L310.591 547.089L306.861 547.029L306.801 550.929L310.541 550.989L310.471 555.179L315.621 555.259L315.691 551.069L318.221 551.109L318.281 547.209L315.721 547.169L315.831 540.429C315.841 539.569 315.761 538.799 315.581 538.099C315.401 537.399 315.101 536.799 314.671 536.289C314.241 535.779 313.661 535.389 312.941 535.109C312.221 534.839 311.331 534.689 310.261 534.669C309.701 534.659 309.151 534.699 308.591 534.789C308.031 534.869 307.571 534.979 307.211 535.099V538.939C307.401 538.859 307.641 538.799 307.931 538.759C308.221 538.719 308.491 538.709 308.751 538.709C309.491 538.729 310.011 538.919 310.291 539.299C310.571 539.679 310.701 540.239 310.691 540.989ZM293.31 534.102L293.13 536.302H293.19C293.41 535.962 293.69 535.642 294.03 535.352C294.37 535.062 294.75 534.812 295.18 534.612C295.61 534.412 296.09 534.262 296.6 534.152C297.11 534.042 297.64 534.012 298.2 534.062C299.26 534.152 300.15 534.422 300.85 534.862C301.55 535.302 302.11 535.852 302.51 536.492C302.92 537.132 303.19 537.852 303.32 538.652C303.46 539.442 303.49 540.242 303.42 541.052L302.59 550.872L297.33 550.432L298.05 541.822C298.09 541.372 298.09 540.952 298.06 540.542C298.03 540.132 297.94 539.762 297.78 539.422C297.63 539.092 297.41 538.822 297.13 538.612C296.85 538.402 296.46 538.282 295.97 538.242C295.06 538.162 294.33 538.442 293.8 539.082C293.26 539.722 292.96 540.502 292.88 541.412L292.16 549.992L286.93 549.552L288.26 533.672L293.3 534.092L293.31 534.102ZM271.261 542.848C271.041 542.788 270.821 542.708 270.601 542.608L270.621 542.618L269.641 547.158C269.761 547.228 269.911 547.288 270.111 547.338C270.208 547.363 270.306 547.385 270.405 547.406C270.453 547.416 270.501 547.425 270.549 547.435L270.632 547.451L270.721 547.468C271.681 547.628 272.581 547.518 273.401 547.128C274.221 546.738 274.901 546.178 275.431 545.448H275.491L275.111 547.718L280.101 548.548L282.701 532.848L277.521 531.988L276.181 540.048C276.131 540.368 276.011 540.718 275.811 541.118C275.611 541.518 275.341 541.868 275.001 542.178C274.651 542.478 274.231 542.728 273.711 542.898C273.201 543.068 272.591 543.098 271.901 542.988L271.9 542.988C271.69 542.948 271.48 542.908 271.261 542.848ZM252.359 534.41C252.409 534.2 252.459 533.99 252.509 533.79C252.559 533.58 252.619 533.39 252.689 533.21L263.909 535.95C263.979 535.5 263.939 535.08 263.809 534.67C263.679 534.26 263.469 533.89 263.189 533.55C262.909 533.21 262.579 532.91 262.189 532.66C261.799 532.41 261.379 532.23 260.919 532.12C260.109 531.92 259.389 531.91 258.759 532.07C258.129 532.23 257.579 532.51 257.109 532.9L254.109 529.8C255.089 528.92 256.249 528.34 257.579 528.06C258.909 527.78 260.359 527.83 261.939 528.22C263.099 528.5 264.149 528.95 265.099 529.57C266.049 530.19 266.829 530.94 267.429 531.82C268.039 532.7 268.439 533.71 268.639 534.83C268.839 535.95 268.779 537.17 268.459 538.47C268.149 539.73 267.649 540.83 266.969 541.75C266.279 542.67 265.479 543.4 264.559 543.93C263.639 544.46 262.619 544.8 261.509 544.95C260.399 545.09 259.249 545.02 258.069 544.74C256.929 544.46 255.929 544.01 255.069 543.4C254.209 542.78 253.529 542.03 253.019 541.14C252.509 540.25 252.199 539.24 252.059 538.11C251.929 536.98 252.029 535.75 252.349 534.43L252.359 534.41ZM256.829 539.78C256.47 539.071 256.379 538.322 256.579 537.513L263.129 539.11C263.009 539.5 262.819 539.85 262.539 540.17C262.259 540.49 261.939 540.75 261.559 540.94C261.189 541.13 260.769 541.26 260.319 541.31C259.869 541.37 259.399 541.33 258.899 541.21C257.889 540.96 257.199 540.48 256.829 539.78ZM236.856 532.963L236.85 532.951L236.86 532.961L236.856 532.963ZM233.18 534.861L236.856 532.963C237.125 533.478 237.493 533.954 237.95 534.401C238.41 534.851 238.94 535.171 239.54 535.381C240.01 535.541 240.47 535.591 240.92 535.541C241.37 535.491 241.68 535.251 241.83 534.801C241.97 534.381 241.86 534.001 241.49 533.671C241.12 533.341 240.48 532.901 239.59 532.351C239.07 532.041 238.55 531.671 238.05 531.261C237.55 530.841 237.13 530.371 236.79 529.851C236.45 529.331 236.23 528.761 236.12 528.141C236.02 527.521 236.09 526.851 236.33 526.121C236.65 525.171 237.12 524.431 237.72 523.911C238.33 523.381 239.01 523.021 239.76 522.831C240.51 522.631 241.3 522.581 242.13 522.651C242.96 522.731 243.76 522.901 244.53 523.161C245.76 523.581 246.9 524.181 247.95 524.981C249 525.771 249.79 526.691 250.32 527.721L246.54 529.721C246.26 529.091 245.85 528.501 245.31 527.951C244.77 527.411 244.14 527.011 243.41 526.771C243.01 526.631 242.57 526.591 242.12 526.651C241.67 526.711 241.35 526.981 241.19 527.471C241.03 527.931 241.16 528.361 241.57 528.751C241.98 529.141 242.66 529.631 243.61 530.221C244.09 530.521 244.57 530.861 245.02 531.241C245.48 531.621 245.86 532.051 246.15 532.531C246.45 533.011 246.64 533.551 246.73 534.151C246.82 534.741 246.75 535.401 246.51 536.101C246.2 537.011 245.75 537.721 245.15 538.221C244.55 538.731 243.88 539.081 243.14 539.281C242.4 539.481 241.62 539.551 240.82 539.491C240.02 539.431 239.25 539.281 238.53 539.031C237.4 538.651 236.35 538.101 235.39 537.381C234.43 536.661 233.69 535.821 233.18 534.861ZM96.101 406.498C95.741 407.168 95.561 407.918 95.541 408.758C95.521 409.598 95.661 410.328 95.951 410.978C96.101 411.308 96.281 411.638 96.481 411.948C96.691 412.268 96.941 412.518 97.221 412.718C97.511 412.918 97.821 413.048 98.171 413.118C98.521 413.188 98.891 413.128 99.301 412.948C99.651 412.788 99.911 412.588 100.081 412.338C100.251 412.088 100.361 411.788 100.411 411.418C100.461 411.048 100.471 410.648 100.451 410.198C100.431 409.748 100.381 409.238 100.321 408.678C100.241 407.868 100.181 407.028 100.121 406.138C100.071 405.248 100.131 404.398 100.331 403.558C100.521 402.728 100.871 401.948 101.381 401.238C101.891 400.518 102.661 399.938 103.701 399.478C104.891 398.948 106.021 398.718 107.081 398.768C108.141 398.818 109.121 399.098 110.011 399.588C110.901 400.078 111.701 400.738 112.401 401.578C113.101 402.408 113.671 403.338 114.121 404.348C114.781 405.828 115.151 407.378 115.251 408.988C115.351 410.598 115.121 412.078 114.571 413.418L109.781 411.618C110.181 410.838 110.411 409.938 110.461 408.918C110.511 407.908 110.361 406.988 109.991 406.168C109.831 405.798 109.631 405.458 109.391 405.138C109.161 404.818 108.891 404.568 108.601 404.388C108.311 404.208 107.981 404.098 107.621 404.068C107.261 404.038 106.871 404.118 106.461 404.298C106.071 404.468 105.781 404.718 105.591 405.028C105.401 405.348 105.281 405.728 105.211 406.188C105.151 406.648 105.141 407.188 105.191 407.808C105.241 408.428 105.311 409.128 105.401 409.898C105.481 410.658 105.511 411.418 105.501 412.178C105.491 412.938 105.361 413.678 105.131 414.378C104.891 415.078 104.511 415.728 103.991 416.318C103.471 416.908 102.741 417.408 101.811 417.828C100.661 418.338 99.571 418.538 98.541 418.438C97.511 418.338 96.571 418.018 95.701 417.488C94.841 416.958 94.071 416.278 93.401 415.428C92.731 414.578 92.181 413.668 91.751 412.698C91.231 411.528 90.921 410.238 90.811 408.828C90.701 407.418 90.861 406.068 91.291 404.778L96.071 406.478L96.101 406.498ZM105.601 383.949L103.481 377.809L103.471 377.819L97.3009 386.719L88.4909 383.259L90.5709 389.279L98.3409 391.979L98.3709 392.069L84.4609 396.869L86.1809 401.859L109.051 393.959L107.331 388.969L100.101 391.469L100.071 391.379L105.601 383.949ZM81.1107 375.04C81.5007 374.93 81.8907 374.91 82.2707 374.98C82.6507 375.04 83.0007 375.17 83.3207 375.36C83.6407 375.55 83.9207 375.81 84.1607 376.13C84.4007 376.45 84.5707 376.81 84.6807 377.2C84.9007 378.02 84.8207 378.79 84.4207 379.49C84.0207 380.19 83.4507 380.65 82.6807 380.85C82.3107 380.95 81.9307 380.97 81.5607 380.92C81.1907 380.87 80.8307 380.74 80.5107 380.54C80.1907 380.34 79.9107 380.08 79.6607 379.78C79.4107 379.47 79.2307 379.11 79.1207 378.7C79.0107 378.31 78.9907 377.91 79.0307 377.51C79.0807 377.11 79.1907 376.75 79.3707 376.43C79.5507 376.11 79.7907 375.82 80.0807 375.57C80.3807 375.32 80.7207 375.15 81.1107 375.04ZM102.871 375L87.4807 379.15L86.1107 374.08L101.501 369.93L102.871 375ZM77.0589 371.841L100.649 366.491L99.4689 361.281L75.8789 366.631L77.0589 371.841ZM98.76 357.82L74.97 362.21L74 356.96L97.79 352.57L98.76 357.82ZM84.7242 340.355L84.729 340.349V340.359L84.7242 340.355ZM81.419 337.869L84.7242 340.355C84.3765 340.824 84.108 341.361 83.899 341.969C83.699 342.579 83.639 343.199 83.719 343.829C83.779 344.319 83.929 344.749 84.179 345.139C84.419 345.529 84.779 345.689 85.239 345.639C85.679 345.579 85.969 345.319 86.109 344.839C86.239 344.359 86.359 343.599 86.469 342.549C86.519 341.939 86.629 341.319 86.779 340.689C86.939 340.059 87.179 339.469 87.489 338.939C87.809 338.409 88.229 337.959 88.739 337.589C89.249 337.219 89.889 336.989 90.649 336.899C91.649 336.779 92.509 336.869 93.249 337.189C93.989 337.509 94.609 337.959 95.109 338.549C95.619 339.139 96.009 339.829 96.299 340.609C96.589 341.389 96.789 342.179 96.889 342.989C97.049 344.279 97.009 345.569 96.749 346.859C96.489 348.149 96.009 349.259 95.309 350.189L91.859 347.659C92.309 347.129 92.659 346.509 92.909 345.789C93.159 345.069 93.239 344.329 93.149 343.569C93.099 343.149 92.939 342.739 92.689 342.349C92.439 341.959 92.059 341.799 91.549 341.859C91.059 341.919 90.739 342.219 90.569 342.759C90.399 343.299 90.259 344.119 90.139 345.229C90.079 345.799 89.979 346.369 89.839 346.939C89.699 347.519 89.469 348.049 89.169 348.519C88.859 348.999 88.469 349.409 87.969 349.749C87.479 350.089 86.859 350.309 86.119 350.399C85.169 350.519 84.329 350.419 83.619 350.099C82.909 349.779 82.289 349.329 81.789 348.749C81.289 348.169 80.889 347.499 80.589 346.759C80.289 346.009 80.089 345.259 79.999 344.499C79.849 343.309 79.889 342.129 80.119 340.949C80.349 339.769 80.779 338.739 81.419 337.869ZM147.452 171.952L142.892 170.522L137.372 177.332L139.782 181.422L136.032 186.042L124.422 164.392L127.772 160.262L151.292 167.222L147.462 171.942L147.452 171.952ZM130.722 166.222L134.952 173.352L138.542 168.932L130.732 166.222H130.722ZM151.049 150.95C151.569 150.74 152.079 150.67 152.559 150.72H152.589L152.179 146.09C151.729 146.09 151.259 146.16 150.759 146.29C150.259 146.41 149.759 146.6 149.269 146.85C148.769 147.1 148.289 147.39 147.819 147.72C147.349 148.05 146.909 148.43 146.509 148.84C145.649 149.73 144.979 150.7 144.499 151.76C144.029 152.82 143.769 153.89 143.739 154.98C143.699 156.07 143.899 157.14 144.329 158.2C144.759 159.26 145.439 160.24 146.369 161.15C147.319 162.07 148.329 162.73 149.399 163.13C150.469 163.53 151.549 163.7 152.639 163.63C153.729 163.57 154.789 163.28 155.829 162.76C156.869 162.24 157.819 161.53 158.699 160.63C159.519 159.78 160.159 158.86 160.629 157.86C161.089 156.86 161.329 155.9 161.329 154.98L156.749 154.59C156.799 155.09 156.719 155.59 156.499 156.11C156.279 156.63 155.979 157.08 155.609 157.46C155.209 157.87 154.769 158.17 154.299 158.35C153.819 158.53 153.339 158.61 152.839 158.59C152.349 158.57 151.859 158.45 151.389 158.23C150.919 158.01 150.489 157.71 150.089 157.32C149.689 156.93 149.379 156.5 149.149 156.03C148.919 155.56 148.779 155.08 148.739 154.59C148.699 154.1 148.749 153.62 148.899 153.14C149.049 152.66 149.319 152.23 149.709 151.83C150.079 151.45 150.529 151.15 151.049 150.95ZM164.808 145.982L160.733 141.447L163.508 138.942L160.898 136.042L158.118 138.542L155.318 135.422L151.488 138.872L154.288 141.992L152.408 143.682L155.018 146.582L156.918 144.872L161.428 149.882C161.998 150.522 162.588 151.032 163.198 151.422C163.798 151.802 164.438 152.042 165.098 152.122C165.758 152.202 166.448 152.102 167.168 151.812C167.888 151.522 168.648 151.022 169.438 150.312C169.848 149.942 170.228 149.532 170.578 149.092C170.928 148.652 171.198 148.262 171.378 147.922L168.758 145.112C168.668 145.302 168.538 145.512 168.348 145.732C168.168 145.952 167.978 146.152 167.788 146.322C167.228 146.822 166.718 147.032 166.258 146.942C165.788 146.862 165.308 146.542 164.808 145.982ZM164.829 127.702C164.729 127.332 164.559 126.982 164.299 126.672L164.289 126.652C164.029 126.332 163.729 126.092 163.379 125.922C163.039 125.752 162.679 125.652 162.309 125.622C161.939 125.592 161.559 125.642 161.179 125.762C160.789 125.882 160.439 126.072 160.129 126.332C159.799 126.602 159.549 126.922 159.369 127.272C159.189 127.622 159.069 127.992 159.019 128.362C158.959 128.732 158.989 129.102 159.099 129.472C159.209 129.842 159.389 130.172 159.629 130.472C160.129 131.092 160.789 131.432 161.589 131.502C162.399 131.582 163.129 131.342 163.789 130.802C164.099 130.552 164.359 130.242 164.549 129.892C164.749 129.542 164.869 129.182 164.909 128.812C164.959 128.442 164.929 128.072 164.829 127.702ZM163.159 134.172L173.259 146.502L177.319 143.172L167.219 130.842L163.159 134.172ZM187.739 135.342L183.159 138.672L168.719 129.462L173.409 126.062L182.199 132.452L182.279 132.392L178.929 122.052L183.459 118.762L187.749 135.342H187.739ZM188.441 111.041C188.381 110.661 188.251 110.291 188.031 109.951L188.051 109.961C187.831 109.621 187.561 109.341 187.241 109.131C186.921 108.921 186.571 108.771 186.211 108.701C185.841 108.621 185.471 108.631 185.071 108.701C184.671 108.781 184.301 108.921 183.961 109.141C183.601 109.371 183.311 109.651 183.091 109.981C182.871 110.311 182.711 110.651 182.611 111.021C182.511 111.381 182.501 111.751 182.561 112.131C182.621 112.511 182.751 112.861 182.961 113.181C183.381 113.851 183.991 114.261 184.781 114.431C185.561 114.601 186.321 114.461 187.041 114.001C187.391 113.781 187.671 113.511 187.911 113.181C188.141 112.851 188.301 112.511 188.391 112.151C188.481 111.791 188.501 111.421 188.441 111.041ZM186.001 117.271L194.551 130.721L198.981 127.911L190.431 114.461L186.001 117.271ZM201.238 112.62L204.268 117.92C204.638 118.57 205.048 118.99 205.478 119.17C205.918 119.35 206.458 119.26 207.108 118.89C207.328 118.76 207.558 118.61 207.788 118.43C208.018 118.25 208.198 118.08 208.318 117.91L210.278 121.21C210.028 121.5 209.688 121.83 209.248 122.18C208.818 122.54 208.358 122.86 207.878 123.13C206.948 123.66 206.108 123.99 205.348 124.11C204.588 124.24 203.888 124.19 203.258 123.97C202.628 123.75 202.058 123.39 201.548 122.88C201.038 122.37 200.568 121.75 200.148 121L196.808 115.15L194.588 116.42L192.648 113.03L194.848 111.78L192.768 108.14L197.238 105.59L199.318 109.23L202.568 107.37L204.508 110.76L201.258 112.62H201.238ZM208.228 100.042C208.208 99.6619 208.108 99.2819 207.928 98.9219L207.918 98.9319C207.738 98.5719 207.488 98.2719 207.188 98.0319C206.888 97.7919 206.558 97.6219 206.208 97.5119C205.858 97.4019 205.478 97.3619 205.078 97.4019C204.678 97.4419 204.298 97.5519 203.938 97.7319C203.558 97.9219 203.238 98.1719 202.988 98.4819C202.738 98.7919 202.548 99.1219 202.418 99.4719C202.278 99.8219 202.228 100.192 202.258 100.572C202.278 100.952 202.388 101.312 202.558 101.652C202.918 102.362 203.478 102.832 204.248 103.072C205.018 103.312 205.788 103.242 206.548 102.852C206.908 102.672 207.228 102.422 207.488 102.122C207.758 101.822 207.948 101.492 208.068 101.142C208.198 100.792 208.248 100.432 208.228 100.042ZM205.218 106.012L212.458 120.212L217.138 117.832L209.898 103.632L205.218 106.012ZM233.284 102.485L233.284 102.486L233.285 102.488C233.327 102.585 233.369 102.682 233.409 102.781C233.489 102.981 233.559 103.171 233.619 103.351L222.989 107.871C223.199 108.271 223.489 108.591 223.829 108.831C224.179 109.081 224.569 109.251 224.989 109.361C225.419 109.471 225.859 109.501 226.319 109.471C226.779 109.441 227.229 109.331 227.659 109.141C228.429 108.811 229.009 108.401 229.419 107.891C229.829 107.381 230.099 106.831 230.249 106.231L234.509 106.921C234.249 108.211 233.669 109.371 232.769 110.391C231.869 111.411 230.679 112.241 229.179 112.871C228.079 113.341 226.969 113.611 225.839 113.681C224.709 113.761 223.639 113.621 222.619 113.271C221.599 112.931 220.679 112.361 219.849 111.581C219.019 110.801 218.339 109.791 217.809 108.551C217.299 107.351 217.049 106.181 217.039 105.031C217.039 103.881 217.249 102.821 217.669 101.841C218.089 100.861 218.699 99.9813 219.499 99.2013C220.299 98.4213 221.259 97.7913 222.379 97.3113C223.459 96.8513 224.529 96.6113 225.589 96.5913C226.649 96.5713 227.649 96.7613 228.589 97.1713C229.529 97.5813 230.389 98.2013 231.169 99.0313C231.949 99.8613 232.609 100.901 233.139 102.151L233.159 102.191C233.199 102.291 233.241 102.388 233.284 102.485ZM227.919 102.221C227.589 101.451 227.069 100.901 226.359 100.551C225.639 100.211 224.809 100.241 223.839 100.651C223.369 100.851 222.969 101.111 222.639 101.421C222.309 101.731 222.049 102.081 221.869 102.461C221.679 102.841 221.579 103.241 221.549 103.661C221.519 104.081 221.569 104.481 221.709 104.861L227.919 102.221ZM242.561 94.2519C243.191 94.3319 243.781 94.4919 244.311 94.7419L244.321 94.7619L246.101 91.0219C245.111 90.5619 244.021 90.3419 242.821 90.3519C241.621 90.3619 240.451 90.5619 239.321 90.9419C238.591 91.1919 237.891 91.5319 237.221 91.9719C236.551 92.4219 235.981 92.9419 235.511 93.5519C235.041 94.1619 234.721 94.8419 234.551 95.6119C234.381 96.3719 234.451 97.2119 234.761 98.1219C235.001 98.8319 235.341 99.3919 235.771 99.8119C236.211 100.232 236.691 100.542 237.221 100.742C237.751 100.942 238.321 101.062 238.911 101.082C239.501 101.102 240.081 101.092 240.651 101.032C241.761 100.922 242.601 100.902 243.161 100.962C243.721 101.022 244.081 101.292 244.241 101.752C244.401 102.232 244.321 102.642 243.991 102.962C243.661 103.282 243.291 103.512 242.891 103.652C242.161 103.902 241.421 103.972 240.661 103.862C239.901 103.762 239.221 103.532 238.611 103.202L236.811 107.082C237.851 107.592 239.031 107.832 240.351 107.832C241.661 107.832 242.941 107.622 244.171 107.202C244.941 106.942 245.671 106.592 246.381 106.152C247.091 105.712 247.681 105.182 248.161 104.572C248.641 103.962 248.961 103.262 249.121 102.472C249.281 101.682 249.201 100.812 248.881 99.8619C248.631 99.1319 248.281 98.5519 247.821 98.1219C247.361 97.6919 246.841 97.3719 246.251 97.1619C245.661 96.9619 245.041 96.8419 244.391 96.8119C243.741 96.7819 243.111 96.8019 242.501 96.8719C241.461 96.9819 240.691 97.0219 240.191 96.9819C239.691 96.9419 239.371 96.7119 239.231 96.2919C239.081 95.8519 239.171 95.4619 239.501 95.1519C239.841 94.8319 240.231 94.6019 240.701 94.4419C241.311 94.2319 241.931 94.1719 242.561 94.2519Z" fill="white"></path>
</g>
</g>
<defs>
<clipPath id="svg468003968_43055_clip0_4533_101624">
<rect width="630" height="630" fill="white"></rect>
</clipPath>
<clipPath id="svg468003968_43055_clip1_4533_101624">
<rect width="630" height="630" fill="white"></rect>
</clipPath>
<clipPath id="svg468003968_43055_clip2_4533_101624">
<rect width="483.45" height="466.27" fill="white" transform="translate(74 89)"></rect>
</clipPath>
</defs>
</svg>