<svg width="630" height="630" viewBox="0 0 630 630" fill="none" id="svg-25331208_5878">
<g clip-path="url(#svg-25331208_5878_clip0_4520_3540)">
<g clip-path="url(#svg-25331208_5878_clip1_4520_3540)">
<rect x="170" y="170" width="290" height="290" rx="145" stroke="white" stroke-width="10"></rect>
<g filter="url(#svg-25331208_5878_filter0_d_4520_3540)">
<path fill-rule="evenodd" clip-rule="evenodd" d="M410.788 284.458L408.626 280.51H407.807V284.458H405.433V274.511H409.248C409.729 274.511 410.195 274.563 410.647 274.666C411.109 274.759 411.518 274.923 411.876 275.157C412.244 275.392 412.536 275.701 412.752 276.085C412.969 276.469 413.077 276.946 413.077 277.518C413.077 278.192 412.894 278.759 412.526 279.218C412.159 279.676 411.65 280.004 411 280.201L413.614 284.458H410.788ZM410.689 277.56C410.689 277.326 410.638 277.138 410.534 276.998C410.44 276.848 410.313 276.736 410.152 276.661C410.002 276.576 409.827 276.52 409.63 276.492C409.441 276.464 409.258 276.45 409.079 276.45H407.793V278.768H408.937C409.135 278.768 409.338 278.754 409.545 278.726C409.752 278.688 409.94 278.627 410.11 278.543C410.28 278.459 410.416 278.337 410.52 278.178C410.633 278.019 410.689 277.813 410.689 277.56Z" fill="white"></path>
<path fill-rule="evenodd" clip-rule="evenodd" d="M409.092 291.132C415.223 291.132 420.194 286.189 420.194 280.093C420.194 273.997 415.223 269.055 409.092 269.055C402.96 269.055 397.99 273.997 397.99 280.093C397.99 286.189 402.96 291.132 409.092 291.132ZM409.092 289.125C414.108 289.125 418.175 285.081 418.175 280.093C418.175 275.105 414.108 271.062 409.092 271.062C404.075 271.062 400.008 275.105 400.008 280.093C400.008 285.081 404.075 289.125 409.092 289.125Z" fill="white"></path>
<path d="M286.682 278.977H341.493V333.32H296.938L297.338 337.849H346.061V293.137L394.02 297.297L390.403 338.286L390.389 338.298L377.151 337.15L375.993 350.274L375.982 350.283L334.64 346.697L335.42 337.854H330.835L329.691 350.814L377.469 354.958L394.788 340.55L398.968 293.181L346.061 288.591V274.448H282.114V288.612L286.682 288.216V278.977Z" fill="white"></path>
<path d="M314.284 322.462C312.153 322.462 310.28 322.069 308.666 321.284C307.082 320.469 305.849 319.337 304.966 317.888C304.114 316.408 303.687 314.673 303.687 312.68V298.279C303.687 296.256 304.114 294.52 304.966 293.071C305.849 291.622 307.082 290.505 308.666 289.72C310.28 288.905 312.153 288.497 314.284 288.497C316.446 288.497 318.304 288.905 319.857 289.72C321.44 290.505 322.673 291.622 323.556 293.071C324.439 294.52 324.881 296.256 324.881 298.279H319.126C319.126 296.709 318.699 295.517 317.847 294.701C317.025 293.886 315.837 293.479 314.284 293.479C312.731 293.479 311.528 293.886 310.676 294.701C309.823 295.517 309.397 296.694 309.397 298.234V312.68C309.397 314.22 309.823 315.412 310.676 316.258C311.528 317.073 312.731 317.48 314.284 317.48C315.837 317.48 317.025 317.073 317.847 316.258C318.699 315.412 319.126 314.22 319.126 312.68H324.881C324.881 314.642 324.439 316.363 323.556 317.843C322.673 319.322 321.44 320.469 319.857 321.284C318.304 322.069 316.446 322.462 314.284 322.462Z" fill="white"></path>
<path d="M357.212 336.611C358.814 337.508 360.752 338.055 363.027 338.252C365.242 338.444 367.203 338.22 368.91 337.58C370.617 336.941 371.988 335.953 373.022 334.619C374.06 333.254 374.661 331.639 374.825 329.775C375.046 327.278 374.532 325.128 373.286 323.322C372.042 321.487 370.129 320.124 367.548 319.233L363.685 317.807C362.531 317.374 361.67 316.738 361.102 315.901C360.567 315.037 360.35 314.033 360.451 312.89C360.562 311.627 361.058 310.685 361.938 310.064C362.818 309.443 364.002 309.198 365.488 309.326C367.035 309.461 368.2 309.941 368.983 310.766C369.769 311.562 370.105 312.606 369.991 313.899L375.678 314.393C375.892 311.623 375.13 309.345 373.393 307.557C371.658 305.74 369.183 304.692 365.968 304.413C363.844 304.229 361.96 304.444 360.317 305.059C358.703 305.677 357.411 306.641 356.439 307.951C355.468 309.26 354.9 310.848 354.735 312.712C354.52 315.148 355.035 317.284 356.279 319.12C357.554 320.958 359.466 322.321 362.016 323.208L365.747 324.578C366.934 324.984 367.809 325.635 368.371 326.533C368.967 327.403 369.216 328.394 369.118 329.507C369.001 330.83 368.439 331.827 367.432 332.497C366.456 333.17 365.149 333.436 363.511 333.294C361.812 333.146 360.495 332.653 359.561 331.814C358.659 330.948 358.268 329.839 358.387 328.485L352.699 327.992C352.562 329.889 352.871 331.583 353.626 333.073C354.414 334.535 355.609 335.715 357.212 336.611Z" fill="white"></path>
<path d="M252.704 305.704L255.61 338.637L275.54 336.908L275.106 331.991L260.773 333.234L259.921 323.58L272.662 322.475L272.232 317.603L259.491 318.708L258.735 310.136L273.068 308.893L272.634 303.976L252.704 305.704Z" fill="white"></path>
<path fill-rule="evenodd" clip-rule="evenodd" d="M234.78 356.367L229.207 293.208L292.91 287.682L298.484 350.841L234.78 356.367ZM234.155 297.324L288.758 292.588L293.535 346.724L238.932 351.461L234.155 297.324Z" fill="white"></path>
</g>
</g>
<rect x="167.5" y="167.5" width="295" height="295" rx="147.5" stroke="black" stroke-width="5"></rect>
</g>
<defs>
<filter id="svg-25331208_5878_filter0_d_4520_3540" x="205" y="253" width="218" height="120.418" filterUnits="userSpaceOnUse" color-interpolation-filters="sRGB">
<feFlood flood-opacity="0" result="BackgroundImageFix"></feFlood>
<feColorMatrix in="SourceAlpha" type="matrix" values="0 0 0 0 0 0 0 0 0 0 0 0 0 0 0 0 0 0 127 0" result="hardAlpha"></feColorMatrix>
<feOffset></feOffset>
<feComposite in2="hardAlpha" operator="out"></feComposite>
<feColorMatrix type="matrix" values="0 0 0 0 0 0 0 0 0 0 0 0 0 0 0 0 0 0 1 0"></feColorMatrix>
<feBlend mode="normal" in2="BackgroundImageFix" result="effect1_dropShadow_4520_3540"></feBlend>
<feBlend mode="normal" in="SourceGraphic" in2="effect1_dropShadow_4520_3540" result="shape"></feBlend>
</filter>
<clipPath id="svg-25331208_5878_clip0_4520_3540">
<rect width="300" height="300" fill="white" transform="translate(165 165)"></rect>
</clipPath>
<clipPath id="svg-25331208_5878_clip1_4520_3540">
<rect x="165" y="165" width="300" height="300" rx="150" fill="white"></rect>
</clipPath>
</defs>
</svg>