<svg xmlns="http://www.w3.org/2000/svg" width="470" height="315" fill="none"><path fill="#FFF200" fill-rule="evenodd" d="M234.323 27.48c-.13-.083-.262-.161-.392-.239-.325-.193-.643-.382-.923-.628-.206-.177-.364-.404-.522-.63a3.524 3.524 0 0 0-.44-.55c-.924-.724-.839-1.653-.757-2.548.027-.3.054-.595.043-.878-.188-4.182-.292-8.376-.396-12.564-.033-1.299-.065-2.597-.1-3.894a8.63 8.63 0 0 0-.054-.558v-.002a6.362 6.362 0 0 1-.059-.71c-.038-1.434.576-2.398 1.685-2.919a44.496 44.496 0 0 0 1.094-.166h.015c.832-.132 1.662-.262 2.494-.32l.128-.009c.527-.034 1.198-.077 1.24.84.003.102.132.19.261.276.06.04.12.081.167.123.021-.032.042-.069.064-.107.054-.095.113-.198.193-.24.142-.068.377-.153.483-.09.721.426 1.033 1.053.98 1.914a1064.37 1064.37 0 0 0-.692 12.6c-.092 1.764-.154 3.527-.217 5.292l-.055 1.553a9.597 9.597 0 0 1-.007.171l-.007.163v.025a8.73 8.73 0 0 0-.009.996c.079 1.188-.65 1.817-1.379 2.446a7.831 7.831 0 0 0-.765.723c-.072.076-.511-.033-.543-.122-.159-.502-.245-.326-.334-.146a.573.573 0 0 1-.107.172.43.43 0 0 1-.081.054l-.078.038h-.001c-.068.032-.136.063-.18.116-.162.19-.225-.03-.288-.248-.082-.284-.163-.566-.461.066zm-29.939-5.444-.057-.702c-.359-4.448-.733-8.896-1.108-13.344a27.67 27.67 0 0 0-.071-.688c-.112-.992-.226-1.996.146-2.984a.476.476 0 0 0 .026-.16l.001-.01c.033-1.272.034-1.335 1.391-1.367l.098-.002.078-.003.111-.003h.002c1.3-.036 2.616-.074 3.644 1.01.049.045.154.042.258.038.104-.003.205-.007.246.039.082.103.175.208.27.314.3.337.614.69.639 1.062.144 2.124.21 4.251.285 6.647l.001.01c.026.84.053 1.713.085 2.632.074.868.158 1.799.245 2.774l.001.001v.005l.001.01c.195 2.173.409 4.56.579 6.941.028.46-.168.938-.358 1.4-.044.11-.089.218-.13.326-.057.175-.331.39-.503.38h-.024c-.839-.034-1.693-.067-2.505-.227-.646-.136-1.266-.399-1.871-.678-.173-.08-.305-.242-.438-.404l-.088-.106a4.723 4.723 0 0 0-.057-.065l-.014-.016-.015-.015-.02-.02a1.023 1.023 0 0 1-.081-.113c-.03-.046-.057-.093-.084-.135-.534.43-.504.013-.487-.242.004-.058.008-.108.004-.137-.085-.725-.142-1.442-.2-2.163v-.005zM119.513 43.76l-.024-.014-.002-.002-.045-.028a4.089 4.089 0 0 1 .008.2c.008.067.011.135.014.204.003.068.006.136.014.204l-.014-.014-.023-.023-.04-.035-.022-.02h-.001c-.049-.045-.099-.089-.14-.136a.447.447 0 0 1-.071-.106l-.205-.474c-.407-.937-.811-1.869-1.164-2.818-1.041-2.797-2.675-5.257-4.306-7.713l-.431-.65-.494-.751a47.85 47.85 0 0 0-.346-.52c-.705-1.05-1.402-2.087-1.637-3.398-.151-.916.066-1.635.489-2.34.282-.457.631-.877.979-1.294.137-.165.273-.329.405-.494.885-1.1 2.171-1.312 3.456-1.47.095-.01.192.041.289.093a1.631 1.631 0 0 0 .125.062c.014.045.03.087.046.128l.001.001v.001c.016.042.032.084.047.128.052-.025.106-.046.16-.068.137-.055.274-.11.368-.212.401-.436 1.49-.197 1.961.51.4.623.736 1.292 1.03 1.967 1.729 4.136 2.824 8.445 3.546 12.857.232 1.376.313 2.739.358 4.13.064 1.758-1.631 2.735-2.925 2.694-.088-.002-.183.005-.281.012-.407.03-.855.064-1.033-.527-.013-.032-.051-.058-.092-.084zM15.403 204.993c-.3.135-.599.27-.894.408-.273.121-.599.127-.92.134h-.001c-.195.004-.388.007-.567.037-1.86-.539-4.001-2.997-3.827-4.842.178-1.861 1.152-3.49 2.841-4.394a376.848 376.848 0 0 1 12.804-6.551c1.096-.54 2.27-.927 3.448-1.314l.002-.001.416-.137.29-.097c.228-.076.454-.153.68-.233.805-.281 1.567-.308 2.142.479.032.043.08.08.133.112.05.032.105.059.157.085l.038.019c.942.42 1.184 1.146.489 1.905-.392.422-.782.848-1.172 1.275-1.426 1.558-2.86 3.124-4.42 4.525-2.643 2.382-5.443 4.619-8.286 6.768-1.003.761-2.183 1.294-3.354 1.822zm20.252-78.955c-.328.162-.65.321-.999.419-.252.074-.521.083-.788.092a3.542 3.542 0 0 0-.682.067c-1.077.371-1.788-.19-2.474-.73v-.001c-.23-.18-.455-.358-.69-.498-3.504-2.058-6.973-4.19-10.437-6.319l-.002-.001a2710.45 2710.45 0 0 0-3.22-1.977 9.032 9.032 0 0 0-.484-.251c-.21-.103-.418-.205-.611-.329-1.187-.726-1.647-1.736-1.485-2.914a57.8 57.8 0 0 0 .445-.982c.335-.749.669-1.496 1.063-2.207l.034-.059.027-.05c.251-.447.57-1.016 1.339-.566.085.052.225-.007.364-.066.064-.028.128-.055.187-.071l-.01-.025-.017-.033-.026-.05c-.049-.095-.101-.197-.093-.284.02-.152.074-.388.181-.442.73-.361 1.404-.283 2.077.215a1060.26 1060.26 0 0 0 9.89 7.224c1.388 1.007 2.79 1.99 4.195 2.974a925.811 925.811 0 0 1 1.5 1.054c.271.195.54.387.824.547 1.01.563 1.136 1.489 1.263 2.414.046.341.093.682.184 1.005.024.1-.297.399-.387.379-.492-.137-.395.026-.295.194a.562.562 0 0 1 .083.178.637.637 0 0 1-.009.179.485.485 0 0 0-.001.208c.07.232-.143.168-.354.103-.275-.083-.547-.166-.19.41-.136.063-.27.128-.402.193zM22.704 169.36c-.883 1.027-1.83 1.79-3.29 1.905a823.96 823.96 0 0 0-15.298 1.393c-.578.05-.975-.193-1.373-.438a4.392 4.392 0 0 0-.55-.302c-.099-.054-.185-.292-.184-.432v-.046c.001-.181.002-.272-.04-.301-.016-.011-.04-.012-.071-.005a.402.402 0 0 0-.092.029l-.058.023-.046.019-.06.025c-.822.356-1.33.098-1.396-.774a7.663 7.663 0 0 1 .039-1.115 37.777 37.777 0 0 0 .03-.412c.087-.241.17-.477.25-.708.202-.583.394-1.135.628-1.661.37-.85 1.078-1.325 1.977-1.538.016-.004.03-.004.043-.005.016-.001.029-.001.039-.008 1.907-1.253 4.02-1.216 6.12-1.179h.001c.701.013 1.4.025 2.09-.01 1.965-.098 3.937-.041 5.908.016.985.028 1.97.057 2.955.066.175.003.35.001.527-.005.17-.005.34-.014.511-.022.394-.019.788-.038 1.178-.022.95.047 1.957 1.075 1.693 1.808-.134.362-.24.733-.348 1.105v.001c-.262.913-.525 1.826-1.183 2.593zm-.176-23.356-.369-.068-.094-.017-.208-.038c-4.26-.781-8.525-1.547-12.789-2.313a22.92 22.92 0 0 0-.663-.106c-.958-.144-1.927-.29-2.761-.887a.716.716 0 0 0-.075-.042.378.378 0 0 0-.068-.023l-.01-.003c-1.184-.35-1.243-.368-.931-1.648l.065-.273c.292-1.227.588-2.47 1.862-3.162.055-.034.078-.134.1-.232.023-.098.045-.195.099-.221.117-.051.238-.112.362-.174.391-.197.801-.403 1.156-.333 2.027.399 4.037.871 6.3 1.402l.006.001.004.001.028.007c.787.184 1.604.376 2.464.574.429.077.874.156 1.333.236l.744.13.6.104c2.086.363 4.378.762 6.653 1.201.439.089.837.393 1.224.687.09.07.181.139.271.204.151.097.284.408.232.568l-.007.021c-.242.778-.489 1.57-.842 2.292-.29.572-.692 1.087-1.106 1.584-.119.141-.303.225-.489.309-.088.04-.176.08-.257.126a1.114 1.114 0 0 1-.1.04l-.102.031-.032.009-.03.01-.01.003c.27.608-.114.476-.349.395-.053-.018-.099-.034-.127-.038-.703-.103-1.391-.23-2.084-.357zm428.024-35.526.002-.001c.284-.164.568-.327.847-.493.261-.148.586-.187.907-.226.195-.024.388-.047.564-.094 1.917.341 4.321 2.549 4.344 4.389.021 1.854-.779 3.562-2.372 4.627a377.757 377.757 0 0 1-12.106 7.773c-1.039.646-2.172 1.147-3.309 1.65l-.004.001c-.446.198-.892.395-1.334.602-.775.36-1.534.464-2.193-.254-.073-.076-.199-.123-.309-.164l-.001-.001h-.001l-.04-.015c-.987-.318-1.307-1.01-.693-1.831.169-.222.338-.446.506-.67l.486-.648.021-.028.022-.03.001-.001.001-.001h.001v-.001h.001l.003-.005c1.258-1.681 2.522-3.371 3.931-4.912 2.39-2.621 4.951-5.115 7.565-7.526.922-.854 2.046-1.5 3.16-2.141zm-11.824 80.007c.312-.194.617-.384.955-.515.199-.081.414-.12.63-.152l.137-.019h.005l.003-.001h.003a3.51 3.51 0 0 0 .675-.136c1.037-.475 1.809.006 2.552.469l.002.001c.127.079.254.158.382.232.058.034.117.067.176.098l.025.013.03.015.048.024.082.039c3.725 1.674 7.423 3.425 11.116 5.174l.065.03 1.399.663c.656.31 1.311.62 1.967.928.168.074.34.137.51.199.107.039.213.077.318.119l.039.015.062.025.09.039c.046.02.092.042.138.064 1.264.596 1.832 1.546 1.796 2.725-.117.337-.229.676-.34 1.015-.255.773-.509 1.546-.828 2.288a7.841 7.841 0 0 0-.039.089l-.007.015-.004.009c-.203.467-.461 1.062-1.278.695-.09-.042-.224.031-.356.103l-.001.001h-.001l-.051.028a.965.965 0 0 1-.128.061l.033.053.014.022.018.026.001.002.001.002.002.002.033.051.032.052c.031.055.054.11.054.162-.003.151-.032.39-.134.454-.69.431-1.374.423-2.099 0a1055.479 1055.479 0 0 0-10.664-6.121 300.681 300.681 0 0 0-4.511-2.507l-.01-.006-1.319-.724-.281-.157-.107-.06a8.307 8.307 0 0 0-.781-.397c-1.069-.453-1.295-1.354-1.52-2.255a7.206 7.206 0 0 0-.292-.973c-.035-.096.255-.424.347-.413.507.084.392-.067.274-.222-.045-.059-.091-.119-.102-.167-.014-.057-.012-.117-.01-.178.003-.072.006-.144-.021-.205-.094-.223.125-.181.343-.139.284.055.565.109.146-.424.13-.075.256-.153.381-.231zm8.327-44.087c.773-1.104 1.639-1.954 3.087-2.217a834.777 834.777 0 0 0 15.151-2.936c.573-.108.996.092 1.42.292l.001.001.004.002c.068.032.135.064.204.094a.95.95 0 0 0 .056.025l.01.005.079.033.036.014c.064.025.128.048.193.068.104.043.216.27.23.408l.016.154c.013.108.026.166.06.184.048.025.136-.024.318-.123.784-.435 1.319-.232 1.479.622.064.374.073.756.08 1.105.004.143.007.28.014.409-.04.16-.078.317-.114.472l-.06.253a20.57 20.57 0 0 1-.451 1.703c-.279.877-.936 1.419-1.813 1.721-.033.011-.063.007-.081.02-1.773 1.433-3.89 1.611-5.995 1.789-.702.059-1.404.118-2.09.224-1.955.296-3.932.442-5.91.587-.642.047-1.284.094-1.925.146-.346.028-.692.058-1.038.09-.346.029-.691.081-1.036.133h-.001c-.392.059-.783.118-1.175.142-.954.05-2.071-.861-1.886-1.613.096-.37.163-.748.23-1.127.165-.927.33-1.856.907-2.68zm2.669 23.038.207.016.19.015.289.022c4.344.336 8.691.657 13.037.978l.351.021.149.008.175.008c.974.044 1.958.089 2.856.594a.6.6 0 0 0 .093.037l.014.004a.416.416 0 0 0 .043.008l.01.001c1.222.226 1.282.237 1.108 1.532l-.013.097-.02.151-.004.028c-.16 1.242-.323 2.499-1.524 3.313-.103.078-.049.403-.15.467a.767.767 0 0 0-.039.022l-.06.035a5.806 5.806 0 0 0-.147.09l-.095.06-.003.002c-.37.234-.758.479-1.121.446-2.073-.187-4.137-.448-6.461-.742l-1.504-.189c-.344-.043-.693-.087-1.05-.13-.853-.063-1.769-.125-2.728-.191a365.56 365.56 0 0 1-6.782-.507c-.448-.042-.88-.302-1.297-.553-.099-.059-.197-.118-.294-.173-.161-.081-.327-.374-.292-.537l.004-.02.001-.003c.159-.793.321-1.599.597-2.347.229-.594.576-1.144.937-1.676.103-.152.279-.254.456-.356.084-.048.168-.096.244-.15a1.12 1.12 0 0 1 .109-.056l.087-.036c.023-.009.046-.018.067-.028-.334-.572.064-.481.307-.426l.048.011a.535.535 0 0 0 .084.014c.713.03 1.415.085 2.121.14zM173.709 26.366c.352 1.467 1.281 2.308 2.469 3.041.887.546 1.859.666 2.83.787.198.024.396.049.593.077.197.028.393.06.588.098.789.15 1.672-1.04 1.568-2.014-.048-.4-.13-.797-.213-1.195v-.001a15.9 15.9 0 0 1-.195-1.051 159.77 159.77 0 0 1-.409-3.019c-.26-2.015-.52-4.03-.935-6.013a30.697 30.697 0 0 1-.348-2.127c-.301-2.143-.603-4.3-2.187-6.038a.086.086 0 0 1-.014-.04l-.004-.018-.004-.012a2.412 2.412 0 0 1-.003-.01c-.362-.882-.96-1.526-1.885-1.765a21.448 21.448 0 0 0-1.789-.371h-.001c-.249-.045-.502-.09-.762-.14-.133.014-.276.024-.425.035-.36.026-.756.055-1.14.14-.877.209-1.057.767-.562 1.546.111.18.168.268.145.318-.024.05-.131.063-.347.096-.143.022-.371.148-.41.256-.053.212-.136.411-.218.61-.185.444-.369.888-.225 1.467a841.687 841.687 0 0 1 3.883 15.343zm111.438 4.796a.853.853 0 0 0-.02-.042l-.002-.004-.011-.025-.013-.027-.049.087-.059.097-.04.075c-.015.029-.032.057-.048.085l-.017.029-.001.002-.001.002-.024.04-.042.073c-.013.025-.027.05-.039.076-.021-.098-.057-.203-.076-.303a.533.533 0 0 1-.009-.177l.021-.12.065-.387.006-.036c.181-1.076.361-2.145.597-3.2.694-3.11.661-6.262.629-9.409-.006-.599-.012-1.196-.013-1.794a51.544 51.544 0 0 0-.004-.393l-.004-.274c-.021-1.349-.042-2.683.51-3.994.397-.907 1.01-1.425 1.798-1.81.518-.245 1.075-.418 1.628-.59h.001c.218-.068.436-.135.651-.207 1.432-.47 2.706.088 3.948.694.064.032.11.091.152.159l.053.092c.024.044.048.089.075.128a1.987 1.987 0 0 0-.032.143l-.001.003-.006.028-.011.05a.744.744 0 0 1-.015.062c.06.008.122.02.183.032h.002c.068.014.135.027.201.034.085.01.169.01.25-.01.613-.157 1.448.69 1.459 1.596a14.797 14.797 0 0 1-.222 2.362c-.856 4.708-2.382 9.203-4.3 13.572-.592 1.368-1.312 2.635-2.081 3.906-.965 1.612-3.051 1.502-4.185.712a3.47 3.47 0 0 0-.259-.152c-.382-.21-.802-.44-.618-1.073l.001-.017-.002-.017c-.001-.007-.002-.015-.005-.023a.359.359 0 0 0-.021-.055zM52.193 57.682c.526 1.115 1.057 2.239 1.804 3.19 2.11 2.691 4.304 5.341 6.635 7.84 1.37 1.472 2.897 2.82 4.415 4.163h.001l.001.001c.416.368.831.735 1.243 1.104.74.654 1.433.41 1.82-.501.053-.11.113-.248.202-.319.746-.564.708-1.295.424-2.063-.163-.438-.317-.88-.471-1.321v-.003c-.392-1.124-.783-2.245-1.32-3.288a360.612 360.612 0 0 0-6.502-12.179c-.896-1.606-2.476-2.514-4.265-2.653-1.774-.136-4.097 1.96-4.583 3.754.031.171.038.357.045.543.011.31.023.622.144.882.064.13.127.262.19.393l.217.458zm88.933-41.418c-.296-1.083-.166-2.036 1.237-2.533.237-.077.464-.199.691-.321l.109-.059.044-.023a7.176 7.176 0 0 1 .602-.283l.223-.091.125-.049a15.88 15.88 0 0 0 .332-.133c1.143-.154 2.232-.143 3.325.197a2.26 2.26 0 0 1 1.409 1.2 14.4 14.4 0 0 1 .809 2.031l.55 1.892c.827 2.835 1.655 5.67 2.354 8.533.264 1.105.34 2.25.415 3.394.038.572.076 1.145.138 1.712.005.06.004.118.004.175-.001.11-.002.216.035.323.171.568.138 1.14.105 1.714l-.002.023-.012.222-.005.092c-.002.068-.005.135-.006.203-.025.512-.152.957-.561 1.33-.095.077-.136.202-.178.328v.001l-.023.069-.008.023-.007.018-.007.018a.517.517 0 0 1-.039.084l-.022.051c-.074.171-.177.408-.258.406-.284-.02-.515.093-.747.206-.154.075-.309.15-.479.186-.424.09-.876.054-1.327.018-.703-.07-1.264-.414-1.556-1.058l-.204-.432v-.001c-.423-.898-.847-1.797-1.179-2.733-1.535-4.192-3.052-8.41-4.549-12.631a47.409 47.409 0 0 1-1.338-4.102zm118.466 10.538a.718.718 0 0 1 .09.232l.015.073.001.003v.003l.001.004.001.005c.027.134.053.263.131.315.814.545 1.723.785 2.671.886.259.027.521.037.783.046.261.01.523.02.782.046.43.048.78-.086 1.007-.394l.102-.133c.321-.42.648-.85.874-1.33.747-1.617 1.239-3.294 1.655-5.022 1.107-4.651 2.122-9.328 2.269-14.145.018-.816.028-1.674-.606-2.32-.579-.59-1.291-.956-2.064-1.18-.874-.253-1.741-.1-2.606.053-.48.085-.959.17-1.438.185a.184.184 0 0 0-.023.005.07.07 0 0 0-.037.028c-1.135.418-1.685 1.338-1.94 2.42a41.12 41.12 0 0 0-.688 3.735c-.167 1.171-.275 2.345-.382 3.522l-.001.004-.076.824.001.037.002.023.002.012.003.019a.242.242 0 0 0 .005.026c.006.032.015.064.023.095l.012.046c.005.02.01.04.013.06a.68.68 0 0 1 .024-.067l.007-.02.003-.006.004-.009c.021-.052.042-.102.045-.156.082-.62.16-1.24.238-1.858.168-1.338.336-2.672.546-4.005.129-.796.343-1.577.555-2.352l.106-.39c.009-.067.111-.11.167-.164a.51.51 0 0 0 .008.104l.006.045a.313.313 0 0 1-.007.113c-.089.473-.182.944-.275 1.415l-.001.004-.001.005c-.224 1.14-.448 2.278-.615 3.428-.289 1.994-.535 3.992-.782 5.992v.003l-.001.003v.006l-.001.002v.006l-.001.003v.006l-.001.003v.003l-.001.003v.003c-.115.931-.23 1.863-.349 2.796l-.002.009-.005.021-.003.012c-.016.066-.04.127-.066.191v.002l-.037.095a.77.77 0 0 0-.03-.104c-.023-.07-.046-.138-.032-.214l.305-3.551-.023.04a4.402 4.402 0 0 1-.05.083l-.001.001a.796.796 0 0 0-.12.243 75.018 75.018 0 0 0-.179 1.364c-.046.383-.093.768-.148 1.16-.314 2.366-.36 4.747-.32 7.111.005.029 0 .08-.007.138-.021.2-.05.476.345.126a1.915 1.915 0 0 1 .117.174zm.413-10.766.003-.033c.01-.09.02-.178.025-.267l-.047.01-.023.007a.11.11 0 0 0-.018.008c-.01.005-.015.01-.014.017.006.086.016.165.025.245l.001.003c.01.08.02.16.026.247.004.021.008.043-.009.068.021-.004.025.017.025.017l-.016-.085c.004-.078.013-.158.022-.237zm56.054 23.662-.057-.04a9.63 9.63 0 0 0-.593-.382c-.195-.119-.394-.24-.585-.374-.097-.081-.181-.326-.141-.476l.058-.196c.141-.472.284-.955.492-1.407 1.133-2.374 2.088-4.8 2.671-7.372.027-.124.094-.33.183-.337.275-.053.315-.234.355-.416l.005-.024.007-.028c.053-.246.037-.492.069-.731-.087.213-.147.438-.235.65a.029.029 0 0 1-.006.011l-.006.01-.006.008-.004.006-.013.014-.043.043a.585.585 0 0 0-.071.074.536.536 0 0 1-.043-.19l.099-.48.046-.225v-.001c.391-1.923.778-3.824 1.706-5.586.473-.892 1.264-1.393 2.16-1.724.106-.036.213-.067.321-.096l.258-.064.008-.002c.099-.023.198-.047.296-.074a.043.043 0 0 0 .004-.01l.002-.014-.001-.016c-.001-.01-.004-.02-.006-.028a.216.216 0 0 0-.006-.02h-.001l.422-.074c.134-.023.267-.047.401-.072l.535-.095a43.64 43.64 0 0 1 .593-.1l.412-.063c1.097-.149 2.108.187 3.058.68.805.407 1.086 1.154 1.038 2.014-.037.56-.163 1.128-.296 1.675-1.098 4.277-3.063 8.169-5.552 11.807a58.986 58.986 0 0 1-1.913 2.643c-.441.585-.972 1.11-1.683 1.377a.547.547 0 0 0-.246.153c-.601.822-1.463.698-2.28.581l-.095-.014c-.289-.037-.605-.156-.759-.536a.604.604 0 0 0-.159-.2 2.515 2.515 0 0 0-.288-.206 6.31 6.31 0 0 1-.111-.073zm28.528 7.345c-.071.186-.019.328.144.521.029.034.06.066.093.097.052.048.109.093.167.136.053.04.108.078.163.116l.002.002.003.002c.315.218.63.437.633.913.001.004.005.008.009.013l.013.01.011.008.013.009c.017.012.037.025.052.039.468.334 1.248.51 1.967.454.022 0 .049-.005.076-.01a.751.751 0 0 1 .061-.009.16.16 0 0 1 .042.001c.011.002.02.006.026.012.399.317.668.083.931-.146l.009-.007.047-.041.034-.029.023-.02c1.384-1.145 2.467-2.549 3.424-4.044a361.636 361.636 0 0 0 4.3-6.842 45.97 45.97 0 0 0 2.029-3.56 7.115 7.115 0 0 0 .593-1.799c.134-.645-.02-1.323-.579-1.716-.775-.544-1.576-1.032-2.61-.954-1.37.108-2.709.297-3.983.67-.769.233-1.448.526-1.92 1.134a11.884 11.884 0 0 0-1.963 3.743 576.753 576.753 0 0 0-1.021 3.357 383.817 383.817 0 0 1-1.018 3.35 27.722 27.722 0 0 1-.748 1.98c-.132.326-.265.652-.392.98l-.063.181-.046.126c-.04.107-.082.214-.125.323l-.143.357-.066.164-.075.188-.041.106-.072.185zM79.874 40.221c0-.275-.114-.532-.231-.794-.067-.15-.134-.3-.181-.456a.726.726 0 0 0-.124-.212c-.13-.176-.264-.36.059-.543a.011.011 0 0 0 .005-.005.025.025 0 0 0 .002-.009.078.078 0 0 0-.002-.025c-.005-.032-.023-.08-.042-.135a.991.991 0 0 1-.072-.278c.022-.367.044-.755.087-1.121 0-.123.022-.245.042-.36.009-.046.017-.092.023-.136a.117.117 0 0 0 .002-.014v-.008a.133.133 0 0 0-.028-.087.271.271 0 0 0-.023-.03L79.383 36a.434.434 0 0 0-.016-.015.933.933 0 0 0-.077-.064c-.101-.078-.184-.142-.002-.227.174-.086.282-.15.37-.28.393-.626 1.036-.72 1.67-.812l.11-.016.086-.013c.094-.02.21.02.323.059.12.041.238.082.328.049.096-.032.176-.142.254-.248.08-.11.157-.215.245-.226l.076-.01c.48-.063 1.01-.133 1.443.031 1.563.582 2.952 1.423 3.755 2.954l.946 1.778c1.359 2.55 2.716 5.096 4.002 7.686.89 1.746 1.324 3.664 1.736 5.583a.826.826 0 0 1 .01.055l.012.117a3.219 3.219 0 0 0 .021.173c.13 1.078-.282 1.53-1.432 1.488-.282-.173-.412.021-.542.28-.044.108-.152.215-.261.237l-.352.087-.055.014c-.955.241-1.926.486-2.913.071-.608-.237-1.086-.625-1.476-1.164-2.778-3.88-5.23-7.955-7.488-12.158a2.54 2.54 0 0 1-.282-1.208zM430.55 84.623c-.21.196-.416.388-.676.477a2.545 2.545 0 0 0-1.05.66c-3.24 3.503-6.294 7.148-9.058 11.038-.383.545-.594 1.123-.621 1.775-.07 1.069.478 1.907 1.016 2.731l.106.162.123.19a.329.329 0 0 0 .141.123.436.436 0 0 0 .168.046c.287.039.512.099.441.422.334 1.101.896 1.344 1.873.87a1.32 1.32 0 0 1 .075-.04l.076-.035.005-.002a1.51 1.51 0 0 0 .156-.077c1.68-1.014 3.353-2.049 4.714-3.459 2.023-2.052 3.982-4.157 5.944-6.265l.001-.001.001-.001.001-.001.001-.002h.001l.001-.002h.001l.001-.002.002-.001.001-.001.001-.001.001-.001.001-.001.001-.002h.001l.001-.002 1.375-1.477c1.186-1.257 1.529-2.844 1.571-4.511.013-.463-.225-.942-.441-1.375l-.034-.069c-.039-.08-.164-.118-.293-.158a1.151 1.151 0 0 1-.234-.09.28.28 0 0 1-.084-.07.289.289 0 0 1-.054-.152c-.006-.054-.006-.113-.006-.173.001-.12.001-.242-.05-.325l-.091-.175c-.293-.57-.592-1.147-1.311-1.316-.151-.04-.247-.121-.385-.257-.14-.145-.173-.046-.214.075-.011.03-.022.063-.035.093-.027.062-.065.114-.13.123l-.137.022a2.037 2.037 0 0 0-.353.077c-.361.079-.735.184-1.088.283-.072.025-.163.098-.24.159-.075.06-.136.108-.153.091-.278-.245-.408-.058-.532.12a2.266 2.266 0 0 1-.072.1.44.44 0 0 1-.088.088 3.904 3.904 0 0 0-.372.319zM27.9 82.033a5.808 5.808 0 0 1-.11.155l-.041.056-.017.024-.022.03a3.156 3.156 0 0 0-.068.101l-.015.023c-.02.032-.038.064-.055.096l-.02.037-.028.047-.022.036c-.02.034-.042.068-.064.102l-.062.097-.003.006c-.31.482-.617.96-.215 1.596.037.049.044.138.034.201-.072 1.43.627 2.566 1.49 3.641.988 1.248 2.16 2.307 3.436 3.273l1.021.77.005.003a182.517 182.517 0 0 0 4.204 3.11c.808.587 1.683 1.162 2.614 1.528.888.364 1.819.606 2.748.847l.002.001h.002l.001.001h.002l.002.001a86.94 86.94 0 0 1 1.02.272.937.937 0 0 0 .55 0c.96-.372 1.352-1.598.809-2.47a2.596 2.596 0 0 0-.196-.292c-1.659-2.079-3.188-4.242-4.718-6.407v-.001h-.001v-.001h-.001v-.001l-.001-.001v-.001h-.001v-.001h-.001c-.565-.8-1.131-1.6-1.704-2.397-.903-1.235-1.852-2.455-2.908-3.56-1.203-1.282-2.748-2.073-4.46-2.497l-.343-.054c-1.1-.13-2.126.1-2.727 1.402-.04.08-.087.155-.136.227zm377.494-21.175c-.852.891-1.711 1.79-2.33 2.828-1.757 2.935-3.445 5.932-4.942 9.003-.884 1.807-1.596 3.715-2.304 5.614l-.001.002c-.194.52-.388 1.04-.585 1.557-.346.925.13 1.484 1.12 1.52.121.01.271.015.37.074.794.494 1.463.196 2.078-.344.351-.31.708-.612 1.066-.914.909-.77 1.816-1.536 2.598-2.412a361.962 361.962 0 0 0 9.04-10.434c1.178-1.412 1.459-3.212.948-4.932-.508-1.705-3.298-3.123-5.147-2.933-.065.04-.135.075-.206.11a6.915 6.915 0 0 1-.282.125l-.003.001c-.284.122-.572.245-.772.45l-.243.26-.079.084-.326.341zm-22.502-17.02a2.592 2.592 0 0 1-.436-.132c-.07-.025-.139-.05-.208-.073l-.021-.007-.021-.006a1.792 1.792 0 0 0-.049-.014l-.035-.008-.043-.01a6.281 6.281 0 0 1-.367-.102c-.549-.165-1.094-.328-1.593.233-.038.049-.121.08-.185.089-1.394.324-2.293 1.31-3.089 2.434-.927 1.295-1.622 2.714-2.199 4.206l-.115.3-.16.418-.184.478a181.633 181.633 0 0 0-1.833 4.902c-.341.938-.652 1.938-.747 2.934-.105.957-.081 1.922-.058 2.885a50.827 50.827 0 0 1 .02 1.055c0 .175.048.388.152.529.622.82 1.908.858 2.596.096a3.659 3.659 0 0 0 .228-.268c1.542-2.17 3.201-4.237 4.862-6.308h.001c.379-.473.759-.946 1.137-1.42l.189-.237.253-.32.255-.322c.938-1.208 1.849-2.457 2.621-3.776.9-1.51 1.234-3.213 1.17-4.976l-.042-.345c-.178-1.093-.682-2.015-2.099-2.235zm-32.758 227.596c-.05-.03-.099-.06-.115-.097-.178-.591-.626-.558-1.033-.528a2.742 2.742 0 0 1-.281.013c-1.293-.042-2.989.936-2.924 2.694.044 1.391.125 2.754.358 4.13.722 4.411 1.816 8.72 3.546 12.856.294.676.629 1.344 1.03 1.968.47.706 1.559.946 1.961.509a.58.58 0 0 1 .161-.119c.064-.035.134-.063.205-.092h.001l.003-.001.067-.027.091-.041a1.776 1.776 0 0 0 .047.129c.016.042.033.084.047.129.041.018.083.04.124.062.098.052.195.104.289.093 1.286-.158 2.571-.369 3.456-1.469.132-.166.269-.33.406-.494.347-.418.697-.838.979-1.294.422-.705.639-1.425.489-2.34-.235-1.312-.932-2.348-1.636-3.397l-.001-.001a93.93 93.93 0 0 1-.347-.52c-.305-.469-.615-.935-.924-1.401-1.632-2.456-3.265-4.916-4.306-7.713-.354-.95-.758-1.882-1.165-2.82l-.205-.473c-.04-.09-.126-.166-.211-.241l-.001-.001-.001-.001a2.908 2.908 0 0 1-.098-.09c.009.067.012.136.015.204l.004.082.002.036.002.026.006.06v.035l.002.039.006.126a1.048 1.048 0 0 0-.049-.031zm-84.836 22.412-.058-.702v-.008l-.004-.047-.003-.044-.037-.457-.017-.203-.022-.248a42.622 42.622 0 0 0-.116-1.161.83.83 0 0 1 .003-.137c.018-.255.047-.672-.486-.241l-.04-.065c-.018-.029-.036-.059-.056-.088a.275.275 0 0 0-.019-.028l-.021-.03a.936.936 0 0 0-.029-.037 2.992 2.992 0 0 1-.194-.222c-.068-.082-.135-.164-.207-.236a.832.832 0 0 0-.232-.168c-.604-.28-1.224-.543-1.871-.678-.812-.16-1.667-.194-2.506-.228h-.022c-.173-.01-.447.205-.503.381-.042.107-.086.216-.131.325-.19.463-.386.941-.357 1.4.169 2.377.383 4.76.578 6.929l.001.011c.088.981.172 1.919.246 2.792.032.918.059 1.792.086 2.633v.009c.075 2.395.142 4.522.285 6.646.025.373.34.726.64 1.063l.127.143c.05.058.098.114.142.17a.097.097 0 0 0 .03.022.195.195 0 0 0 .053.014.962.962 0 0 0 .163.003c.055-.002.109-.003.156.002l.016.002a.142.142 0 0 1 .02.004.137.137 0 0 1 .036.011.093.093 0 0 1 .03.02c1.029 1.083 2.344 1.046 3.644 1.009h.036l.253-.008c1.357-.031 1.359-.094 1.392-1.366v-.011c-.002-.063.012-.111.026-.159.372-.989.259-1.992.147-2.984-.026-.231-.052-.46-.072-.689-.374-4.447-.749-8.895-1.107-13.344zm-29.604-5.907c-.13-.077-.262-.156-.393-.239-.297.632-.378.351-.46.066-.063-.218-.126-.438-.288-.247a.364.364 0 0 1-.103.078c-.024.013-.049.024-.075.036l-.001.001h-.002l-.001.001c-.056.026-.113.052-.159.092-.039.032-.073.102-.107.171-.088.181-.175.356-.333-.146-.033-.089-.472-.198-.544-.121a5.636 5.636 0 0 1-.452.449c-.103.092-.208.183-.313.273-.729.629-1.458 1.258-1.378 2.447.021.335.006.675-.009 1.019v.001l-.014.334-.032.888-.023.647-.001.009v.009a321.353 321.353 0 0 1-.216 5.292c-.205 4.197-.438 8.403-.692 12.601-.053.86.258 1.487.98 1.914.106.063.341-.023.483-.091a.25.25 0 0 0 .059-.045.416.416 0 0 0 .058-.071c.019-.026.036-.055.053-.084l.023-.04c.021-.038.042-.075.064-.106.046.041.106.082.166.122.129.087.259.175.262.277.041.917.712.873 1.239.839l.015-.001h.011l.008-.001h.008l.006-.001.081-.005c.836-.058 1.67-.189 2.505-.32.365-.058.731-.115 1.097-.167 1.109-.521 1.724-1.485 1.685-2.918-.001-.236-.03-.473-.058-.712-.022-.185-.045-.371-.055-.559-.035-1.297-.067-2.595-.099-3.893-.105-4.189-.209-8.382-.397-12.565a6.752 6.752 0 0 1 .044-.877c.082-.895.167-1.825-.757-2.548a3.528 3.528 0 0 1-.441-.551c-.157-.226-.316-.453-.522-.629-.279-.246-.597-.436-.922-.629zm57.752-2.166c1.188.733 2.117 1.575 2.47 3.041a839.631 839.631 0 0 0 3.883 15.343c.143.58-.041 1.023-.225 1.468-.082.199-.165.398-.219.609-.038.108-.267.235-.41.257l-.047.007c-.184.028-.277.042-.299.089-.008.018-.007.04.004.07.019.05.062.12.126.223l.015.024c.494.78.314 1.338-.563 1.546-.384.085-.78.114-1.141.141-.148.011-.291.021-.424.035-.26-.05-.513-.095-.762-.14l-.003-.001c-.624-.111-1.215-.217-1.787-.371-.924-.238-1.522-.883-1.884-1.764l-.004-.01-.002-.007-.002-.008-.003-.016c-.004-.016-.007-.03-.015-.04-1.583-1.738-1.885-3.894-2.186-6.038-.1-.715-.201-1.43-.348-2.126-.416-1.984-.675-3.999-.935-6.014-.13-1.007-.26-2.015-.41-3.018a15.294 15.294 0 0 0-.194-1.052c-.083-.398-.166-.796-.213-1.196-.104-.974.779-2.164 1.568-2.013.185.037.372.067.559.094l.218.03c.135.018.269.035.404.051.971.12 1.943.24 2.829.786zm-108.949-1.712c-.027-.056-.054-.113-.046-.154.184-.633-.236-.864-.618-1.073l-.01-.006-.016-.008-.013-.008-.006-.003-.001-.001-.067-.037a2.45 2.45 0 0 1-.146-.089c-1.134-.79-3.221-.901-4.185.711-.769 1.271-1.489 2.539-2.081 3.906-1.919 4.37-3.444 8.864-4.301 13.573a14.906 14.906 0 0 0-.221 2.361c.01.906.846 1.753 1.459 1.596a.663.663 0 0 1 .223-.013l.093.012.131.024.003.001.002.001.033.006.027.005c.041.008.083.015.124.021-.027.097-.039.188-.066.285.027.04.051.084.076.128l.05.088a.598.598 0 0 0 .052.076.302.302 0 0 0 .102.087c1.243.606 2.517 1.165 3.949.694.214-.071.432-.139.65-.207.554-.171 1.111-.344 1.629-.589.788-.386 1.401-.904 1.798-1.81.553-1.312.532-2.645.511-3.995a49.246 49.246 0 0 1-.008-.667c-.001-.597-.007-1.195-.014-1.793v-.001c-.032-3.147-.064-6.299.63-9.408.236-1.055.416-2.125.596-3.2l.033-.192.059-.352c.023-.147-.051-.321-.084-.479-.032.065-.069.128-.106.191a3.596 3.596 0 0 0-.106.191c-.031.047-.07.115-.109.183l-.026-.055zm231.13-29.752c.748.951 1.279 2.075 1.805 3.189.135.285.269.569.407.85.121.26.132.573.143.882a7.347 7.347 0 0 0 .028.424c.004.041.01.08.017.12-.485 1.794-2.809 3.89-4.583 3.754-1.788-.139-3.369-1.048-4.264-2.653a361.142 361.142 0 0 1-6.502-12.179c-.537-1.043-.928-2.164-1.319-3.288-.155-.443-.309-.886-.472-1.324-.284-.768-.323-1.499.423-2.064.09-.071.149-.209.202-.318.388-.912 1.08-1.156 1.82-.502.412.369.827.736 1.242 1.103l.001.001h.001v.001h.001v.001h.001v.001h.001v.001h.001l.001.001c1.517 1.341 3.042 2.688 4.412 4.16 2.33 2.498 4.524 5.148 6.634 7.84zm-88.366 47.14c1.404-.496 1.534-1.45 1.237-2.533a47.19 47.19 0 0 0-1.338-4.101c-1.496-4.222-3.014-8.44-4.548-12.632-.333-.935-.757-1.835-1.18-2.733l-.203-.433c-.292-.643-.853-.987-1.556-1.058-.452-.036-.903-.072-1.328.018a1.588 1.588 0 0 0-.309.106l-.088.041-.081.039c-.232.113-.464.226-.747.207-.09-.003-.206.286-.281.456-.035.065-.06.139-.084.213-.041.126-.082.252-.178.328-.409.373-.536.819-.56 1.331-.004.18-.015.359-.025.539-.033.574-.067 1.146.105 1.714a.624.624 0 0 1 .031.157c.003.035.004.071.004.107v.059c-.001.058-.001.116.004.176.061.567.099 1.139.137 1.712.076 1.144.151 2.289.416 3.393.699 2.862 1.525 5.696 2.352 8.53l.001.004c.184.63.368 1.26.55 1.891.216.704.492 1.372.809 2.032a2.26 2.26 0 0 0 1.409 1.199c1.093.341 2.183.352 3.326.197.109-.045.218-.088.327-.131l.146-.057.1-.04.16-.067.083-.036.162-.075c.154-.068.306-.15.457-.231.227-.123.454-.245.69-.322zm-117.272-13.151c.038.081.101.178.16.255.396-.35.366-.074.345.126a1.373 1.373 0 0 0-.008.096v.024l.002.017c.039 2.364-.006 4.745-.32 7.112l-.043.313-.015.116-.01.083-.021.163-.015.123-.023.183-.021.176-.001.001v.005c-.056.455-.111.907-.179 1.36-.017.093-.092.197-.153.298l-.015.024-.009.015-.008.014-.009.016.305-3.551a.276.276 0 0 0-.002-.111.743.743 0 0 0-.03-.102c-.011-.035-.023-.069-.03-.104a3.147 3.147 0 0 1-.036.094c-.031.079-.06.153-.076.235-.067.518-.131 1.036-.196 1.553l-.083.675-.07.568c-.249 2.014-.497 4.025-.787 6.034-.167 1.151-.392 2.291-.617 3.432-.093.473-.186.945-.275 1.419a.34.34 0 0 0-.006.118.546.546 0 0 0 .005.04l.002.014.001.012.003.02a.375.375 0 0 1 .002.058c.055-.054.158-.096.167-.164l.106-.39c.212-.775.425-1.556.555-2.352.209-1.332.377-2.666.546-4.004.077-.619.155-1.238.238-1.858a.436.436 0 0 1 .045-.156l.013-.033a.7.7 0 0 0 .024-.069c.021.106.063.208.062.318l-.045.482-.031.341c-.109 1.178-.217 2.354-.383 3.526-.179 1.243-.396 2.515-.689 3.736-.254 1.082-.805 2.001-1.939 2.419-.018.026-.039.03-.06.034-.479.015-.958.099-1.438.184h-.001c-.864.153-1.732.307-2.605.053-.773-.223-1.486-.59-2.065-1.18-.634-.645-.624-1.504-.605-2.32.147-4.816 1.161-9.493 2.269-14.145.416-1.728.908-3.405 1.655-5.021.226-.481.553-.91.874-1.331l.101-.133c.228-.308.578-.441 1.007-.393.189.019.38.03.571.037l.042.002.17.006.083.003.1.004.102.005.22.011c.093.006.185.014.277.023.949.101 1.858.342 2.671.886.078.053.104.182.132.316v.003l.012.058.009.039.01.042a.613.613 0 0 0 .025.077l.004.011.004.009zm-.391 11.055.006-.063.004-.038.023-.205.007-.083.004-.057c.011.174.04.322.052.495.002.01-.012.018-.031.025l-.032.009-.011.002-.015.003-.011.002-.003.001.003-.037.002-.035.002-.019zm.044-.446-.017-.084s.004.021.026.017c-.018.025-.013.046-.009.067zm-56.02-23.385a3.497 3.497 0 0 0-.168-.113c-.181-.117-.372-.241-.446-.405-.154-.38-.471-.499-.759-.537l-.095-.014c-.817-.117-1.68-.24-2.28.581a.55.55 0 0 1-.246.153c-.711.268-1.242.793-1.683 1.378a57.992 57.992 0 0 0-1.914 2.642c-2.488 3.639-4.453 7.53-5.552 11.807-.132.547-.258 1.115-.295 1.675-.048.86.232 1.607 1.038 2.014.95.493 1.961.829 3.057.68.513-.073 1.029-.166 1.542-.258a67.8 67.8 0 0 1 .821-.145c-.007-.021-.021-.061-.007-.089l.034-.009.054-.014.077-.019.069-.017.061-.015.187-.046c.135-.034.269-.07.4-.115.896-.332 1.688-.832 2.161-1.725.927-1.761 1.314-3.663 1.706-5.585v-.001l.002-.008.142-.697a.274.274 0 0 0-.013-.1l-.006-.021-.023-.07c-.048.062-.123.111-.15.166-.044.106-.08.216-.117.325-.037.11-.074.219-.118.326.014-.099.019-.199.024-.3a2.64 2.64 0 0 1 .046-.431c.046-.199.065-.41.367-.469.089-.007.156-.213.182-.336.584-2.572 1.538-4.998 2.672-7.372.207-.452.351-.935.491-1.408l.059-.195c.04-.151-.044-.395-.141-.476-.393-.275-.813-.495-1.179-.757zm-29.597-7.622c.182.175.248.311.197.504-.059.223-.123.445-.185.665-.1.348-.197.69-.273 1.021-.091.34-.189.678-.287 1.016-.196.677-.392 1.354-.536 2.048-.228 1.142-.446 2.292-.664 3.442v.004a401.871 401.871 0 0 1-.663 3.437 11.891 11.891 0 0 1-1.562 3.928c-.405.653-1.05 1.016-1.79 1.329-1.228.503-2.541.831-3.891 1.082-1.02.186-1.868-.216-2.696-.676-.597-.332-.821-.99-.755-1.646a7.117 7.117 0 0 1 .401-1.851 45.807 45.807 0 0 1 1.647-3.753 357.562 357.562 0 0 1 3.561-7.254c.795-1.587 1.726-3.096 2.982-4.381.035-.034.068-.07.102-.107.238-.255.481-.516.911-.243.013.011.034.012.059.008a.783.783 0 0 0 .07-.017.477.477 0 0 1 .075-.018c.709-.13 1.503-.038 2.003.246.007.005.013.01.021.014l.035.02.017.009c.016.009.029.017.033.025.053.474.388.658.725.842.165.091.33.181.463.306zm265.957 7.854c-.117-.262-.232-.52-.232-.795 0-.452-.087-.819-.282-1.207-2.257-4.204-4.709-8.278-7.487-12.159-.391-.539-.868-.927-1.476-1.164-.988-.415-1.959-.169-2.913.072l-.407.101c-.109.021-.218.129-.261.237-.13.258-.26.452-.543.28-1.15-.043-1.562.41-1.432 1.488.022.107.022.237.044.344.412 1.919.846 3.838 1.736 5.584 1.286 2.59 2.643 5.137 4.003 7.688l.945 1.776c.803 1.53 2.192 2.371 3.754 2.953.433.164.963.095 1.443.032l.077-.01c.088-.011.165-.117.245-.226v-.001c.05-.067.1-.136.155-.186a.275.275 0 0 1 .099-.061c.089-.034.207.007.328.049.113.039.228.079.323.058l.195-.029c.634-.092 1.278-.186 1.671-.811.087-.13.196-.194.369-.281.182-.084.099-.148-.001-.226-.08-.062-.17-.132-.151-.226.007-.043.014-.088.023-.134v-.003l.01-.058.007-.039c.014-.085.025-.174.025-.262.042-.348.063-.716.084-1.066l.003-.055a.528.528 0 0 0-.024-.136 2.911 2.911 0 0 0-.047-.141v-.001l-.036-.105c-.01-.038-.013-.064-.001-.07.323-.183.188-.367.059-.542a.725.725 0 0 1-.124-.212c-.048-.157-.115-.307-.181-.456zM33.751 234.08c-.26.09-.466.282-.676.478l-.001.001-.115.106a2.876 2.876 0 0 1-.257.212.738.738 0 0 0-.16.187c-.124.179-.253.366-.532.12-.017-.017-.078.032-.153.092-.038.031-.08.065-.122.094a.513.513 0 0 1-.117.064l-.054.015-.002.001c-.337.094-.69.193-1.033.267-.115.04-.237.059-.352.077a4.03 4.03 0 0 0-.137.023c-.096.013-.133.121-.165.216-.041.12-.075.22-.214.075-.138-.136-.235-.218-.385-.258-.72-.168-1.018-.746-1.312-1.316l-.003-.007-.033-.063-.055-.105c-.05-.082-.05-.204-.05-.324 0-.128 0-.253-.06-.326-.061-.081-.192-.121-.317-.16-.13-.04-.255-.078-.294-.158l-.034-.069c-.215-.433-.454-.912-.44-1.374.042-1.667.384-3.254 1.57-4.512l.74-.794.633-.679.001-.001v-.001l.002-.001c1.968-2.114 3.933-4.226 5.962-6.284 1.36-1.409 3.034-2.444 4.714-3.459.094-.056.217-.098.312-.153.976-.474 1.539-.232 1.872.87-.07.323.155.383.442.422.116.005.253.073.309.169.075.117.151.235.228.352.539.824 1.087 1.662 1.016 2.731-.026.652-.238 1.23-.62 1.774-2.765 3.89-5.819 7.536-9.059 11.038a2.536 2.536 0 0 1-1.05.66zm408.084-1.088a2.531 2.531 0 0 0-.247.383c-.602 1.301-1.627 1.532-2.727 1.401l-.343-.054c-1.713-.424-3.258-1.214-4.461-2.496-1.055-1.106-2.005-2.326-2.908-3.56a387.154 387.154 0 0 1-1.703-2.397l-.002-.002c-1.532-2.167-3.061-4.331-4.722-6.411a2.705 2.705 0 0 1-.195-.293c-.543-.872-.151-2.097.809-2.469.163-.062.381-.049.549-.001.137.039.275.076.413.113l.246.065.361.094h.001c.931.243 1.865.486 2.756.851.931.365 1.807.94 2.615 1.527a185.288 185.288 0 0 1 4.201 3.108l.007.006 1.022.77c1.275.966 2.447 2.024 3.436 3.272.863 1.076 1.562 2.212 1.489 3.641-.01.064-.002.153.034.202.403.635.095 1.114-.214 1.596-.069.107-.139.215-.2.325-.06.114-.138.22-.217.329zm-383.604 24.33a68.64 68.64 0 0 0-.648.685c-.2.206-.488.329-.772.45a7.492 7.492 0 0 0-.23.101 2.5 2.5 0 0 0-.262.136c-1.849.189-4.638-1.228-5.147-2.934-.51-1.719-.23-3.52.949-4.931a359.387 359.387 0 0 1 9.04-10.435c.781-.875 1.688-1.642 2.596-2.41h.001c.358-.303.716-.605 1.067-.915.615-.54 1.284-.838 2.078-.344.088.052.216.062.329.071l.04.003c.99.035 1.466.594 1.12 1.52l-.304.807-.28.749c-.709 1.9-1.421 3.808-2.306 5.617-1.496 3.07-3.184 6.068-4.941 9.003-.62 1.038-1.478 1.936-2.33 2.827zm25.673 15.404c-.269-.045-.53-.18-.82-.222-1.425-.17-1.96-1.074-2.176-2.16l-.055-.343c-.125-1.76.149-3.473.996-5.014.725-1.345 1.592-2.625 2.487-3.865.58-.791 1.167-1.576 1.753-2.36 1.588-2.128 3.174-4.252 4.64-6.475.072-.1.143-.199.218-.276.662-.786 1.948-.792 2.599.006a.942.942 0 0 1 .17.522c.014.351.035.702.056 1.054.058.961.115 1.925.044 2.885-.06.998-.337 2.009-.645 2.959-.524 1.671-1.094 3.32-1.661 4.964l-.417 1.21c-.524 1.511-1.169 2.953-2.05 4.28-.756 1.152-1.621 2.168-3.003 2.541-.064.01-.145.045-.181.094-.48.579-1.03.435-1.584.289-.124-.032-.248-.065-.37-.089z" clip-rule="evenodd"/></svg>